<?xml version="1.0" encoding="utf-8"?>
<!-- Generator: Adobe Illustrator 24.1.2, SVG Export Plug-In . SVG Version: 6.00 Build 0)  -->
<svg version="1.1" id="Layer_1" xmlns="http://www.w3.org/2000/svg" xmlns:xlink="http://www.w3.org/1999/xlink" x="0px" y="0px"
	 viewBox="0 0 183.5 168.6" style="enable-background:new 0 0 183.5 168.6;" xml:space="preserve">
<style type="text/css">
	.st0{fill:#010101;}
	.st1{fill:url(#SVGID_1_);}
	.st2{fill:url(#SVGID_2_);}
	.st3{fill:url(#SVGID_3_);}
	.st4{fill:url(#SVGID_4_);}
	.st5{fill:url(#SVGID_5_);}
	.st6{fill:url(#SVGID_6_);}
	.st7{fill:#FFFFFF;}
	.st8{fill:url(#SVGID_7_);}
</style>
<g>
	<path class="st0" d="M32,164.7c0-1.8,26.6-3.2,59.4-3.2c32.8,0,59.4,1.4,59.4,3.2"/>
</g>
<g>
	<path class="st0" d="M150.8,164.7c0,1.8-26.6,3.2-59.4,3.2c-32.8,0-59.4-1.4-59.4-3.2"/>
</g>
<linearGradient id="SVGID_1_" gradientUnits="userSpaceOnUse" x1="79.6017" y1="45.4345" x2="109.3073" y2="45.4345" gradientTransform="matrix(1 0 0 -1 1.091003e-03 59.9188)">
	<stop  offset="0" style="stop-color:#737172"/>
	<stop  offset="0.1989" style="stop-color:#DBDBDB"/>
	<stop  offset="0.2023" style="stop-color:#DADADA"/>
	<stop  offset="0.365" style="stop-color:#969696"/>
	<stop  offset="0.4828" style="stop-color:#6C6C6C"/>
	<stop  offset="0.543" style="stop-color:#5C5C5C"/>
	<stop  offset="0.7109" style="stop-color:#5A5A59"/>
	<stop  offset="0.8133" style="stop-color:#545451"/>
	<stop  offset="0.8982" style="stop-color:#4A4943"/>
	<stop  offset="0.9731" style="stop-color:#3C392E"/>
	<stop  offset="1" style="stop-color:#353225"/>
</linearGradient>
<path class="st1" d="M109.3,24c0,2.8-2.9,5-6.5,5H86.1c-3.6,0-6.5-2.2-6.5-5V5c0-2.8,2.9-5,6.5-5h16.6c3.6,0,6.5,2.2,6.5,5V24z"/>
<linearGradient id="SVGID_2_" gradientUnits="userSpaceOnUse" x1="57.7244" y1="-102.5898" x2="128.7854" y2="-102.5898" gradientTransform="matrix(1 0 0 -1 1.091003e-03 59.9188)">
	<stop  offset="0" style="stop-color:#737172"/>
	<stop  offset="0.129" style="stop-color:#DBDBDB"/>
	<stop  offset="0.1298" style="stop-color:#DADADA"/>
	<stop  offset="0.1905" style="stop-color:#B4B4B4"/>
	<stop  offset="0.2529" style="stop-color:#949494"/>
	<stop  offset="0.3179" style="stop-color:#7B7B7B"/>
	<stop  offset="0.3857" style="stop-color:#6A6A6A"/>
	<stop  offset="0.458" style="stop-color:#5F5F5F"/>
	<stop  offset="0.543" style="stop-color:#5C5C5C"/>
	<stop  offset="0.7109" style="stop-color:#5A5A59"/>
	<stop  offset="0.8133" style="stop-color:#545451"/>
	<stop  offset="0.8982" style="stop-color:#4A4943"/>
	<stop  offset="0.9731" style="stop-color:#3C392E"/>
	<stop  offset="1" style="stop-color:#353225"/>
</linearGradient>
<path class="st2" d="M128.8,162.5c0,1.6-0.8,3-1.9,3H59.6c-1,0-1.9-1.3-1.9-3l0,0c0-1.6,0.8-3,1.9-3h67.3
	C127.9,159.6,128.8,160.9,128.8,162.5z"/>
<linearGradient id="SVGID_3_" gradientUnits="userSpaceOnUse" x1="57.7244" y1="51.1819" x2="128.7854" y2="51.1819" gradientTransform="matrix(1 0 0 -1 1.091003e-03 59.9188)">
	<stop  offset="0" style="stop-color:#737172"/>
	<stop  offset="0.129" style="stop-color:#DBDBDB"/>
	<stop  offset="0.1298" style="stop-color:#DADADA"/>
	<stop  offset="0.1905" style="stop-color:#B4B4B4"/>
	<stop  offset="0.2529" style="stop-color:#949494"/>
	<stop  offset="0.3179" style="stop-color:#7B7B7B"/>
	<stop  offset="0.3857" style="stop-color:#6A6A6A"/>
	<stop  offset="0.458" style="stop-color:#5F5F5F"/>
	<stop  offset="0.543" style="stop-color:#5C5C5C"/>
	<stop  offset="0.7109" style="stop-color:#5A5A59"/>
	<stop  offset="0.8133" style="stop-color:#545451"/>
	<stop  offset="0.8982" style="stop-color:#4A4943"/>
	<stop  offset="0.9731" style="stop-color:#3C392E"/>
	<stop  offset="1" style="stop-color:#353225"/>
</linearGradient>
<path class="st3" d="M128.8,8.7c0,1.6-0.8,3-1.9,3H59.6c-1,0-1.9-1.3-1.9-3l0,0c0-1.6,0.8-3,1.9-3h67.3
	C127.9,5.8,128.8,7.1,128.8,8.7z"/>
<linearGradient id="SVGID_4_" gradientUnits="userSpaceOnUse" x1="53.4542" y1="22.2359" x2="133.0563" y2="22.2359" gradientTransform="matrix(1 0 0 -1 1.091003e-03 59.9188)">
	<stop  offset="0" style="stop-color:#63913E"/>
	<stop  offset="0.1882" style="stop-color:#B1D235"/>
	<stop  offset="0.1904" style="stop-color:#B0D135"/>
	<stop  offset="0.2529" style="stop-color:#90BB39"/>
	<stop  offset="0.3177" style="stop-color:#77AA3D"/>
	<stop  offset="0.3855" style="stop-color:#669E3F"/>
	<stop  offset="0.458" style="stop-color:#5B9641"/>
	<stop  offset="0.543" style="stop-color:#589441"/>
	<stop  offset="0.641" style="stop-color:#5C9740"/>
	<stop  offset="0.7408" style="stop-color:#68A03F"/>
	<stop  offset="0.8415" style="stop-color:#7DAE3C"/>
	<stop  offset="0.9421" style="stop-color:#99C339"/>
	<stop  offset="1" style="stop-color:#ADD136"/>
</linearGradient>
<path class="st4" d="M53.7,67.3H133v-51c0.9-7.3-5-8.2-5-8.2H63.1c-10.2-0.9-9.6,7.6-9.6,7.6"/>
<linearGradient id="SVGID_5_" gradientUnits="userSpaceOnUse" x1="53.683" y1="-56.4291" x2="132.9766" y2="-56.4291" gradientTransform="matrix(1 0 0 -1 1.091003e-03 59.9188)">
	<stop  offset="0" style="stop-color:#2A2627"/>
	<stop  offset="0.1129" style="stop-color:#474747"/>
	<stop  offset="0.1527" style="stop-color:#393939"/>
	<stop  offset="0.2397" style="stop-color:#202020"/>
	<stop  offset="0.331" style="stop-color:#0F0F0F"/>
	<stop  offset="0.4285" style="stop-color:#040404"/>
	<stop  offset="0.543" style="stop-color:#010101"/>
	<stop  offset="0.7452" style="stop-color:#040404"/>
	<stop  offset="0.8685" style="stop-color:#0C0C0C"/>
	<stop  offset="0.9705" style="stop-color:#1A1A1A"/>
	<stop  offset="0.9946" style="stop-color:#1F1F1F"/>
</linearGradient>
<path class="st5" d="M53.7,69.6l0.4,86.8c-0.3,6.7,7,6.7,7,6.7h64.7c7.9,0,7.3-7.3,7.3-7.3V69.6H53.7"/>
<linearGradient id="SVGID_6_" gradientUnits="userSpaceOnUse" x1="53.6734" y1="-8.5211" x2="132.9671" y2="-8.5211" gradientTransform="matrix(1 0 0 -1 1.091003e-03 59.9188)">
	<stop  offset="0" style="stop-color:#737172"/>
	<stop  offset="0.129" style="stop-color:#DBDBDB"/>
	<stop  offset="0.1298" style="stop-color:#DADADA"/>
	<stop  offset="0.1905" style="stop-color:#B4B4B4"/>
	<stop  offset="0.2529" style="stop-color:#949494"/>
	<stop  offset="0.3179" style="stop-color:#7B7B7B"/>
	<stop  offset="0.3857" style="stop-color:#6A6A6A"/>
	<stop  offset="0.458" style="stop-color:#5F5F5F"/>
	<stop  offset="0.543" style="stop-color:#5C5C5C"/>
	<stop  offset="0.7109" style="stop-color:#5A5A59"/>
	<stop  offset="0.8133" style="stop-color:#545451"/>
	<stop  offset="0.8982" style="stop-color:#4A4943"/>
	<stop  offset="0.9731" style="stop-color:#3C392E"/>
	<stop  offset="1" style="stop-color:#353225"/>
</linearGradient>
<polyline class="st6" points="53.7,69.6 133,69.6 133,67.3 53.7,67.3 "/>
<polygon class="st0" points="103.3,38.7 103.3,34.8 95.9,34.9 95.9,27.5 92,27.5 92,34.9 84.6,34.9 84.6,38.8 92,38.7 92,46.1 
	95.9,46.1 95.9,38.7 "/>
<path class="st7" d="M96,46.2h-4.1v-7.4l-7.4,0l0-4.1l7.4,0v-7.4H96v7.4l7.4,0l0,4.1l-7.4,0L96,46.2z M92.1,46h3.7v-7.4l7.4,0l0-3.7
	l-7.4,0v-7.4h-3.7V35l-7.4,0l0,3.7l7.4,0V46z"/>
<linearGradient id="SVGID_7_" gradientUnits="userSpaceOnUse" x1="76.3979" y1="-56.4294" x2="109.3075" y2="-56.4294" gradientTransform="matrix(1 0 0 -1 1.091003e-03 59.9188)">
	<stop  offset="0" style="stop-color:#F6891F"/>
	<stop  offset="0.1129" style="stop-color:#FEE700"/>
	<stop  offset="0.1686" style="stop-color:#FCD208"/>
	<stop  offset="0.2521" style="stop-color:#FAB911"/>
	<stop  offset="0.3396" style="stop-color:#F9A817"/>
	<stop  offset="0.4332" style="stop-color:#F89D1B"/>
	<stop  offset="0.543" style="stop-color:#F89A1C"/>
	<stop  offset="0.6769" style="stop-color:#F89D1B"/>
	<stop  offset="0.7698" style="stop-color:#F9A619"/>
	<stop  offset="0.8502" style="stop-color:#FAB515"/>
	<stop  offset="0.9236" style="stop-color:#FBCB0F"/>
	<stop  offset="0.9916" style="stop-color:#FDE708"/>
	<stop  offset="1" style="stop-color:#FDEB07"/>
</linearGradient>
<polygon class="st8" points="109.3,95.2 94.5,95.2 83.7,115 88.9,115 76.4,137.5 104.6,110.4 95.9,110.4 "/>
</svg>
