<svg xmlns="http://www.w3.org/2000/svg" width="1.9048in" height="2.0635in" viewBox="0 0 137.1429 148.5714"><defs><style>.cls-1{isolation:isolate;}.cls-2{fill:#d7952a;}.cls-3{mix-blend-mode:soft-light;}.cls-4{fill:#f1f2f2;}.cls-5{fill:#625a55;}.cls-6{fill:#fbb938;}.cls-7{fill:#ee6965;}</style></defs><g class="cls-1"><g id="Layer_1" data-name="Layer 1"><rect class="cls-2" x="7.2938" y="98.5035" width="119.6962" height="21.0975" transform="translate(169.5522 185.9454) rotate(158.5205)"/><g class="cls-3"><path class="cls-4" d="M12.513,130.4774l-2.1973-5.583,13.252-5.2149c4.0571-1.5927,7.3437-.8027,9.4965,2.2032L57.67,112.2a9.9467,9.9467,0,0,1,12.88,5.6065l1.3242,3.3642-5.583,2.1973-1.3242-3.3643a3.9372,3.9372,0,0,0-5.1-2.2207l-29.8638,11.75L28.89,126.7762c-.82-2.0889-1.2212-2.2627-3.1255-1.5127Z"/></g><g class="cls-3"><polygon class="cls-4" points="14.002 123.182 120.822 82.024 118.971 77.322 7.588 121.15 15.313 140.783 20.063 138.914 14.002 123.182"/></g><path class="cls-5" d="M13.62,144.6737,3.6985,119.4578,120.6629,73.4315l9.9243,25.2158Zm-2.1411-21.8291,5.5273,14.0478L122.8074,95.2616l-5.53-14.0508Z"/><path class="cls-5" d="M93.16,102.0379l-2.1967-5.583,16.5878-6.5273a3.93,3.93,0,0,0,2.2208-5.0987l-1.3243-3.3671,5.5835-2.1973,1.3238,3.3662a9.9323,9.9323,0,0,1-5.6065,12.88Z"/><path class="cls-5" d="M12.513,129.5584l-2.1973-5.583,13.252-5.2138c4.0571-1.5938,7.3437-.8028,9.4965,2.2021L57.67,111.2811a9.9474,9.9474,0,0,1,12.88,5.6064l1.3242,3.3643-5.583,2.1973-1.3242-3.3643a3.9371,3.9371,0,0,0-5.1-2.2207l-29.8638,11.749L28.89,125.8573c-.82-2.0889-1.2212-2.2627-3.1255-1.5137Z"/><path class="cls-5" d="M81.28,110.3553l-2.1968-5.583,9.8916-3.8926a.5289.5289,0,0,0,.2666-.6123.4761.4761,0,0,0-.6123-.2666l-24.2012,9.5225-2.1968-5.583,24.2012-9.5225a6.472,6.472,0,1,1,4.74,12.0449Z"/><g class="cls-3"><path class="cls-4" d="M115.6863,83.5682l-1.3237-3.3662-5.5835,2.1973,1.3242,3.3671a3.93,3.93,0,0,1-2.22,5.0987L93.41,96.56a6.4667,6.4667,0,0,0-6.6465-1.2051l-24.2012,9.5225,2.1968,5.583L88.96,100.9383a.4762.4762,0,0,1,.6123.2666.5289.5289,0,0,1-.2666.6123L79.4139,105.71l2.1967,5.583L91.5027,107.4a6.2931,6.2931,0,0,0,4.0244-5.2256L110.08,96.4481a9.9323,9.9323,0,0,0,5.6064-12.88Z"/></g><path class="cls-5" d="M115.3553,82.6307l-1.3238-3.3662-5.5835,2.1973,1.3243,3.3671a3.93,3.93,0,0,1-2.2208,5.0987L93.0784,95.6229a6.4666,6.4666,0,0,0-6.6465-1.2051L62.2307,103.94l2.1968,5.583,24.2012-9.5225a.4761.4761,0,0,1,.6123.2666.5289.5289,0,0,1-.2666.6123l-9.8916,3.8926,2.1968,5.583,9.8921-3.8926a6.2937,6.2937,0,0,0,4.0244-5.2256l14.5527-5.7265a9.9323,9.9323,0,0,0,5.6065-12.88Z"/><path class="cls-6" d="M66.8479,84.3475c.2012,0-3.4917-1.1963-7.5395-3.29-2.1616-1.0469-4.1431-2.3174-6.5855-3.7754a43.0609,43.0609,0,0,1-6.16-4.8975c-3.7857-3.5889-6.41-7.7754-7.0288-12.2617a48.8044,48.8044,0,0,1,1.0493-14.0567A61.6079,61.6079,0,0,1,53.83,19.7489a75.8426,75.8426,0,0,1,8.6684-8.6729c2.5982-2.0937,4.35-3.29,4.35-3.29s1.7515,1.1963,4.35,3.29a75.8425,75.8425,0,0,1,8.6685,8.6729A61.61,61.61,0,0,1,93.1126,46.0662a48.8079,48.8079,0,0,1,1.0493,14.0567c-.6191,4.4863-3.2432,8.6728-7.0288,12.2617a43.0673,43.0673,0,0,1-6.16,4.8975c-2.4419,1.458-4.4238,2.7285-6.5854,3.7754C70.34,83.1512,66.6468,84.3475,66.8479,84.3475Z"/><g class="cls-3"><path class="cls-4" d="M93.1126,46.0662A61.6158,61.6158,0,0,0,79.866,19.7489a75.8425,75.8425,0,0,0-8.6685-8.6729c-2.5981-2.0937-4.35-3.29-4.35-3.29s-1.7514,1.1963-4.35,3.29A75.8426,75.8426,0,0,0,53.83,19.7489,61.6136,61.6136,0,0,0,40.5833,46.0662,48.79,48.79,0,0,0,39.534,60.1229c.6191,4.4863,3.2431,8.6728,7.0288,12.2617a43.0609,43.0609,0,0,0,6.16,4.8975c2.4419,1.458,4.4239,2.7285,6.5855,3.7754,4.0478,2.0937,7.7407,3.29,7.5395,3.29s3.4917-1.1963,7.54-3.29c2.1616-1.0469,4.1435-2.3174,6.5854-3.7754a43.0673,43.0673,0,0,0,6.16-4.8975c3.7856-3.5889,6.41-7.7754,7.0288-12.2617A48.8079,48.8079,0,0,0,93.1126,46.0662Zm-2.937,14.86C89.6531,64.71,87.44,68.24,84.2483,71.2674a36.307,36.307,0,0,1-5.1948,4.1289c-2.06,1.2305-3.731,2.3018-5.5537,3.1846-3.4136,1.7656-6.5274,2.7744-6.3579,2.7744s-2.9448-1.0088-6.3584-2.7744c-1.8223-.8828-3.4937-1.9541-5.5532-3.1846a36.3079,36.3079,0,0,1-5.1949-4.1289C46.8435,68.24,44.63,64.71,44.1082,60.9266a41.1741,41.1741,0,0,1,.8848-11.8535A51.9627,51.9627,0,0,1,56.1639,26.88a63.9511,63.9511,0,0,1,7.31-7.3135c2.1909-1.7656,3.668-2.7744,3.668-2.7744s1.4765,1.0088,3.6679,2.7744A63.9915,63.9915,0,0,1,78.12,26.88,51.9573,51.9573,0,0,1,89.29,49.0731,41.1572,41.1572,0,0,1,90.1756,60.9266Z"/></g><path class="cls-5" d="M66.847,87.3465a3,3,0,0,1-1.3706-.331l-.3135-.12a68.7215,68.7215,0,0,1-7.2354-3.1738c-1.7514-.8476-3.4448-1.873-5.24-2.958l-1.5029-.9072A46.4761,46.4761,0,0,1,44.4358,74.5c-4.4526-4.2216-7.1972-9.0722-7.8711-13.9677a51.1418,51.1418,0,0,1,1.0782-15.0557A64.5481,64.5481,0,0,1,51.5535,17.7928a71.3929,71.3929,0,0,1,8.1172-8.209l.8144-.7324c2.7911-2.2549,4.5957-3.4912,4.669-3.543a3.0057,3.0057,0,0,1,3.3862,0c.0733.0518,1.8775,1.2881,4.5371,3.4307l.9551.8535a71.4127,71.4127,0,0,1,8.1724,8.2783,64.4128,64.4128,0,0,1,13.8408,27.57,51.3439,51.3439,0,0,1,1.1016,14.9649c-.6885,5.0225-3.4332,9.875-7.9532,14.1562A45.5994,45.5994,0,0,1,82.6619,79.76l-1.6167.98c-1.8076,1.0937-3.5151,2.1279-5.3516,3.0166a68.0913,68.0913,0,0,1-7.1679,3.1416l-.3106.1191A3.0082,3.0082,0,0,1,66.847,87.3465ZM66.85,11.49c-.67.5019-1.5112,1.1494-2.4722,1.9209l-.7.6357a66.8867,66.8867,0,0,0-7.51,7.5811A58.44,58.44,0,0,0,43.5188,46.6912a45.2855,45.2855,0,0,0-.999,13.1436c.4717,3.4082,2.5894,7.0381,6.1074,10.373a40.777,40.777,0,0,0,5.7881,4.5967l1.38.8252c1.7427,1.0557,3.2485,1.9668,4.8184,2.7285A62.0908,62.0908,0,0,0,66.847,81.117a60.6318,60.6318,0,0,0,6.16-2.7236c1.6553-.8027,3.1724-1.7207,4.9331-2.7861l1.4937-.9A40.3574,40.3574,0,0,0,85.0057,70.27c3.582-3.3974,5.6972-7.0253,6.1865-10.5585a45.6493,45.6493,0,0,0-1.02-13.0557,58.34,58.34,0,0,0-12.581-24.9522,66.8892,66.8892,0,0,0-7.5664-7.6484l-.84-.7568C68.2913,12.5838,67.4944,11.9715,66.85,11.49Z"/><path class="cls-7" d="M66.8479,79.7625c.0894,0-1.55-.5312-3.3466-1.46-.9595-.4649-1.8389-1.0293-2.9229-1.6758A19.18,19.18,0,0,1,57.844,74.453a9.5052,9.5052,0,0,1-3.12-5.4434,21.6474,21.6474,0,0,1,.4658-6.2383A27.3444,27.3444,0,0,1,61.07,51.09a33.6013,33.6013,0,0,1,3.8477-3.85c1.1533-.93,1.9306-1.461,1.9306-1.461s.7774.5313,1.9307,1.461a33.6094,33.6094,0,0,1,3.8477,3.85,27.3455,27.3455,0,0,1,5.8794,11.6816,21.6474,21.6474,0,0,1,.4658,6.2383,9.5048,9.5048,0,0,1-3.12,5.4434,19.18,19.18,0,0,1-2.7343,2.1738c-1.084.6465-1.9634,1.2109-2.9229,1.6758C68.3977,79.2313,66.7586,79.7625,66.8479,79.7625Z"/><g class="cls-3"><path class="cls-4" d="M66.8479,75.0077c.0323,0-.5581-.1915-1.205-.5264-.3453-.167-.6622-.37-1.0523-.6035a6.8263,6.8263,0,0,1-.9849-.7823,3.4236,3.4236,0,0,1-1.123-1.96,7.7884,7.7884,0,0,1,.1675-2.2471,9.8464,9.8464,0,0,1,2.1172-4.2051,12.0591,12.0591,0,0,1,1.3852-1.3867c.4156-.3349.6953-.5254.6953-.5254s.28.1905.6953.5254a12.051,12.051,0,0,1,1.3853,1.3867,9.8419,9.8419,0,0,1,2.1172,4.2051,7.8061,7.8061,0,0,1,.1675,2.2471,3.4238,3.4238,0,0,1-1.1231,1.96,6.82,6.82,0,0,1-.9848.7823c-.39.2334-.7071.4365-1.0523.6035C67.406,74.8162,66.8157,75.0077,66.8479,75.0077Z"/></g><path class="cls-5" d="M66.8968,82.84a2.8932,2.8932,0,0,1-1.3619-.376,32.2316,32.2316,0,0,1-3.41-1.4971c-.7559-.3632-1.5322-.8281-2.3989-1.3515l-.6827-.4121a22.4034,22.4034,0,0,1-3.3247-2.6348A12.3442,12.3442,0,0,1,51.7527,69.42a24.4385,24.4385,0,0,1,.4951-7.2364,30.372,30.372,0,0,1,6.55-13.0488,32.5544,32.5544,0,0,1,3.7232-3.7725l.3808-.3447c1.4-1.1318,2.25-1.7129,2.25-1.7129a3.0163,3.0163,0,0,1,3.3862-.0039s.8584.584,2.1235,1.6045l.4834.4287a33.03,33.03,0,0,1,3.82,3.877,30.2546,30.2546,0,0,1,6.4766,12.9355,24.3822,24.3822,0,0,1,.5151,7.1485A12.46,12.46,0,0,1,77.9139,76.63a21.7122,21.7122,0,0,1-3.1021,2.4727l-.832.5068c-.87.5274-1.649.9912-2.4751,1.3926a31.8969,31.8969,0,0,1-3.3189,1.4512A2.4006,2.4006,0,0,1,66.8968,82.84Zm-.05-33.3027c-.0176.0136-.0323.0273-.0494.04l-.2666.2461a27.2023,27.2023,0,0,0-3.12,3.1435,24.2666,24.2666,0,0,0-5.2876,10.4307,18.5785,18.5785,0,0,0-.416,5.3272,6.6489,6.6489,0,0,0,2.2,3.5507,16.73,16.73,0,0,0,2.3638,1.877l.5595.3291c.6939.4219,1.312.8,1.9771,1.12.7734.4,1.4912.7119,2.0386.9346.542-.22,1.2421-.5225,1.9716-.8994.7354-.3555,1.356-.7383,2.0591-1.1612l.7061-.4248a16.4275,16.4275,0,0,0,2.1382-1.7119A6.8939,6.8939,0,0,0,76.0008,68.6a18.7782,18.7782,0,0,0-.4361-5.2364,24.1749,24.1749,0,0,0-5.2114-10.3183A28.0075,28.0075,0,0,0,67.137,49.8Z"/><rect class="cls-2" x="7.2938" y="98.5035" width="119.6962" height="21.0975" transform="translate(44.5947 -17.0114) rotate(21.4795)"/><g class="cls-3"><polygon class="cls-4" points="18.208 83.054 125.131 125.129 126.696 121.15 15.313 77.322 7.587 96.954 12.048 98.709 18.208 83.054"/></g><g class="cls-3"><path class="cls-4" d="M46.0081,100.7772l24.2,9.5224,2.0156-5.122-24.2-9.5225a6.22,6.22,0,0,0-6.5093,1.2588l-14.6108-5.75a4.1871,4.1871,0,0,1-2.3594-5.4228l1.3223-3.3643-5.1221-2.0127-1.3222,3.3623A9.6859,9.6859,0,0,0,24.888,96.287l14.6919,5.78a6.2129,6.2129,0,0,0,3.8862,5.1719l9.8921,3.8926,2.0156-5.1221-9.8921-3.8926a.72.72,0,1,1,.5264-1.34Z"/></g><g class="cls-3"><path class="cls-4" d="M122.616,130.4793l-13.252-5.2138c-1.3271-.5235-1.8369-.3848-1.96-.333-.126.0546-.5713.3339-1.0923,1.6611l-1.0986,2.792-2.856-.94L75.2649,117.785a3.9337,3.9337,0,0,0-5.1,2.22L68.8411,123.37l-5.5835-2.1963,1.3242-3.3653a9.933,9.933,0,0,1,12.88-5.6054l24.62,9.6875c2.1822-3.0254,5.46-3.7871,9.479-2.208l13.252,5.2138Z"/></g><path class="cls-5" d="M120.6629,144.6737,3.6985,98.6473,13.62,73.4315l116.9673,46.0263ZM11.4788,95.2616l105.7983,41.6308,5.53-14.0478L17.0061,81.2108Z"/><path class="cls-5" d="M41.1228,102.0379,24.5345,95.5106A9.9464,9.9464,0,0,1,18.928,82.6317l1.3237-3.3672,5.5831,2.1973L24.511,84.827a3.9384,3.9384,0,0,0,2.22,5.1006L43.32,96.4549Z"/><path class="cls-5" d="M121.77,129.5584l-13.252-5.2148c-1.3266-.5225-1.8364-.3848-1.9594-.332-.126.0546-.5713.3339-1.0928,1.6611l-1.0986,2.792-2.856-.9395L74.4192,116.8641a3.9334,3.9334,0,0,0-5.1,2.22l-1.3242,3.3653-5.583-2.1973,1.3237-3.3643a9.9351,9.9351,0,0,1,12.88-5.6064l24.6206,9.6885c2.1821-3.0264,5.46-3.7871,9.479-2.208l13.2515,5.2138Z"/><path class="cls-5" d="M121.77,129.5584l-13.252-5.2148c-1.3266-.5225-1.8364-.3848-1.9594-.332-.126.0546-.5713.3339-1.0928,1.6611l-1.0986,2.792-2.856-.9395L74.4192,116.8641a3.9334,3.9334,0,0,0-5.1,2.22l-1.3242,3.3653-5.583-2.1973,1.3237-3.3643a9.9351,9.9351,0,0,1,12.88-5.6064l24.6206,9.6885c2.1821-3.0264,5.46-3.7871,9.479-2.208l13.2515,5.2138Z"/><path class="cls-5" d="M53.0037,110.3553l-9.8921-3.8926a6.4719,6.4719,0,1,1,4.7393-12.0449L72.0525,103.94l-2.1972,5.583-24.2012-9.5225a.4744.4744,0,0,0-.6123.2686.5274.5274,0,0,0,.2666.61l9.8921,3.8926Z"/></g></g></svg>