<svg id="Layer_3" data-name="Layer 3" xmlns="http://www.w3.org/2000/svg" width="379.8101" height="336.044" viewBox="0 0 379.8101 336.044"><defs><style>.cls-1{fill:#c00;}.cls-2{fill:#004aff;}.cls-3{fill:#ffd594;}.cls-4{fill:#959738;}.cls-23,.cls-5{fill:#fff;}.cls-6{fill:#d92526;}.cls-7{fill:#f25400;}.cls-8{fill:#58595b;}.cls-9{fill:#0e9254;}.cls-10{fill:#a1c9ff;}.cls-11{fill:#92db97;}.cls-12{fill:#8cc53f;}.cls-13{fill:#a19254;}.cls-14{fill:#f25415;}.cls-15{fill:#f27a2a;}.cls-16{fill:#043f56;}.cls-17{fill:#65b786;}.cls-18{fill:#fc8681;}.cls-19{fill:#ffd399;}.cls-20{fill:#603a17;}.cls-21{fill:#02ccff;}.cls-22{fill:#ddd;}.cls-23{opacity:0.41;}.cls-24{fill:#e20000;}.cls-25{fill:#c99200;}.cls-26{fill:#005ea3;}.cls-27{fill:#6f7900;}.cls-28{fill:#ff7400;}.cls-29{fill:#007ce8;}.cls-30{fill:#ed0000;}.cls-31{fill:#b1ffff;}.cls-32{fill:#ec2224;}.cls-33{fill:#b11f24;}.cls-34{fill:#d8a1d7;}.cls-35{fill:#f4c9f5;}.cls-36{fill:#434343;}.cls-37{fill:#ffff5e;}.cls-38{fill:#46ba13;}.cls-39{fill:#f00000;}.cls-40{fill:#236d00;}.cls-41{fill:#d5d65b;}.cls-42{fill:#039659;}.cls-43{fill:#420043;}.cls-44{fill:#424143;}.cls-45{fill:#800;}.cls-46{fill:#d98126;}.cls-47{fill:#ffe500;}.cls-48{fill:#00567c;}.cls-49{fill:#ec8d00;}.cls-50{fill:#ecec60;}.cls-51{fill:#ececec;}.cls-52{fill:#ecec4f;}</style></defs><path class="cls-1" d="M363.0152,328.6592H16.7954A17.0178,17.0178,0,0,1,0,311.4639V86.6324A17.0183,17.0183,0,0,1,16.7954,69.4375h346.22A17.0179,17.0179,0,0,1,379.81,86.6324V311.4639A17.0174,17.0174,0,0,1,363.0152,328.6592ZM16.7954,76.3155A10.1346,10.1346,0,0,0,6.878,86.6324V311.4639a10.1352,10.1352,0,0,0,9.9174,10.3184h346.22a10.1349,10.1349,0,0,0,9.917-10.3184V86.6324a10.1342,10.1342,0,0,0-9.917-10.3169Z"/><path class="cls-2" d="M76.1465,62.26a3.6294,3.6294,0,0,1-3.63,3.63H42.7115a3.6291,3.6291,0,0,1-3.63-3.63h0a3.6294,3.6294,0,0,1,3.63-3.63H72.5166a3.63,3.63,0,0,1,3.63,3.63Z"/><path class="cls-2" d="M346.3,62.6416a3.63,3.63,0,0,1-3.63,3.63H312.8648a3.63,3.63,0,0,1-3.63-3.63h0a3.63,3.63,0,0,1,3.63-3.63H342.67a3.63,3.63,0,0,1,3.63,3.63Z"/><path class="cls-1" d="M131.9346,57.4834a5.7319,5.7319,0,0,1-5.7315,5.7315H101.3657a5.7319,5.7319,0,0,1-5.7314-5.7315h0a5.732,5.732,0,0,1,5.7314-5.7319h24.8374a5.732,5.732,0,0,1,5.7315,5.7319Z"/><path class="cls-1" d="M282.105,57.4834a5.7312,5.7312,0,0,1-5.7314,5.7315h-24.837a5.7312,5.7312,0,0,1-5.7314-5.7315h0a5.7313,5.7313,0,0,1,5.7314-5.7319h24.837a5.7313,5.7313,0,0,1,5.7314,5.7319Z"/><path class="cls-1" d="M119.3633,24.3179c0-5.5215,3.3374-10.0132,7.44-10.0132H251.1538c4.1016,0,7.44,4.4917,7.44,10.0132V55.7886h10.6279V24.3179C269.2222,10.9087,261.1177,0,251.1538,0H126.8032c-9.9633,0-18.0683,10.9087-18.0683,24.3179V55.7886h10.6284Z"/><path class="cls-2" d="M96.3985,331.7452A4.2981,4.2981,0,0,1,92.1,336.044H65.1607a4.2981,4.2981,0,0,1-4.2989-4.2988h0a4.2982,4.2982,0,0,1,4.2989-4.2989H92.1a4.2982,4.2982,0,0,1,4.2989,4.2989Z"/><path class="cls-2" d="M320.5073,331.7452a4.2977,4.2977,0,0,1-4.2988,4.2988H289.27a4.2977,4.2977,0,0,1-4.2988-4.2988h0a4.2978,4.2978,0,0,1,4.2988-4.2989h26.9385a4.2978,4.2978,0,0,1,4.2988,4.2989Z"/><path class="cls-3" d="M285.6138,249.3125h30.7578a4.9551,4.9551,0,0,1,4.9551,4.9551v42.6953a4.9541,4.9541,0,0,1-4.9541,4.9541H285.6138a4.9541,4.9541,0,0,1-4.9541-4.9541V254.2666A4.9541,4.9541,0,0,1,285.6138,249.3125Z"/><path class="cls-4" d="M314.772,240.2676a3.3378,3.3378,0,0,0-3.3389-3.3379H290.2925a3.3385,3.3385,0,0,0-3.34,3.3379v9.0449H314.772Z"/><path class="cls-5" d="M294.4527,260.1143a3.5324,3.5324,0,0,0-3.5323,3.5322v23.6153a3.5312,3.5312,0,0,0,3.5323,3.5293h26.874V260.1143Z"/><path class="cls-6" d="M320.3589,265.0205l-1.3017.9649v.0967a2.4908,2.4908,0,0,1-.5284.373q-.3633.2037-.76.4219c-.2647.1445-.5137.2871-.7471.4326a3.0111,3.0111,0,0,0-.5166.3867,1.2244,1.2244,0,0,1-.3623.12c-.16.0332-.3262.06-.4941.084s-.32.0479-.4581.0733a2.0241,2.0241,0,0,1-.2763.0351l.4092.169a1.8686,1.8686,0,0,1-1.06.29l-.2412-.0137-.2647-.0351a2.3021,2.3021,0,0,1-.36.3144l-.5557-.0517a.6833.6833,0,0,1-.65.3379,3.6719,3.6719,0,0,1-.4082-.0352,3.7221,3.7221,0,0,0-.4355-.0351.9438.9438,0,0,0-.2637.0244c-.209-.0166-.459-.0244-.7461-.0244h-1.0137l-.2763-.1329-.3623-.0478-.3243-.0117h-.1689l-.07,5.4433q.7706-.3369,1.251-.5644c.3222-.1543.5468-.2705.6757-.3506.209-.1289.4209-.2656.6377-.4082.2168-.1455.4161-.2949.6016-.4463a2.3909,2.3909,0,0,0,.4463-.4814.8557.8557,0,0,0,.167-.4727l-.0947-.3008-.2413-.13a.4778.4778,0,0,0-.3974.2032,5.4936,5.4936,0,0,0-.3135.4589,2.4941,2.4941,0,0,1-.3623.4571.76.76,0,0,1-.5645.2041,1.4591,1.4591,0,0,1-.7939-.1953l-.3379-.3848.168-.0215a2.1718,2.1718,0,0,1,.5185.0957,2.1294,2.1294,0,0,0,.4932.0957.7092.7092,0,0,0,.3623-.1181.4081.4081,0,0,0,.1924-.3643c0-.1592-.16-.3281-.4815-.5039a1.0674,1.0674,0,0,0-.5791.2412,1.4217,1.4217,0,0,1-.4824.2627l-.2744.1094-.2305.0859-.17-.0723a1.4272,1.4272,0,0,1,.4111-1.0127l.8653-.7939a2.7845,2.7845,0,0,1,1.7363-.5322,2.4359,2.4359,0,0,1,1.625.5185,2.1769,2.1769,0,0,1,.6143,1.7461,1.8,1.8,0,0,1-.5059,1.1319q-1.0107.8438-1.9141,1.5175c-.6044.45-1.1611.8379-1.6748,1.1582a2.8023,2.8023,0,0,1,1.0606,2.1436,3.3251,3.3251,0,0,1-1.5186,2.5283A2.215,2.215,0,0,1,310,282.0284a2.261,2.261,0,0,1-1.1787,2.2158,2.96,2.96,0,0,1,.3135,1.0849,1.0415,1.0415,0,0,1-.4951.9405,2.0536,2.0536,0,0,1-.9981.3369l-.0127-.0615-.0136-.0606c0-.08.1064-.1514.3154-.2148l.3125-.0489.24-.2666.1709-.2519.07-.2764a.9481.9481,0,0,0-.3144-.7226,1.0917,1.0917,0,0,0-.7686-.2891l-.1,2.6484h-.4082l-.12-2.6015-.1689-.0254a1.2,1.2,0,0,0-.6123.22.7583.7583,0,0,0-.3506.6983.8337.8337,0,0,0,.3125.6865,1.4764,1.4764,0,0,0,.7949.3008v.2412a1.334,1.334,0,0,1-1.1074-.4229,1.576,1.576,0,0,1-.3369-1.0224,1.9044,1.9044,0,0,1,.0957-.5547c.0644-.209.1357-.3116.2177-.3116a1.8658,1.8658,0,0,1-.8916-.8818,3.2949,3.2949,0,0,1-.2656-1.4082,2.3359,2.3359,0,0,1,.9639-1.9756,3.4326,3.4326,0,0,1-1.4942-2.6015,2.2979,2.2979,0,0,1,.2178-.9737,4.0731,4.0731,0,0,1,.8428-1.0967c-.82-.6093-1.5459-1.15-2.1807-1.6142a16.0272,16.0272,0,0,1-1.5791-1.3027,1.0843,1.0843,0,0,1-.2734-.48,2.1445,2.1445,0,0,1-.084-.627,2.2447,2.2447,0,0,1,.19-.9765,1.6623,1.6623,0,0,1,.5049-.6231,2.2137,2.2137,0,0,1,.7119-.34,3.2357,3.2357,0,0,1,.83-.1084,3.9379,3.9379,0,0,1,1.542.3388q.5068.457,1,.9141a1.3657,1.3657,0,0,1,.4941,1.0117l-.0976.0742a3.26,3.26,0,0,1-.7451-.1943,1.0286,1.0286,0,0,1-.3731-.24.7149.7149,0,0,0-.3994-.2168.6058.6058,0,0,0-.3955.1806.4955.4955,0,0,0-.2061.3477.5186.5186,0,0,0,.58.4824,2.2758,2.2758,0,0,0,.54-.1074,2.3919,2.3919,0,0,1,.6162-.1084,1.0486,1.0486,0,0,1-.795.626h-.5781a.6354.6354,0,0,1-.4844-.2412l-.0332-.1328c-.0576-.1036-.1338-.2237-.2295-.3624a4.0785,4.0785,0,0,0-.3144-.3837l-.335-.1807c-.1953,0-.291.1289-.291.3848a1.13,1.13,0,0,0,.3731.7724,5.4332,5.4332,0,0,0,.917.7461,11.557,11.557,0,0,0,1.1787.6875c.4257.2158.8086.4141,1.1445.5889l.0215-5.5147H306.29c-.0957,0-.2129.001-.3477.0108a2.57,2.57,0,0,0-.4209.06,1.003,1.003,0,0,0-.3633.1456h-1.2754L303.69,268.9l-.2549.0489-.251.0488-.1934-.0488c-.0654,0-.1816.0078-.3505.0244-.168.0146-.2842.0244-.3467.0244a.4892.4892,0,0,1-.5078-.3389h-.1446l-.2763-.01c-.1045-.0078-.22-.0214-.3487-.039a.3354.3354,0,0,0-.3613-.24l-.24.0244-.2422.0244-.2891-.0723-.6025-.2178.4326-.1445a4.3463,4.3463,0,0,1-2.5029-.9629,1.2736,1.2736,0,0,1-.4229-.1679c-.1689-.0977-.333-.2-.4931-.3145-.1612-.1094-.3106-.2168-.4463-.3115a1.3967,1.3967,0,0,0-.2764-.17l-.0488-.1915c-.2412-.16-.4961-.3359-.7705-.5175a2.1908,2.1908,0,0,1-.6016-.5674.3823.3823,0,0,1,.4082-.3379,1.9407,1.9407,0,0,1,.2539.0478,1.67,1.67,0,0,0,.4229.0489,13.1606,13.1606,0,0,0,2.7568-.3252,19.3987,19.3987,0,0,0,3.3115-1.0713,3.7361,3.7361,0,0,1,1.06-.17,1.3621,1.3621,0,0,1,.9639.3144.8266.8266,0,0,1,.3623-.0732,1.1361,1.1361,0,0,1,.8545.4707,5.56,5.56,0,0,1,.6865,1.0224q.8173,1.5675.8662,1.6143a1.0328,1.0328,0,0,0,.459-.7461,1.2832,1.2832,0,0,1-.5059-1.1553.9981.9981,0,0,1,.1436-.5439,1.395,1.395,0,0,1,.3359-.3721,1.4175,1.4175,0,0,1,.4238-.2168,1.3858,1.3858,0,0,1,.3985-.0732,1.1581,1.1581,0,0,1,.8652.4111,1.3549,1.3549,0,0,1,.3877.9629,1.277,1.277,0,0,1-.6045,1.06,2.1587,2.1587,0,0,0,.5068.6983,2.6757,2.6757,0,0,0,.4805-.7715c.2422-.4961.44-.8867.5908-1.168a4.4329,4.4329,0,0,1,.4112-.6494,1.2558,1.2558,0,0,1,.3486-.3281,3.02,3.02,0,0,1,.4082-.19l.2656.0469.3008-.0469c.1211-.0341.2442-.0654.3731-.0976.1308-.0332.26-.0645.3867-.0977a1.4261,1.4261,0,0,1,.3125-.0468,3.26,3.26,0,0,1,.8428.1806c.3837.1211.9335.3106,1.6386.5655q.8438.2884,1.4444.4589a9.9859,9.9859,0,0,0,1.0849.2412c.3213.0459.6153.0811.8906.0948.2745.0166.5459.0244.8184.0244a6.571,6.571,0,0,0,1.0361-.0733c.21.0352.3145.1055.3145.2168v.0489Zm-23.2217-.3125c-.289.0342-.5791.06-.8672.087-.288.0214-.5869.0351-.8906.0351H294.97a4.3168,4.3168,0,0,1-.4345-.0244,3.1531,3.1531,0,0,0,1.59.3857,2.4254,2.4254,0,0,0,1.1338-.2421Zm.336.5323a2.6011,2.6011,0,0,1-1.253.2881,4.4726,4.4726,0,0,1-.7685-.0733c.2724.1455.3926.2158.3613.2158.2256-.0312.4834-.0732.7813-.13.2959-.0567.6474-.125,1.0488-.2061Zm1.1093.2148q-.8188.2182-1.4453.3506a10.3734,10.3734,0,0,1-1.082.18,1.2429,1.2429,0,0,0,.7686.2187h.2656l.289-.05.6973-.2177A.7937.7937,0,0,0,298.5825,265.4551Zm-.2412.6992a6.1155,6.1155,0,0,1-.833.29,4.1482,4.1482,0,0,1-.6357.1191h.1914a3.749,3.749,0,0,0,1.374-.3115Zm.2657-1.0361.2168-.0732.1445-.0469a3.7076,3.7076,0,0,1-.6729-.5069,1.8338,1.8338,0,0,0-.3877.0733,1.7224,1.7224,0,0,1-.4345.0723.8422.8422,0,0,0,.7246.5546A1.4181,1.4181,0,0,0,298.607,265.1182Zm-.626,1.6621c.3066-.081.583-.1514.83-.2168a1.3834,1.3834,0,0,0,.64-.3594Zm.1933.3125a1.7318,1.7318,0,0,0,1.06-.3369,3.6025,3.6025,0,0,1-1.1826.3369Zm1.8057-.5049a2.5369,2.5369,0,0,1-1.6387.8438.9841.9841,0,0,0,.4356.0947,2.3687,2.3687,0,0,0,1.1543-.5049Zm.168-1.6386-.168.0712-.0488-.0107-.0723-.0117q-.58,0-1.206.9873h.124l.3115-.0352.3008-.084.2178-.0732A3.6447,3.6447,0,0,0,300.148,264.9493Zm.0732-.65a.438.438,0,0,0-.3857-.24l-.2285.0489-.3379.1181-.3369.1221-.2305.0469c.0176.0175.1064.08.2666.1943a.9418.9418,0,0,0,.5527.168,1.53,1.53,0,0,0,.9649-.3623Zm.7461,2.4082a8.4651,8.4651,0,0,1-1.4219.9384l.1436.0264.0976.0117.0967.0127q.7471,0,1.3721-1.0351Zm.8184-2.6485-.2657.167a1.21,1.21,0,0,0-.831.542,9.6887,9.6887,0,0,0-.6113,1.0254l1.082-.6494Zm0-.6738a4.4406,4.4406,0,0,0-1.54.5283.5752.5752,0,0,0,.4307.17,2.0891,2.0891,0,0,0,.5537-.1211,1.2837,1.2837,0,0,0,.3877-.2031A.4482.4482,0,0,0,301.7857,263.3848Zm-1.3,2.5762a1.0814,1.0814,0,0,0-.086.2177,1.38,1.38,0,0,0-.084.4581v.1435a3.1434,3.1434,0,0,0,1.1817-1.4453Zm.8906,1.1562a4.1092,4.1092,0,0,1-1.0361.9649h.1211a.8632.8632,0,0,0,.457-.1221,1.1124,1.1124,0,0,0,.3017-.2627l.1563-.2656.0488-.1436Zm.9385-2.2871a.5385.5385,0,0,0-.3223.2529,2.8915,2.8915,0,0,0-.2422.4581c-.0732.1669-.1406.3251-.2041.4687a.6341.6341,0,0,1-.2178.2891c.2569-.16.4522-.294.5889-.3975a1.6865,1.6865,0,0,0,.3027-.2764l.1084-.23.0118-.251A1.5392,1.5392,0,0,0,302.315,264.83Zm-.1426,2.458a1.69,1.69,0,0,0-.7725.7451A1.1608,1.1608,0,0,0,302.1724,267.2881Zm.5293.4815c-.0147-.0977-.0391-.2578-.0723-.4815a2.5525,2.5525,0,0,1-1.2041,1.0821A2.4494,2.4494,0,0,0,302.7017,267.77Zm.3379-4.2168a1.3383,1.3383,0,0,0-.2666-.0479.5074.5074,0,0,0-.3711.2022,3.1374,3.1374,0,0,0-.3281.4482,5.1124,5.1124,0,0,0-.24.457c-.0635.1446-.1025.2178-.1211.2178a.8193.8193,0,0,0,.3506-.2412,5.2481,5.2481,0,0,0,.35-.4092q.1671-.2168.3252-.3974Zm-.7705,3.3.0107-.0371.0137-.06-.0244-.2627c-.0176-.1123-.041-.2578-.0733-.4355l-.3623.29a.654.654,0,0,0-.1211.457v.1436l.0274.1943A1.5123,1.5123,0,0,0,302.2691,266.8526Zm.48,1.3252-.3125.1689.1474-.0224Zm.3886-1.9991a.3191.3191,0,0,0,.168-.291.6645.6645,0,0,0-.3145-.5039.537.537,0,0,0-.4072.5772,2.4921,2.4921,0,0,0,.0342.3515,2.619,2.619,0,0,1,.0352.3243Zm.3575-2.3369-.1192-.0244a.46.46,0,0,0-.4082.2178q-.315.4571-.3379.4834l.0479.6484q.8438-.7.8437-1.2051l-.0127-.0732Zm-.167,2.6241-.5059.4824.2178.7236q.0483-.0468.5058-.65Zm.1933,1.18a1.832,1.832,0,0,0-.4355.5811A1.356,1.356,0,0,0,303.521,267.6455Zm.2393-2.5019a1.2471,1.2471,0,0,0,.0488-.2676.2779.2779,0,0,0-.168-.2871l-.3867.5293.3408.4336.0811-.1572Zm0,2.7432a3.8854,3.8854,0,0,1-.4551.6054Q303.7608,268.1538,303.76,267.8868Zm-.2149-1.6827a1.24,1.24,0,0,1,.29.6006l.0215-.0244c.1923-.081.292-.1924.292-.3359a1.1849,1.1849,0,0,0-.1221-.3985,3.093,3.093,0,0,1-.1446-.375Zm.794-2.291-.1446-.1445-.3857-.24Zm.0967.8438.0244-.12a.5486.5486,0,0,0-.1924-.3614l-.4326-.3379a1.1952,1.1952,0,0,0,.5283.9161Zm.0976,2.4336-.1455-.3594a3.2937,3.2937,0,0,0-.459.3115l.12.457Zm-.2656.65a.852.852,0,0,0-.2412.457,7.3947,7.3947,0,0,0,.6738-.7471Zm.2656-2.2159a1.5649,1.5649,0,0,0-.4111-.5068v.0732l.0371.2168.084.2891.0957.2529.0488.1319Zm.3125,2.2618-.7236.749a.9926.9926,0,0,0,.8916-.4365Zm.2656-2.2618a2.4064,2.4064,0,0,0-.3867-.7949l-.0478.3838C304.8208,265.4727,304.9663,265.6084,305.1118,265.625Zm0,.795-.122-.2305-.1924-.3018a2.4837,2.4837,0,0,0-.12.6055.4927.4927,0,0,0,.12.3594Zm.1192,1.4941c.16-.0645.2412-.1543.2412-.2686a.7427.7427,0,0,0-.168-.3222.6885.6885,0,0,1-.17-.375.3446.3446,0,0,0-.1924.291.81.81,0,0,0,.1319.374A2.2189,2.2189,0,0,1,305.231,267.9141Zm-.168.7217a.8311.8311,0,0,0,.6367-.3115,1.55,1.55,0,0,0,.3506-.8213Zm.36-2.8672-.084.1191-.085.0977.0713.0967.0625-.1211.06-.1436Zm.4345,1.4707a.3487.3487,0,0,0,.1924-.291.85.85,0,0,0-.1924-.3848l-.2177-.29-.2168.3633a2.1854,2.1854,0,0,0,.3134.7216Zm1.0606,14.14a1.5021,1.5021,0,0,0-1.086.3955,1.2945,1.2945,0,0,0-.4091.9522.9.9,0,0,0,.1679.543,1.4411,1.4411,0,0,0,.41.374,2.0769,2.0769,0,0,0,.5068.2158,1.8989,1.8989,0,0,0,.4805.0733Zm-.917-10.3847a.1911.1911,0,0,0-.2178-.2139c-.1279,0-.1924.08-.1924.2393,0,.1132.0645.17.1924.17l.1445-.0606Zm.748,6.1435h-.22a1.4478,1.4478,0,0,0-.6123.3858,1.1164,1.1164,0,0,0-.3262.8427,1.5583,1.5583,0,0,0,.0381.3516l.166.3242a2.3557,2.3557,0,0,0,.3877.3731c.168.1357.3975.3174.6866.541Zm-.2412-8.8642.0479-.2891v-.36c0-.3213-.0264-.7227-.0752-1.2041l-.2383.1679.0469.0235a3.0338,3.0338,0,0,1,.0976.7724,1.5072,1.5072,0,0,1-.3857,1.1084h.0488A.7062.7062,0,0,0,306.5083,268.2735Zm1.3965-2.5293a1.0506,1.0506,0,0,1-.5527.1435,1.4567,1.4567,0,0,1-.6514-.165l.0977.335q.6019.1215.5752.121a.81.81,0,0,0,.4228-.1562Zm1.1543,17.4668a1.0146,1.0146,0,0,0,.1221-.46,1.3931,1.3931,0,0,0-.3731-.95,1.4144,1.4144,0,0,0-1.12-.4219l-.0469,2.5752A2.02,2.02,0,0,0,309.0591,283.211Zm-.1191-4.41a1.8505,1.8505,0,0,0,.0722-.4834,1.0378,1.0378,0,0,0-.3838-.8769,1.2662,1.2662,0,0,0-.7724-.3028l-.1436,2.8184A4.0243,4.0243,0,0,0,308.94,278.8008Zm-.6494-10.914-.0235-.3116V267.31a2.3122,2.3122,0,0,1,.0713-.6728l-.17-.1436a6.6908,6.6908,0,0,0-.1192,1.1309v.29l.0362.2773.1435.2139a.6314.6314,0,0,0,.3242.1094Zm.8437-.9141.0469-.2168a.8366.8366,0,0,0-.169-.4824l-.2158.2549a2.5911,2.5911,0,0,0-.2432.3974l.34.5059Zm-.5811.5781c.1934.7227.5166,1.0928.9659,1.1084Zm.5323,3.3486-.2158-.1191-.1456.2139c0,.13.0547.1953.169.1953C309.021,271.19,309.0855,271.0918,309.0855,270.8994Zm.3847-3.9267a.9234.9234,0,0,1-.1562.4111,1.0234,1.0234,0,0,0-.1572.335c0,.1142.08.1777.2422.1953a2.3369,2.3369,0,0,0,.1445-.2686.8954.8954,0,0,0,.1181-.3574A.36.36,0,0,0,309.47,266.9727Zm-.1455-.8906-.0361-.1084-.0811-.1807v.0479l.1172.2656Zm.5059.8437a.3329.3329,0,0,0,.1689-.3144,1.04,1.04,0,0,0-.0966-.3594,1.1044,1.1044,0,0,1-.0938-.3643l-.3144.5323Zm.0723-1.542.0732-.1435a.7724.7724,0,0,0-.0352-.2774l-.038-.1093a1.1427,1.1427,0,0,0-.3838.6494l.0478.1679Zm-.167,2.6006-.0743.2149a.3839.3839,0,0,0,.2168.3281.9013.9013,0,0,0,.4844.1318h.1426Zm.8437.3135a.6184.6184,0,0,0-.2168-.3731c-.1142-.0869-.2588-.2138-.4346-.374A1.6651,1.6651,0,0,0,310.58,268.2979Zm.0947-1.1338-.1816-.1289-.252-.2041-.1435.4082.2041.1553.2783.2773Zm.1455-3.2022-.121.0967-.2413.1807-.2275.2275-.1084.1944.1191.2881A2.6791,2.6791,0,0,0,310.82,263.9619Zm-.2656,1.3-.0488-.0948-.2393.168a.4681.4681,0,0,0-.0976.3359l.0127.1953.0361.2159Zm.5069.9169-.3389-.41a3.867,3.867,0,0,0-.1563.4209c-.04.1377-.0761.2695-.1084.3984a2.9855,2.9855,0,0,0,.3623.2168Zm.3359-1.0117c-.1123-.1308-.2559-.3213-.4336-.5781l-.1211.2647a1.8478,1.8478,0,0,0,.1934.6982Zm-.5547,2.8174c.0166.16.17.34.459.53Zm.9649-.9629-.5059-.5283-.0947.1436-.1221.3115.0732.2051.168.2539.1572.206C311.522,267.668,311.63,267.4727,311.8072,267.0215Zm-.2891,1.0606a.9532.9532,0,0,1-.4336-.4366,1.9424,1.9424,0,0,0,.4336.5811Zm.5293-3.47c-.0967-.1455-.2051-.3086-.3233-.4941a.53.53,0,0,0-.4482-.2764l-.0937.0469a1.8977,1.8977,0,0,0-.0723.3369c.1279.1778.2568.3633.3848.5557a1.2946,1.2946,0,0,0,.456.4326v-.0957l.0264-.2529Zm-.3838.7959-.3877.458a1.0879,1.0879,0,0,0,.29.4209c.1446.1358.2735.26.3848.3741a.5537.5537,0,0,0,.1084-.4229,2.408,2.408,0,0,1,.0137-.4453Zm1.2275-.5546a5.1366,5.1366,0,0,0-.3125-.6524,1.993,1.993,0,0,0-.3388-.456.56.56,0,0,0-.3838-.1924,1.3923,1.3923,0,0,0-.2656.0478l.2656.1446A2.1029,2.1029,0,0,0,312.8911,264.8536Zm-.9892,3.3457a.34.34,0,0,0,.3164.22Zm.6279,0a1.6412,1.6412,0,0,0,.627.22q-.6051-.1216-1.1309-1.085c-.0674.32-.0752.499-.0254.5313l.2178.1435Zm.6983-1.9a3.737,3.737,0,0,1-.3125-.628c-.0645-.1757-.1221-.3193-.169-.4306l-.168-.2422a.48.48,0,0,0-.289-.0733l-.0244.2666a.7968.7968,0,0,0,.3261.6143A7.5285,7.5285,0,0,0,313.2281,266.2989Zm-.337.8652v-.6006a1.421,1.421,0,0,0-.5058-.457l-.0235.8193Zm0,.4111-.5058-.2412a5.0721,5.0721,0,0,0,.3857.4356,1.708,1.708,0,0,0,.4326.3125Zm1.5176-3.6377a6.4784,6.4784,0,0,0-1.5664-.5283.6787.6787,0,0,0,.3965.5156,1.3977,1.3977,0,0,0,.6406.1827A.7762.7762,0,0,0,314.4087,263.9375Zm.1465,1.9034a7.82,7.82,0,0,0-.5674-.9278,1.88,1.88,0,0,0-.4111-.4219l-.3486-.1679a1.1731,1.1731,0,0,1-.36-.1914l.6016,1.082Zm-.2432.82.0245-.168a.6906.6906,0,0,0-.4092-.6162c-.2735-.1514-.5391-.3086-.795-.4688a2.7831,2.7831,0,0,0,1.18,1.3965Zm0,1.4677a3.2812,3.2812,0,0,1-1.0839-.9648l-.0489.17.0733.1582.205.2774.3135.2519a.7974.7974,0,0,0,.42.1074Zm.7227-.457-.2891-.1914c-.1123-.0811-.2314-.1777-.3613-.29l-.2051-.0733-.2744-.1689-.2793-.168-.2529-.0732.6035.749a2.0308,2.0308,0,0,0,.8184.2627Zm-.2647-3.5889a2.0967,2.0967,0,0,1-.6738.3838l.2647.1455a2.2714,2.2714,0,0,0,.747.1446,1.101,1.101,0,0,0,.8438-.3135Zm1.1817,1.9268q-.53-1.0122-1.3037-1.0117l-.0811.0117-.0869.0107.4346.7725a7.8449,7.8449,0,0,0,1.0117.2168Zm.3135,1.4463a2.4,2.4,0,0,1-1.6172-.8447v.3613a1.8132,1.8132,0,0,0,1.1826.5781A.8981.8981,0,0,0,316.2652,267.4561Zm.4326-.6514c-.18-.0635-.3906-.1406-.6387-.2285-.2471-.09-.55-.1953-.9033-.3242A2.7659,2.7659,0,0,0,316.6978,266.8047Zm-1.3,0a2.2247,2.2247,0,0,0,1.0595.3379h.0948c-.1446-.0342-.3135-.0771-.5059-.1338C315.854,266.9541,315.6372,266.8868,315.398,266.8047Zm1.709-2.1191c-.08-.0166-.19-.042-.3243-.0733-.1377-.0312-.2939-.0644-.4716-.0937a1.4348,1.4348,0,0,1-.7217.5019,2.0805,2.0805,0,0,0,.8183.1709.7675.7675,0,0,0,.5176-.1552A.4643.4643,0,0,0,317.107,264.6856Zm1.4921,1.3242c-.2714-.0645-.623-.1328-1.0468-.2041q-.6372-.11-1.4815-.2773l.2158.3125a4.2191,4.2191,0,0,0,1.4932.4111A1.3714,1.3714,0,0,0,318.5991,266.01Zm-1.539.4834a1.96,1.96,0,0,1-.3623-.1348,1.0216,1.0216,0,0,0-.3633-.1064l-.1416.0215a3.78,3.78,0,0,0,1.3467.3144h.1943Zm2.1181-1.0146c-.16.0322-.31.0585-.4453.0732a3.1054,3.1054,0,0,1-.3974.0244,1.7877,1.7877,0,0,1-.6963-.1328,1.4415,1.4415,0,0,0-.5088-.1328l-.1455.0976c.0976.0147.2305.0391.3984.07s.3467.0625.5323.0859c.1816.0254.3564.0527.5156.0849a2.8953,2.8953,0,0,1,.3847.0948Zm.94-.6729a2.0344,2.0344,0,0,1-.458.0479h-.5059q-.36,0-.7822-.0235c-.2822-.0156-.582-.04-.9053-.0732l-.0947.2636a2.9824,2.9824,0,0,0,1.084.1934,4.8889,4.8889,0,0,0,.6748-.0459,6.42,6.42,0,0,0,.7227-.1475Z"/><rect class="cls-1" x="159.0874" y="135.8203" width="56" height="126.667"/><rect class="cls-1" x="123.7539" y="171.1543" width="126.6675" height="56"/><polygon class="cls-7" points="38.271 293.277 36.771 294.68 37.546 295.509 39.047 294.106 41.528 296.76 39.964 298.222 40.739 299.051 42.302 297.588 43.959 299.359 37.641 305.266 29.764 296.841 36.081 290.934 38.271 293.277"/><rect class="cls-8" x="29.5452" y="286.226" width="2.0926" height="1.1354" transform="translate(-187.643 98.2196) rotate(-43.0815)"/><rect class="cls-8" x="26.6895" y="283.0026" width="2.093" height="1.1347" transform="translate(-186.2412 95.4345) rotate(-43.0907)"/><polygon class="cls-9" points="30.692 291.936 34.056 288.794 35.257 290.076 28.936 295.981 27.735 294.699 29.85 292.723 20.846 283.09 22.366 281.668 31.372 291.301 30.692 291.936"/><path class="cls-10" d="M15.1406,285.9327,37.4,309.7383l4.6866-4.3789,4.5795,4.8975,4.5733,1.5508L43.752,303.8l4.5937-4.2929L26.0869,275.6993l-4.9629,4.64-.0126-.0127L19.59,281.7471l.0132.0147Zm2.5674.0869,3.1353-2.9317.0024.002,1.52-1.4219-.0019-.0019,3.6367-3.3995,19.7778,21.1543-8.2934,7.751Z"/><polygon class="cls-11" points="20.645 271.125 23.457 274.132 19.113 278.189 21.111 280.326 19.59 281.747 17.592 279.61 14.019 282.949 11.206 279.942 20.645 271.125"/><path class="cls-12" d="M359.75,305.545s-5.5556.9912-5.8388,1.0625c-.4571.1142-.62.3408-.4307.665l.0342.06a14.0705,14.0705,0,0,1,1.3183,7.9922c-.0214.1845-.1.5566.3819.4726s6.1943-1.1269,6.1943-1.1269a4.6373,4.6373,0,0,0-1.6592-9.125Z"/><path class="cls-5" d="M340.5982,313.7412a4.641,4.641,0,0,1,3.7324-5.3906s5.6035-.9551,6.7578-1.2285c1.1553-.2764,1.3145.08,1.6563.66a13.316,13.316,0,0,1,1.2041,7.43c-.0733.5694-.1973.7989-1.0938,1.0127-.8975.2159-6.8652,1.2491-6.8652,1.2491a4.6428,4.6428,0,0,1-5.3916-3.7325Z"/><path class="cls-12" d="M330.3218,295.5391s-5.5557.9912-5.8389,1.0625c-.4589.1143-.62.3408-.4316.667l.0342.0576a14.0849,14.0849,0,0,1,1.3213,7.9922c-.0245.1846-.1006.5566.3808.4736s6.1934-1.1289,6.1934-1.1289a4.6368,4.6368,0,0,0-1.6592-9.124Z"/><path class="cls-5" d="M311.1714,303.7354a4.64,4.64,0,0,1,3.7334-5.39s5.6006-.957,6.7568-1.2314,1.3145.081,1.6553.6611a13.3385,13.3385,0,0,1,1.2061,7.4317c-.0742.5683-.1973.8-1.0948,1.0127s-6.8642,1.248-6.8642,1.248a4.6415,4.6415,0,0,1-5.3926-3.7324Z"/><path class="cls-12" d="M327.3335,308.5772s4.5264-3.3653,4.7725-3.5235c.3974-.2558.6719-.2216.78.1416l.0195.0645a14.0783,14.0783,0,0,0,4.918,6.4385c.1494.1084.4746.3086.082.6006-.3906.292-5.0635,3.74-5.0635,3.74a4.6375,4.6375,0,0,1-5.5088-7.4619Z"/><path class="cls-5" d="M346.4224,300.2432a4.643,4.643,0,0,0-6.4844-.9736s-4.5332,3.4277-5.5254,4.0791c-.9912.6533-.8428,1.0127-.6523,1.6591a13.306,13.306,0,0,0,4.5869,5.9678c.4648.336.7178.4063,1.4873-.1015s5.6133-4.1446,5.6133-4.1446a4.6443,4.6443,0,0,0,.9746-6.4863Z"/><path class="cls-12" d="M347.18,289.4756s4.9316,2.7432,5.1748,2.9024c.3975.2578.4785.5224.1924.7695l-.05.0449a14.0944,14.0944,0,0,0-3.8486,7.13c-.0372.1816-.086.56-.5127.3223-.4268-.2354-5.4913-3.0782-5.4913-3.0782a4.6376,4.6376,0,0,1,4.5352-8.0908Z"/><path class="cls-5" d="M362.6265,303.4522a4.64,4.64,0,0,0-1.7774-6.3115s-4.9892-2.7237-5.9912-3.3594-1.2695-.3506-1.78.0879a13.3016,13.3016,0,0,0-3.5557,6.6347c-.1143.5616-.0723.82.7061,1.3125.7792.4942,6.0859,3.4131,6.0859,3.4131a4.6422,4.6422,0,0,0,6.3125-1.7773Z"/><path class="cls-12" d="M305.3823,306.6368s5.6358.2939,5.9249.33c.4687.0576.6572.26.5107.6075l-.0264.0615a14.07,14.07,0,0,0-.3213,8.0967c.045.1777.167.541-.3193.5156-.4883-.0254-6.2852-.3526-6.2852-.3526a4.6366,4.6366,0,1,1,.5166-9.2587Z"/><path class="cls-5" d="M325.398,312.3985a4.6409,4.6409,0,0,0-4.37-4.8877s-5.6778-.2539-6.8575-.3838-1.2959.2432-1.5595.8613a13.2948,13.2948,0,0,0-.2774,7.5205c.1426.5567.294.7725,1.211.8721.917.1016,6.9658.39,6.9658.39a4.6412,4.6412,0,0,0,4.8877-4.372Z"/><path class="cls-13" d="M81.47,214.1123a5.6665,5.6665,0,0,0-.0958,8.0118l2.3194,2.375,8.1074-7.9151-2.32-2.3769A5.6684,5.6684,0,0,0,81.47,214.1123Z"/><path class="cls-13" d="M101.1289,226.14l-8.1079,7.9131,2.4922,2.5527a5.665,5.665,0,0,0,8.1069-7.915Z"/><path class="cls-14" d="M95.9522,214.1123,81.47,228.25a5.6662,5.6662,0,0,0,7.916,8.1094l14.4819-14.14a5.6654,5.6654,0,0,0-7.9155-8.1075Zm.7632,2.5254a.7168.7168,0,1,1-.7173.7168A.7172.7172,0,0,1,96.7154,216.6377ZM82.8272,235.2266a.7174.7174,0,1,1,.7744-.6543A.7185.7185,0,0,1,82.8272,235.2266Zm.9067-2.2363a.7169.7169,0,1,1,.7759-.6534A.717.717,0,0,1,83.7339,232.99Zm.4815-2.54a.7163.7163,0,1,1,.7739-.6533A.7165.7165,0,0,1,84.2154,230.45ZM85.54,235.003a.7173.7173,0,1,1,.7739-.6543A.718.718,0,0,1,85.54,235.003Zm.48-2.5411a.7159.7159,0,1,1,.7739-.6533A.7146.7146,0,0,1,86.02,232.4619Zm1.7426,2.0665a.7174.7174,0,1,1,.7744-.6553A.72.72,0,0,1,87.7622,234.5284ZM96.668,226.42l-2.8975,2.6787a3.4866,3.4866,0,0,1-4.9267-.1934l-.105-.1133a3.5921,3.5921,0,0,1,.1338-4.9892l2.8432-2.7676a3.3734,3.3734,0,0,1,4.8594.1357l.291.3164A3.4969,3.4969,0,0,1,96.668,226.42Zm1.9014-6.3819a.7173.7173,0,1,1,.7177-.7178A.7185.7185,0,0,1,98.5694,220.0381Zm0-2.95a.7173.7173,0,1,1,.7177.7178A.7177.7177,0,0,1,98.5694,217.0879Zm1.9106,4.86a.7173.7173,0,1,1,.7173-.7168A.7176.7176,0,0,1,100.48,221.9483Zm.66-2.1768a.7163.7163,0,1,1,.7177-.7158A.7179.7179,0,0,1,101.14,219.7715Zm.4506-2.6836a.7173.7173,0,1,1,.7168-.7168A.7177.7177,0,0,1,101.5908,217.0879Z"/><path class="cls-15" d="M104.0908,122.2686l-.9628,1.4092a2.2621,2.2621,0,1,1-3.7164-2.5415l.962-1.4077Z"/><path class="cls-15" d="M103.9317,117.961,117.772,97.72a.31.31,0,0,1,.5112.35l-13.8408,20.2413a.3079.3079,0,0,1-.4307.0815A.3124.3124,0,0,1,103.9317,117.961Z"/><path class="cls-5" d="M119.5147,84.3116l-13.14,19.2168a6.2022,6.2022,0,0,0,.15,7.205l-5.6465,8.2578,3.7144,2.5391,5.6455-8.2568a6.2052,6.2052,0,0,0,6.77-2.4756L130.15,91.5835a6.2111,6.2111,0,0,0-1.6225-8.6284l-.3848-.2632A6.2075,6.2075,0,0,0,119.5147,84.3116Zm2.873-.044,2.354,1.6089.3208-.4683a1.2412,1.2412,0,0,1,2.0484,1.4024l-.3208.4678,1.9155,1.3115a.4658.4658,0,1,1-.5264.7685l-1.915-1.31-2.5093,3.6728,1.917,1.3091a.4669.4669,0,0,1-.5283.77l-1.9155-1.311-2.5108,3.6728,1.9155,1.31a.4659.4659,0,0,1-.5249.77l-1.917-1.31-2.5107,3.6728,1.9146,1.3116a.4653.4653,0,0,1-.524.769l-1.9165-1.311-2.51,3.67,1.916,1.3115a.4658.4658,0,1,1-.5259.769l-1.915-1.311-8.9068,13.0249a1.2419,1.2419,0,0,1-2.05-1.4018l8.9077-13.024-2.354-1.61a.4652.4652,0,0,1,.5259-.7676l2.354,1.61,2.5117-3.6724-2.354-1.61a.4656.4656,0,0,1,.5259-.7686l2.3535,1.6084,2.5117-3.6724L115.79,93.9224a.4665.4665,0,0,1,.5254-.771l2.3559,1.6084,2.51-3.6733-2.355-1.607a.4655.4655,0,1,1,.5254-.7685l2.353,1.6084,2.5117-3.6724-2.3549-1.6089a.4665.4665,0,0,1,.5263-.77Z"/><path class="cls-5" d="M354.3335,202.9414a7.5976,7.5976,0,0,0-2.0234,9.8506l12.0478-9.0527A7.5942,7.5942,0,0,0,354.3335,202.9414Z"/><path class="cls-5" d="M363.4634,215.0909a7.5977,7.5977,0,0,0,2.0234-9.8506L353.439,214.294A7.5962,7.5962,0,0,0,363.4634,215.0909Z"/><path class="cls-5" d="M316.4263,224.377a5.177,5.177,0,0,0,6.5469,2.0332l-5.334-8.78A5.1783,5.1783,0,0,0,316.4263,224.377Z"/><path class="cls-5" d="M325.2818,218.9981a5.18,5.18,0,0,0-6.5469-2.0332l5.332,8.7812A5.1787,5.1787,0,0,0,325.2818,218.9981Z"/><path class="cls-5" d="M330.7134,239.5948a3.7,3.7,0,0,0,4.68,1.4531l-3.8125-6.2754A3.7026,3.7026,0,0,0,330.7134,239.5948Z"/><path class="cls-5" d="M337.0425,235.751a3.7018,3.7018,0,0,0-4.6787-1.4531l3.81,6.2754A3.7006,3.7006,0,0,0,337.0425,235.751Z"/><path class="cls-5" d="M337.815,202.7227a2.9336,2.9336,0,0,1-4.0664-.8291l-.7188-1.0869a2.9347,2.9347,0,0,1,.83-4.0664l11.5322-7.625a2.9326,2.9326,0,0,1,4.0654.8281l.7188,1.0879a2.9343,2.9343,0,0,1-.8281,4.0664Z"/><path class="cls-16" d="M350.1763,191.0313l-.7188-1.0879a2.9326,2.9326,0,0,0-4.0654-.8281l-5.7666,3.8125,3.9561,5.9824,5.7666-3.8125A2.9343,2.9343,0,0,0,350.1763,191.0313Z"/><path class="cls-5" d="M358.4859,237.0625a2.9347,2.9347,0,0,1,1.15,3.9883l-.6309,1.1406a2.932,2.932,0,0,1-3.9863,1.1485l-12.1016-6.6856a2.9332,2.9332,0,0,1-1.1494-3.9873l.63-1.14a2.934,2.934,0,0,1,3.9873-1.15Z"/><path class="cls-17" d="M342.398,231.5274l-.63,1.14a2.9332,2.9332,0,0,0,1.1494,3.9873l6.0508,3.3438,3.4678-6.2774-6.0508-3.3437A2.934,2.934,0,0,0,342.398,231.5274Z"/><path class="cls-5" d="M332.5507,246.2656H346.375A2.9349,2.9349,0,0,1,349.31,249.2v1.3016a2.9358,2.9358,0,0,1-2.9358,2.9358H332.5505a2.9354,2.9354,0,0,1-2.9354-2.9354v-1.3011A2.9356,2.9356,0,0,1,332.5507,246.2656Z" transform="translate(-81.8915 238.832) rotate(-34.8557)"/><path class="cls-18" d="M331.0083,254.9434l.7442,1.0684a2.9347,2.9347,0,0,0,4.0849.7324l5.6739-3.9492-4.0967-5.8868-5.6739,3.9493A2.9356,2.9356,0,0,0,331.0083,254.9434Z"/><path class="cls-5" d="M342.9722,225.6289a2.9365,2.9365,0,0,1-3.6865,1.9063l-1.2412-.3945a2.9378,2.9378,0,0,1-1.9073-3.6875l4.1914-13.1739a2.9352,2.9352,0,0,1,3.6866-1.9072l1.2412.3955a2.9333,2.9333,0,0,1,1.9072,3.6856Z"/><path class="cls-19" d="M345.2564,208.7676l-1.2412-.3955a2.9352,2.9352,0,0,0-3.6866,1.9072l-2.0957,6.586,6.835,2.1758,2.0957-6.5879A2.9333,2.9333,0,0,0,345.2564,208.7676Z"/><path class="cls-16" d="M365.4917,182.4351a2.5961,2.5961,0,0,1-2.6,2.5879l-50.3506-.1079a2.5932,2.5932,0,0,1-2.5869-2.5987l.16-74.6294a2.5938,2.5938,0,0,1,2.6-2.5878l50.3515.1084a2.5906,2.5906,0,0,1,2.584,2.5986Z"/><rect class="cls-5" x="304.8746" y="118.8426" width="65.8749" height="43.5254" transform="translate(196.4828 478.1152) rotate(-89.8772)"/><path class="cls-20" d="M350.23,102.7144l-.54-.0015a3.4512,3.4512,0,0,0-3.4053-3.0107l-17.09-.0376a3.4537,3.4537,0,0,0-3.4179,2.9966h-.2188a2.5925,2.5925,0,0,0-2.5986,2.5869l-.0039,1.7534a2.5929,2.5929,0,0,0,2.5879,2.5981l24.6719.0533a2.5934,2.5934,0,0,0,2.6-2.5869l.0048-1.7535A2.5948,2.5948,0,0,0,350.23,102.7144Zm-21.0391-1.32,17.0909.0361a1.7271,1.7271,0,0,1,1.6572,1.2788l-20.4111-.0434A1.7264,1.7264,0,0,1,329.1909,101.3941Z"/><path class="cls-20" d="M326.3784,117.6768a.6094.6094,0,1,1-.6084-.6108A.61.61,0,0,1,326.3784,117.6768Z"/><path class="cls-20" d="M328.1011,117.6812a.6079.6079,0,1,1-.6045-.6109A.6058.6058,0,0,1,328.1011,117.6812Z"/><path class="cls-20" d="M329.8286,117.6841a.6089.6089,0,1,1-.6084-.61A.6105.6105,0,0,1,329.8286,117.6841Z"/><path class="cls-20" d="M331.5542,117.6875a.6089.6089,0,1,1-.6084-.6093A.6094.6094,0,0,1,331.5542,117.6875Z"/><path class="cls-20" d="M333.2788,117.6919a.6089.6089,0,1,1-.6074-.61A.6084.6084,0,0,1,333.2788,117.6919Z"/><path class="cls-20" d="M335.0054,117.6958a.6089.6089,0,1,1-.6094-.61A.6115.6115,0,0,1,335.0054,117.6958Z"/><path class="cls-20" d="M336.729,117.6993a.6089.6089,0,1,1-.6054-.6094A.6077.6077,0,0,1,336.729,117.6993Z"/><path class="cls-20" d="M338.4556,117.7027a.6089.6089,0,1,1-.6094-.61A.61.61,0,0,1,338.4556,117.7027Z"/><path class="cls-20" d="M340.18,117.7061a.6089.6089,0,1,1-.6074-.6089A.6089.6089,0,0,1,340.18,117.7061Z"/><path class="cls-20" d="M341.9058,117.711a.6094.6094,0,1,1-.6074-.6109A.6079.6079,0,0,1,341.9058,117.711Z"/><path class="cls-20" d="M343.63,117.7144a.6084.6084,0,1,1-.6074-.61A.6091.6091,0,0,1,343.63,117.7144Z"/><path class="cls-20" d="M345.357,117.7178a.61.61,0,1,1-.6094-.61A.61.61,0,0,1,345.357,117.7178Z"/><path class="cls-20" d="M347.0816,117.7217a.6089.6089,0,1,1-.6075-.61A.6084.6084,0,0,1,347.0816,117.7217Z"/><path class="cls-20" d="M348.8052,117.7251a.6084.6084,0,1,1-.6055-.61A.6066.6066,0,0,1,348.8052,117.7251Z"/><path class="cls-20" d="M350.5327,117.73a.6094.6094,0,1,1-.6084-.6108A.61.61,0,0,1,350.5327,117.73Z"/><path class="cls-20" d="M352.2564,117.7325a.6089.6089,0,1,1-.6065-.61A.6072.6072,0,0,1,352.2564,117.7325Z"/><path class="cls-20" d="M353.982,117.7369a.6084.6084,0,1,1-.6065-.61A.6079.6079,0,0,1,353.982,117.7369Z"/><path class="cls-20" d="M324.0513,114.0645q-.8232,1.8032-1.6465,3.6064-.3384-.8928-.6767-1.7851c-.1016-.2676-.8428-.6436-.667-.1851l1.0517,2.7788c.0664.17.5264.6675.68.3355q.9726-2.1328,1.9463-4.2652C324.8628,114.2793,324.2027,113.7373,324.0513,114.0645Z"/><path class="cls-20" d="M326.3628,124.6739a.6089.6089,0,1,1-.6084-.61A.6094.6094,0,0,1,326.3628,124.6739Z"/><path class="cls-20" d="M328.0884,124.6773a.6084.6084,0,1,1-.6084-.61A.6085.6085,0,0,1,328.0884,124.6773Z"/><path class="cls-20" d="M329.814,124.6812a.6094.6094,0,1,1-.6084-.61A.61.61,0,0,1,329.814,124.6812Z"/><path class="cls-20" d="M331.54,124.6851a.6089.6089,0,1,1-.6094-.61A.6114.6114,0,0,1,331.54,124.6851Z"/><path class="cls-20" d="M333.2632,124.689a.6089.6089,0,1,1-.6055-.6108A.6076.6076,0,0,1,333.2632,124.689Z"/><path class="cls-20" d="M334.99,124.6924a.6089.6089,0,1,1-.6094-.61A.611.611,0,0,1,334.99,124.6924Z"/><path class="cls-20" d="M336.7154,124.6963a.6094.6094,0,1,1-.6084-.61A.6094.6094,0,0,1,336.7154,124.6963Z"/><path class="cls-20" d="M338.44,124.7a.6089.6089,0,1,1-.6065-.6093A.61.61,0,0,1,338.44,124.7Z"/><path class="cls-20" d="M340.1656,124.7036a.6089.6089,0,1,1-.6084-.61A.6093.6093,0,0,1,340.1656,124.7036Z"/><path class="cls-20" d="M341.8911,124.7076a.61.61,0,1,1-.6084-.61A.6107.6107,0,0,1,341.8911,124.7076Z"/><path class="cls-20" d="M343.6157,124.711a.6089.6089,0,1,1-.6074-.61A.6091.6091,0,0,1,343.6157,124.711Z"/><path class="cls-20" d="M345.3394,124.7149a.6084.6084,0,1,1-.6055-.61A.6078.6078,0,0,1,345.3394,124.7149Z"/><path class="cls-20" d="M347.0669,124.7178a.6094.6094,0,1,1-.6084-.6094A.6088.6088,0,0,1,347.0669,124.7178Z"/><path class="cls-20" d="M348.7925,124.7227a.61.61,0,1,1-.6084-.61A.61.61,0,0,1,348.7925,124.7227Z"/><path class="cls-20" d="M350.5161,124.7256a.6084.6084,0,1,1-.6064-.61A.6081.6081,0,0,1,350.5161,124.7256Z"/><path class="cls-20" d="M352.2437,124.73a.6089.6089,0,1,1-.61-.61A.6123.6123,0,0,1,352.2437,124.73Z"/><path class="cls-20" d="M353.9673,124.7329a.6094.6094,0,1,1-.6064-.61A.6071.6071,0,0,1,353.9673,124.7329Z"/><path class="cls-20" d="M324.0357,121.0616q-.8234,1.8039-1.6465,3.6054-.3384-.8921-.6777-1.7846c-.1006-.2671-.8389-.6431-.667-.1841l1.0546,2.7788c.0645.17.5254.667.6768.334q.9756-2.1314,1.9492-4.2647C324.8472,121.2769,324.1851,120.7339,324.0357,121.0616Z"/><path class="cls-20" d="M326.3482,131.6714a.6094.6094,0,1,1-.6084-.6108A.61.61,0,0,1,326.3482,131.6714Z"/><path class="cls-20" d="M328.0728,131.6744a.6084.6084,0,1,1-.6065-.61A.6089.6089,0,0,1,328.0728,131.6744Z"/><path class="cls-20" d="M329.7974,131.6787a.6084.6084,0,1,1-.6055-.61A.6082.6082,0,0,1,329.7974,131.6787Z"/><path class="cls-20" d="M331.5249,131.6822a.6094.6094,0,1,1-.61-.6109A.61.61,0,0,1,331.5249,131.6822Z"/><path class="cls-20" d="M333.2486,131.6861a.6089.6089,0,1,1-.6065-.6109A.6083.6083,0,0,1,333.2486,131.6861Z"/><path class="cls-20" d="M334.9741,131.69a.6084.6084,0,1,1-.6064-.6109A.6091.6091,0,0,1,334.9741,131.69Z"/><path class="cls-20" d="M336.7,131.6934a.6089.6089,0,1,1-.6084-.61A.61.61,0,0,1,336.7,131.6934Z"/><path class="cls-20" d="M338.4253,131.6968a.61.61,0,1,1-.6064-.61A.6068.6068,0,0,1,338.4253,131.6968Z"/><path class="cls-20" d="M340.15,131.7012a.6084.6084,0,1,1-.6074-.6108A.6094.6094,0,0,1,340.15,131.7012Z"/><path class="cls-20" d="M341.8745,131.7041a.6084.6084,0,1,1-.6054-.61A.6082.6082,0,0,1,341.8745,131.7041Z"/><path class="cls-20" d="M343.6011,131.708a.6094.6094,0,1,1-.6084-.61A.61.61,0,0,1,343.6011,131.708Z"/><path class="cls-20" d="M345.3247,131.7115a.6079.6079,0,1,1-.6064-.61A.6064.6064,0,0,1,345.3247,131.7115Z"/><path class="cls-20" d="M347.0513,131.7154a.6089.6089,0,1,1-.6074-.61A.61.61,0,0,1,347.0513,131.7154Z"/><path class="cls-20" d="M348.7779,131.7193a.6089.6089,0,1,1-.61-.6109A.6091.6091,0,0,1,348.7779,131.7193Z"/><path class="cls-20" d="M350.5015,131.7237a.6089.6089,0,1,1-.6065-.6109A.6078.6078,0,0,1,350.5015,131.7237Z"/><path class="cls-20" d="M352.2281,131.7266a.6094.6094,0,1,1-.6094-.6108A.6112.6112,0,0,1,352.2281,131.7266Z"/><path class="cls-20" d="M353.9527,131.73a.6089.6089,0,1,1-.6075-.6094A.61.61,0,0,1,353.9527,131.73Z"/><path class="cls-20" d="M324.021,128.0586q-.8232,1.8033-1.6465,3.6055-.34-.8913-.6777-1.7852c-.1006-.267-.8418-.643-.667-.1845l1.0537,2.7788c.0635.1709.5274.667.6778.3349q.9726-2.1327,1.9492-4.2646C324.8335,128.2735,324.17,127.731,324.021,128.0586Z"/><path class="cls-20" d="M326.3316,138.6685a.6084.6084,0,1,1-.6055-.6108A.6086.6086,0,0,1,326.3316,138.6685Z"/><path class="cls-20" d="M328.0591,138.6714a.6094.6094,0,1,1-.61-.6094A.6094.6094,0,0,1,328.0591,138.6714Z"/><path class="cls-20" d="M329.7818,138.6748a.6089.6089,0,1,1-.6055-.61A.6062.6062,0,0,1,329.7818,138.6748Z"/><path class="cls-20" d="M331.5083,138.6787a.6084.6084,0,1,1-.6064-.6108A.608.608,0,0,1,331.5083,138.6787Z"/><path class="cls-20" d="M333.2339,138.6836a.6089.6089,0,1,1-.6084-.6123A.6109.6109,0,0,1,333.2339,138.6836Z"/><path class="cls-20" d="M334.96,138.6866a.61.61,0,1,1-.6064-.61A.6077.6077,0,0,1,334.96,138.6866Z"/><path class="cls-20" d="M336.6841,138.69a.6084.6084,0,1,1-.6074-.6094A.609.609,0,0,1,336.6841,138.69Z"/><path class="cls-20" d="M338.41,138.6929a.6094.6094,0,1,1-.6074-.61A.6088.6088,0,0,1,338.41,138.6929Z"/><path class="cls-20" d="M340.1353,138.6978a.6094.6094,0,1,1-.6074-.61A.61.61,0,0,1,340.1353,138.6978Z"/><path class="cls-20" d="M341.8609,138.7017a.6089.6089,0,1,1-.6084-.6108A.6081.6081,0,0,1,341.8609,138.7017Z"/><path class="cls-20" d="M343.5855,138.7046a.6089.6089,0,1,1-.6074-.61A.6093.6093,0,0,1,343.5855,138.7046Z"/><path class="cls-20" d="M345.312,138.7076a.6089.6089,0,1,1-.6093-.6094A.61.61,0,0,1,345.312,138.7076Z"/><path class="cls-20" d="M347.0357,138.7124a.6089.6089,0,1,1-.6065-.61A.6079.6079,0,0,1,347.0357,138.7124Z"/><path class="cls-20" d="M348.7622,138.7163a.6089.6089,0,1,1-.6093-.61A.6115.6115,0,0,1,348.7622,138.7163Z"/><path class="cls-20" d="M350.4868,138.72a.6089.6089,0,1,1-.6064-.6109A.609.609,0,0,1,350.4868,138.72Z"/><path class="cls-20" d="M352.2115,138.7227a.6089.6089,0,1,1-.6075-.61A.6077.6077,0,0,1,352.2115,138.7227Z"/><path class="cls-20" d="M353.937,138.7271a.6084.6084,0,1,1-.6074-.6094A.61.61,0,0,1,353.937,138.7271Z"/><path class="cls-20" d="M324.0064,135.0547q-.8247,1.804-1.6475,3.6055-.3384-.8907-.6758-1.7842c-.1015-.2676-.8418-.6426-.6679-.1846l1.0527,2.7789c.0644.17.5264.6669.6777.3349q.9756-2.1329,1.9483-4.2651C324.8169,135.2705,324.1548,134.7281,324.0064,135.0547Z"/><path class="cls-20" d="M326.3159,145.6646a.6084.6084,0,1,1-.6054-.61A.6062.6062,0,0,1,326.3159,145.6646Z"/><path class="cls-20" d="M328.0425,145.67a.6084.6084,0,1,1-.6064-.61A.6081.6081,0,0,1,328.0425,145.67Z"/><path class="cls-20" d="M329.7681,145.6719a.6089.6089,0,1,1-.6084-.61A.6092.6092,0,0,1,329.7681,145.6719Z"/><path class="cls-20" d="M331.4937,145.6753a.6094.6094,0,1,1-.6084-.61A.6083.6083,0,0,1,331.4937,145.6753Z"/><path class="cls-20" d="M333.2193,145.6792a.6089.6089,0,1,1-.6084-.61A.61.61,0,0,1,333.2193,145.6792Z"/><path class="cls-20" d="M334.9439,145.6841a.6089.6089,0,1,1-.6065-.61A.6106.6106,0,0,1,334.9439,145.6841Z"/><path class="cls-20" d="M336.67,145.6866a.6094.6094,0,1,1-.6075-.61A.608.608,0,0,1,336.67,145.6866Z"/><path class="cls-20" d="M338.3931,145.6914a.6079.6079,0,1,1-.6065-.6113A.6053.6053,0,0,1,338.3931,145.6914Z"/><path class="cls-20" d="M340.12,145.6939a.6089.6089,0,1,1-.6075-.61A.6081.6081,0,0,1,340.12,145.6939Z"/><path class="cls-20" d="M341.8462,145.6988a.6089.6089,0,1,1-.6094-.61A.6115.6115,0,0,1,341.8462,145.6988Z"/><path class="cls-20" d="M343.57,145.7012a.6089.6089,0,1,1-.6064-.61A.6065.6065,0,0,1,343.57,145.7012Z"/><path class="cls-20" d="M345.2964,145.7056a.6089.6089,0,1,1-.6094-.61A.6112.6112,0,0,1,345.2964,145.7056Z"/><path class="cls-20" d="M347.021,145.708a.6089.6089,0,1,1-.6064-.61A.6076.6076,0,0,1,347.021,145.708Z"/><path class="cls-20" d="M348.7456,145.7129a.6089.6089,0,1,1-.6074-.61A.6076.6076,0,0,1,348.7456,145.7129Z"/><path class="cls-20" d="M350.4722,145.7168a.6089.6089,0,1,1-.6084-.61A.609.609,0,0,1,350.4722,145.7168Z"/><path class="cls-20" d="M352.1958,145.72a.6089.6089,0,1,1-.6045-.61A.6084.6084,0,0,1,352.1958,145.72Z"/><path class="cls-20" d="M353.9224,145.7242a.6084.6084,0,1,1-.6084-.6114A.61.61,0,0,1,353.9224,145.7242Z"/><path class="cls-20" d="M323.9907,142.0523q-.8247,1.8039-1.6464,3.605c-.2276-.5957-.4522-1.1885-.6768-1.7842-.1006-.2666-.8418-.6431-.666-.1841l1.0517,2.7783c.0645.17.5274.667.6788.3355q.9726-2.1321,1.9472-4.2661C324.8023,142.2676,324.1392,141.7251,323.9907,142.0523Z"/><path class="cls-20" d="M326.3023,152.6617a.6089.6089,0,1,1-.6075-.61A.6082.6082,0,0,1,326.3023,152.6617Z"/><path class="cls-20" d="M328.0279,152.6641a.6089.6089,0,1,1-.6084-.61A.6119.6119,0,0,1,328.0279,152.6641Z"/><path class="cls-20" d="M329.7534,152.669a.6089.6089,0,1,1-.6084-.61A.611.611,0,0,1,329.7534,152.669Z"/><path class="cls-20" d="M331.4781,152.6739a.6089.6089,0,1,1-.6055-.6114A.6071.6071,0,0,1,331.4781,152.6739Z"/><path class="cls-20" d="M333.2036,152.6763a.6089.6089,0,1,1-.6084-.61A.6088.6088,0,0,1,333.2036,152.6763Z"/><path class="cls-20" d="M334.9292,152.6787a.6089.6089,0,1,1-.6084-.6088A.608.608,0,0,1,334.9292,152.6787Z"/><path class="cls-20" d="M336.6538,152.6836a.6089.6089,0,1,1-.6074-.61A.6078.6078,0,0,1,336.6538,152.6836Z"/><path class="cls-20" d="M338.38,152.688a.6084.6084,0,1,1-.6094-.61A.6092.6092,0,0,1,338.38,152.688Z"/><path class="cls-20" d="M340.105,152.6905a.6094.6094,0,1,1-.6074-.61A.6083.6083,0,0,1,340.105,152.6905Z"/><path class="cls-20" d="M341.8306,152.6944a.6089.6089,0,1,1-.6084-.6114A.61.61,0,0,1,341.8306,152.6944Z"/><path class="cls-20" d="M343.5552,152.6993a.6089.6089,0,1,1-.6064-.61A.6085.6085,0,0,1,343.5552,152.6993Z"/><path class="cls-20" d="M345.2818,152.7027a.61.61,0,1,1-.6094-.61A.6109.6109,0,0,1,345.2818,152.7027Z"/><path class="cls-20" d="M347.0054,152.7051a.6089.6089,0,1,1-.6074-.61A.6086.6086,0,0,1,347.0054,152.7051Z"/><path class="cls-20" d="M348.73,152.71a.6079.6079,0,1,1-.6045-.61A.6077.6077,0,0,1,348.73,152.71Z"/><path class="cls-20" d="M350.4575,152.7139a.6089.6089,0,1,1-.61-.6094A.6108.6108,0,0,1,350.4575,152.7139Z"/><path class="cls-20" d="M352.1812,152.7173a.6094.6094,0,1,1-.6074-.61A.6074.6074,0,0,1,352.1812,152.7173Z"/><path class="cls-20" d="M353.9068,152.7207a.6084.6084,0,1,1-.6065-.6113A.6064.6064,0,0,1,353.9068,152.7207Z"/><path class="cls-20" d="M323.9761,149.0494q-.8232,1.8009-1.6475,3.6049c-.2255-.5957-.45-1.1889-.6757-1.7841-.1016-.2666-.8409-.6431-.668-.1866l1.0517,2.7808c.0665.17.5274.667.6788.335q.9755-2.1313,1.9482-4.2657C324.7886,149.2637,324.1245,148.7212,323.9761,149.0494Z"/><path class="cls-20" d="M326.2886,159.6587a.6094.6094,0,1,1-.6094-.61A.6121.6121,0,0,1,326.2886,159.6587Z"/><path class="cls-20" d="M328.0122,159.6612a.6089.6089,0,1,1-.6054-.61A.6059.6059,0,0,1,328.0122,159.6612Z"/><path class="cls-20" d="M329.7378,159.6661a.6089.6089,0,1,1-.6084-.61A.6082.6082,0,0,1,329.7378,159.6661Z"/><path class="cls-20" d="M331.4644,159.67a.6094.6094,0,1,1-.6094-.6113A.6122.6122,0,0,1,331.4644,159.67Z"/><path class="cls-20" d="M333.188,159.6729a.6089.6089,0,1,1-.6064-.61A.6085.6085,0,0,1,333.188,159.6729Z"/><path class="cls-20" d="M334.9146,159.6768a.6084.6084,0,1,1-.6094-.61A.61.61,0,0,1,334.9146,159.6768Z"/><path class="cls-20" d="M336.6392,159.68a.6094.6094,0,1,1-.6074-.61A.6089.6089,0,0,1,336.6392,159.68Z"/><path class="cls-20" d="M338.3648,159.6851a.6089.6089,0,1,1-.6084-.61A.6116.6116,0,0,1,338.3648,159.6851Z"/><path class="cls-20" d="M340.0894,159.6875a.6084.6084,0,1,1-.6065-.61A.6088.6088,0,0,1,340.0894,159.6875Z"/><path class="cls-20" d="M341.8159,159.6914a.6094.6094,0,1,1-.6093-.6093A.6083.6083,0,0,1,341.8159,159.6914Z"/><path class="cls-20" d="M343.54,159.6949a.6089.6089,0,1,1-.6065-.61A.6068.6068,0,0,1,343.54,159.6949Z"/><path class="cls-20" d="M345.2642,159.7a.6079.6079,0,1,1-.6045-.61A.608.608,0,0,1,345.2642,159.7Z"/><path class="cls-20" d="M346.9917,159.7022a.6089.6089,0,1,1-.6094-.61A.612.612,0,0,1,346.9917,159.7022Z"/><path class="cls-20" d="M348.7163,159.7071a.6094.6094,0,1,1-.6074-.61A.6075.6075,0,0,1,348.7163,159.7071Z"/><path class="cls-20" d="M350.4409,159.71a.6084.6084,0,1,1-.6064-.6079A.608.608,0,0,1,350.4409,159.71Z"/><path class="cls-20" d="M352.1675,159.7144a.6089.6089,0,1,1-.6084-.61A.6111.6111,0,0,1,352.1675,159.7144Z"/><path class="cls-20" d="M353.8921,159.7178a.6094.6094,0,1,1-.6074-.6113A.6086.6086,0,0,1,353.8921,159.7178Z"/><path class="cls-20" d="M323.9605,156.0464q-.8247,1.801-1.6465,3.605c-.2256-.5957-.45-1.189-.6777-1.7847-.1006-.2661-.8418-.6425-.667-.1836l1.0537,2.7779c.0654.1709.5254.667.6787.3354q.9726-2.135,1.9473-4.2646C324.773,156.2608,324.11,155.7193,323.9605,156.0464Z"/><path class="cls-21" d="M300.398,144.814l.0224-22.6416a3.0246,3.0246,0,0,0-2.8291-3.1841l-6.1347-.0063a3.0256,3.0256,0,0,0-2.836,3.1787l-.0244,22.643Z"/><path class="cls-22" d="M290.064,173.6221a1.5616,1.5616,0,0,1-1.5606-1.5649h0a1.5639,1.5639,0,0,1,1.5645-1.5616l8.8076.0088a1.5647,1.5647,0,0,1,1.5615,1.564h0a1.5615,1.5615,0,0,1-1.5644,1.5615Z"/><path class="cls-22" d="M289.3355,145.5494a.7788.7788,0,0,1-.8057-.7471h0a.7777.7777,0,0,1,.8076-.7432l10.3213.01a.7769.7769,0,0,1,.8057.7451h0a.7783.7783,0,0,1-.8076.7451Z"/><rect class="cls-22" x="292.0327" y="145.0718" width="4.9029" height="26.552"/><path class="cls-23" d="M288.6206,122.1607a3.0256,3.0256,0,0,1,2.836-3.1787l6.1347.0063a3.0246,3.0246,0,0,1,2.8291,3.1841L300.3823,160.9l-11.8027-.0122Z"/><path class="cls-5" d="M287.562,123.2a.5623.5623,0,0,1,.5625-.562l5.3125.0069a.561.561,0,1,1-.0009,1.122l-5.3145-.0053A.5594.5594,0,0,1,287.562,123.2Z"/><path class="cls-5" d="M287.5591,126.3228a.5617.5617,0,0,1,.5606-.5615l5.3134.0058a.5616.5616,0,0,1-.0009,1.1231l-5.3125-.0049A.5591.5591,0,0,1,287.5591,126.3228Z"/><path class="cls-5" d="M287.5552,129.4468a.56.56,0,0,1,.5615-.561l7.9688.0078a.5613.5613,0,1,1-.001,1.1225l-7.9688-.0063A.5633.5633,0,0,1,287.5552,129.4468Z"/><path class="cls-5" d="M287.55,132.57a.5616.5616,0,0,1,.5645-.56l5.3125.0039a.5618.5618,0,0,1-.002,1.1235l-5.3125-.0053A.5627.5627,0,0,1,287.55,132.57Z"/><path class="cls-5" d="M287.5474,135.6929a.56.56,0,0,1,.5644-.5591l5.3116.0034a.5621.5621,0,0,1,0,1.1241l-5.3125-.0049A.5646.5646,0,0,1,287.5474,135.6929Z"/><path class="cls-5" d="M287.5454,138.8174a.56.56,0,0,1,.5616-.56l7.97.0083a.5616.5616,0,0,1-.002,1.1231l-7.9677-.01A.5614.5614,0,0,1,287.5454,138.8174Z"/><path class="cls-5" d="M287.5415,141.9414a.5629.5629,0,0,1,.5635-.561l5.3115.0049a.5618.5618,0,1,1-.0009,1.1235l-5.3125-.0053A.5631.5631,0,0,1,287.5415,141.9414Z"/><path class="cls-5" d="M287.54,145.0655a.562.562,0,0,1,.56-.5616l5.3145.0069a.5615.5615,0,0,1-.002,1.123L288.1,145.627A.56.56,0,0,1,287.54,145.0655Z"/><path class="cls-5" d="M287.5357,148.1885a.5622.5622,0,0,1,.5615-.5615l7.9687.0088a.5618.5618,0,1,1-.0009,1.1235l-7.9688-.0083A.5622.5622,0,0,1,287.5357,148.1885Z"/><path class="cls-5" d="M287.5337,151.313a.5607.5607,0,0,1,.5615-.5615l5.3116.0044a.562.562,0,0,1,0,1.124l-5.3135-.0044A.562.562,0,0,1,287.5337,151.313Z"/><path class="cls-5" d="M303.732,161.8594a.9579.9579,0,0,0-.9571-.958l-1.2715-.0015.04-38.727a4.2183,4.2183,0,0,0-3.2949-4.2437c-.0694-.6416-.4385-2.8066-2.1983-3.6518l-.3027-4.169a1.2059,1.2059,0,0,0-.6533-1.0708l.0175-16.6089a.5615.5615,0,1,0-1.123.001l-.0166,16.606a1.21,1.21,0,0,0-.6553,1.0708l-.375,4.1763c-1.6465.85-2.0517,2.9985-2.1387,3.6391a4.2164,4.2164,0,0,0-3.3066,4.2378l-.04,38.7256-.7032,0a.9573.9573,0,0,0-.0019,1.9145l16.0215.0152A.9592.9592,0,0,0,303.732,161.8594Zm-15.1114-39.6987a3.0256,3.0256,0,0,1,2.836-3.1787l6.1347.0063a3.0246,3.0246,0,0,1,2.8291,3.1841L300.3823,160.9l-11.8027-.0122Z"/><path class="cls-21" d="M24.9551,213.7627l7.2964-11.5346a1.8236,1.8236,0,0,0-.4175-2.5337l-3.125-1.9771a1.8242,1.8242,0,0,0-2.4683.708L18.9429,209.959Z"/><path class="cls-22" d="M10.419,225.1221a.942.942,0,0,1-.2925-1.3h0a.9435.9435,0,0,1,1.3-.293l4.4863,2.8389a.9432.9432,0,0,1,.293,1.3h0a.9405.9405,0,0,1-1.3.292Z"/><path class="cls-22" d="M19.0791,210.5782a.47.47,0,0,1-.17-.64h0a.4682.4682,0,0,1,.6509-.1191l5.2583,3.3252a.4682.4682,0,0,1,.17.6386h0a.469.469,0,0,1-.6514.12Z"/><rect class="cls-22" x="9.5838" y="217.2806" width="16.0053" height="2.9555" transform="translate(-176.6917 116.6775) rotate(-57.6847)"/><path class="cls-23" d="M26.2407,198.4253a1.8242,1.8242,0,0,1,2.4683-.708l3.125,1.9771a1.8236,1.8236,0,0,1,.4175,2.5337l-12.48,19.729-6.0122-3.8047Z"/><path class="cls-5" d="M25.3662,198.6148a.3389.3389,0,0,1,.4678-.1055l2.7061,1.7124a.3386.3386,0,0,1-.3619.5723l-2.707-1.7129A.3378.3378,0,0,1,25.3662,198.6148Z"/><path class="cls-5" d="M24.36,200.2056a.34.34,0,0,1,.4668-.1064l2.7065,1.7133a.3383.3383,0,0,1-.3618.5718l-2.7065-1.7119A.3373.3373,0,0,1,24.36,200.2056Z"/><path class="cls-5" d="M23.3535,201.7969a.3369.3369,0,0,1,.4663-.1055l4.06,2.5674a.3385.3385,0,1,1-.3618.5723l-4.06-2.5669A.3392.3392,0,0,1,23.3535,201.7969Z"/><path class="cls-5" d="M22.3457,203.3872a.339.339,0,0,1,.4678-.104l2.707,1.712a.3386.3386,0,0,1-.3628.5717l-2.706-1.7124A.3384.3384,0,0,1,22.3457,203.3872Z"/><path class="cls-5" d="M21.3394,204.9786a.3373.3373,0,0,1,.4678-.1036l2.706,1.711a.3382.3382,0,0,1-.3608.5722l-2.7066-1.7119A.3394.3394,0,0,1,21.3394,204.9786Z"/><path class="cls-5" d="M20.3335,206.57a.3369.3369,0,0,1,.4658-.1044l4.06,2.5683a.3382.3382,0,0,1-.3623.5713l-4.0581-2.5684A.3372.3372,0,0,1,20.3335,206.57Z"/><path class="cls-5" d="M19.3262,208.1621a.3385.3385,0,0,1,.4678-.1054l2.706,1.7109a.3391.3391,0,1,1-.3623.5733l-2.7065-1.712A.34.34,0,0,1,19.3262,208.1621Z"/><path class="cls-5" d="M18.32,209.753a.34.34,0,0,1,.4664-.1065l2.7065,1.7149a.3381.3381,0,0,1-.3618.5713L18.4248,210.22A.3387.3387,0,0,1,18.32,209.753Z"/><path class="cls-5" d="M17.3125,211.3438a.34.34,0,0,1,.4678-.1055l4.0586,2.5684a.3385.3385,0,1,1-.3618.5722l-4.06-2.5683A.3387.3387,0,0,1,17.3125,211.3438Z"/><path class="cls-5" d="M16.3067,212.9366a.3383.3383,0,0,1,.4673-.1065l2.706,1.711a.3411.3411,0,0,1,.105.4687.3369.3369,0,0,1-.4663.1045l-2.708-1.7109A.3393.3393,0,0,1,16.3067,212.9366Z"/><path class="cls-5" d="M21.17,223.5235a.5768.5768,0,0,0-.18-.7959l-.6474-.41,12.4805-19.728a2.5421,2.5421,0,0,0-.314-3.2232,2.7879,2.7879,0,0,0,.0547-2.5688l1.1865-2.2222a.727.727,0,0,0,.0117-.7558l5.3526-8.461a.3383.3383,0,1,0-.5723-.3608l-5.3516,8.4595a.7286.7286,0,0,0-.6787.3344L30.9781,195.8a2.9535,2.9535,0,0,0-2.2613,1.1665,2.5415,2.5415,0,0,0-3.0488,1.0962l-12.48,19.7281-.3584-.2266a.5772.5772,0,0,0-.6172.9756l8.1621,5.1621A.5784.5784,0,0,0,21.17,223.5235Zm5.07-25.0982a1.8242,1.8242,0,0,1,2.4683-.708l3.125,1.9771a1.8236,1.8236,0,0,1,.4175,2.5337l-12.48,19.729-6.0122-3.8047Z"/><polygon class="cls-24" points="231.963 91.999 216.106 98.694 215.659 111.425 220.161 113.299 231.963 106.862 246.257 99.063 246.257 85.963 231.963 91.999"/><polygon class="cls-24" points="247.151 99.734 232.633 107.654 232.633 118.785 247.151 124.825 247.151 99.734"/><polygon class="cls-24" points="220.384 113.969 231.963 118.785 231.963 107.654 220.384 113.969"/><rect class="cls-24" x="162.7256" y="100.0337" width="29.2583" height="10.0508"/><path class="cls-25" d="M220.5728,105.0591a8.712,8.712,0,0,1-8.711,8.71H196.6743a8.7119,8.7119,0,0,1-8.7109-8.71h0a8.7122,8.7122,0,0,1,8.7109-8.71h15.1875a8.7123,8.7123,0,0,1,8.711,8.71Z"/><path class="cls-26" d="M161.6089,112.941c0,.642-.9,1.1635-2.01,1.1635h0c-1.11,0-2.01-.5215-2.01-1.1635V97.1758c0-.6421.9-1.1621,2.01-1.1621h0c1.11,0,2.01.52,2.01,1.1621Z"/><path class="cls-26" d="M213.8716,105.0591a4.9126,4.9126,0,0,1-4.9131,4.9136h-3.3506a4.9127,4.9127,0,0,1-4.9131-4.9136h0a4.9127,4.9127,0,0,1,4.9131-4.9136h3.3506a4.9126,4.9126,0,0,1,4.9131,4.9136Z"/><polygon class="cls-27" points="104.773 284.251 121.335 290.946 121.803 303.678 117.101 305.552 104.773 299.114 89.844 291.316 89.844 278.216 104.773 284.251"/><polygon class="cls-27" points="88.911 291.987 104.074 299.907 104.074 311.038 88.911 317.078 88.911 291.987"/><polygon class="cls-27" points="116.867 306.222 104.773 311.038 104.773 299.907 116.867 306.222"/><rect class="cls-27" x="146.5293" y="292.2862" width="30.5581" height="10.0507"/><path class="cls-25" d="M116.67,297.3116a8.9118,8.9118,0,0,0,9.0977,8.7109H141.63a8.9119,8.9119,0,0,0,9.0981-8.7109h0a8.9117,8.9117,0,0,0-9.0981-8.71H125.7681a8.9117,8.9117,0,0,0-9.0977,8.71Z"/><path class="cls-26" d="M178.2544,305.1944c0,.6416.94,1.1631,2.1,1.1631h0c1.1582,0,2.0987-.5215,2.0987-1.1631V289.4287c0-.6425-.94-1.1621-2.0987-1.1621h0c-1.1592,0-2.1.52-2.1,1.1621Z"/><path class="cls-26" d="M123.669,297.3116a5.0253,5.0253,0,0,0,5.1313,4.914h3.5a5.0254,5.0254,0,0,0,5.1314-4.914h0a5.0252,5.0252,0,0,0-5.1314-4.9131h-3.5a5.0252,5.0252,0,0,0-5.1313,4.9131Z"/><path class="cls-28" d="M263.4341,228.94v22.6543a2.9077,2.9077,0,1,0,5.8154,0V225.3985Z"/><path class="cls-29" d="M266.342,254.7528a3.1623,3.1623,0,0,1-3.1582-3.1592V186.7528a3.1578,3.1578,0,0,1,6.3155,0v64.8408A3.1615,3.1615,0,0,1,266.342,254.7528Zm0-70.6563a2.66,2.66,0,0,0-2.6582,2.6563v64.8408a2.6578,2.6578,0,1,0,5.3155,0V186.7528A2.66,2.66,0,0,0,266.342,184.0965Z"/><path class="cls-26" d="M273.8277,212.1729a2.9092,2.9092,0,0,1-2.9073,2.9092h-8.6172a2.9087,2.9087,0,0,1-2.9082-2.9092h0a2.9082,2.9082,0,0,1,2.9082-2.9072H270.92a2.9087,2.9087,0,0,1,2.9073,2.9072Z"/><path class="cls-26" d="M270.92,209.4805a4.31,4.31,0,0,1-4.3086,4.31h0a4.31,4.31,0,0,1-4.3086-4.31V178.8916a4.3077,4.3077,0,0,1,4.3086-4.3086h0a4.3082,4.3082,0,0,1,4.3086,4.3086Z"/><path class="cls-28" d="M265.9654,257.95s-8.1866,12.4932-.8633,15.94C265.1021,273.8907,274.3648,274.752,265.9654,257.95Z"/><path class="cls-5" d="M69.9634,149.6338c-6.9351,0-10.019-3.373-10.019-10.9316h2.0395c0,6.3955,2.2349,8.8887,7.9795,8.8887,7.3755,0,11.6455-2.1905,11.6455-13.3848,0-3.12-.081-7.1968-.1553-11.1406-.0776-3.9082-.1533-7.95-.1533-11.0176,0-5.3086,0-11.9155,5.8247-11.9155a6.0843,6.0843,0,0,1,4.57,1.7006c2.4209,2.5093,2.26,7.1866,2.07,12.6045-.0468,1.252-.0893,2.5474-.103,3.8374l-2.0386-.02c.0079-1.3159.0547-2.625.1006-3.8892.1646-4.7465.3213-9.228-1.4995-11.1118a4.0783,4.0783,0,0,0-3.1-1.0791c-3.2319,0-3.7812,3.0454-3.7812,9.8726,0,3.0478.0771,7.0791.1533,10.979.0757,3.9517.1567,8.0395.1567,11.1792,0,6.0019-1.26,10.0928-3.8486,12.5088C77.0337,149.3013,73.0894,149.6338,69.9634,149.6338Z"/><path class="cls-5" d="M66.7945,90.22a5.8328,5.8328,0,0,0-11.6656,0h-11.16V123.52a10.2478,10.2478,0,0,0,10.2177,10.2168H67.7378A10.2449,10.2449,0,0,0,77.9551,123.52V90.22Zm-5.8321-3.3609A3.3626,3.3626,0,1,1,57.6,90.22,3.3623,3.3623,0,0,1,60.9624,86.8594Z"/><rect class="cls-5" x="58.7442" y="123.8936" width="4.435" height="13.1455"/><path class="cls-30" d="M54.1865,130.4668a6.9554,6.9554,0,0,1-6.9477-6.9472V113.1817c0-3.7207-.5161-7.9224.0757-11.5742,1.665.2661,3.126,1.4926,4.853,1.6577,2.0064.1919,1.419-1.6031,3.4927-1.91,2.4678-.3608,3.46.7022,5.5429,1.4019,2.6612.8964,3.0914-.6138,5.5914-1.3418,1.9863-.5787,3.207-.0757,5.0268.3579a5.8,5.8,0,0,0,2.7974-.0523c.9634,6.9868.0664,14.71.0664,21.7984a6.9553,6.9553,0,0,1-6.9473,6.9472Z"/><rect class="cls-30" x="59.7666" y="123.8936" width="2.3907" height="13.1455"/><path d="M58.8131,136.7076h4.2988a1.0229,1.0229,0,0,1,1.0229,1.0229v1.92a1.0219,1.0219,0,0,1-1.0219,1.0219H58.812A1.0219,1.0219,0,0,1,57.79,139.651v-1.92A1.023,1.023,0,0,1,58.8131,136.7076Z"/><path class="cls-31" d="M316.4536,194.3243h0a5.6011,5.6011,0,0,0-7.8994,0l-3.9023,3.9023-9.1729,9.1748a.3355.3355,0,0,1-.042.041c-.2812.2891-.9414,1.0313-1.832,2.0576-3.2129,3.9961-1.124,4.5586-4.835,9.2491a38.0934,38.0934,0,0,1-2.9365,3.3046,2.047,2.047,0,0,0,2.8936,2.8946,37.2187,37.2187,0,0,1,3.2373-2.8838c4.7119-3.7471,5.3008-1.6611,9.3183-4.8877,1.0264-.89,1.7676-1.5508,2.0577-1.8359.0127-.0127.0253-.0254.038-.0391l9.1729-9.1719,3.9023-3.9043A5.6016,5.6016,0,0,0,316.4536,194.3243Z"/><rect class="cls-32" x="287.1168" y="215.006" width="16.2548" height="1.0617" transform="translate(-65.7469 273.0757) rotate(-45.1868)"/><path class="cls-33" d="M289.3618,221.417a.72.72,0,0,1,0-1.0185l23.9258-23.9268a.7209.7209,0,1,1,1.0186,1.02L290.3794,221.417A.7172.7172,0,0,1,289.3618,221.417ZM314.0376,196.74a.3394.3394,0,0,0-.48,0l-23.9229,23.9258a.3394.3394,0,1,0,.4775.4824l23.9258-23.9268A.3423.3423,0,0,0,314.0376,196.74Z"/><path class="cls-34" d="M285.8335,222.0537a2.047,2.047,0,0,0,2.8936,2.8946,37.6412,37.6412,0,0,1,2.8418-2.5645l-3.17-3.17A38.2149,38.2149,0,0,1,285.8335,222.0537Z"/><path class="cls-35" d="M288.88,219.6953c-.5029.4366-1.1465,1.5166-2.1172,2.4834-.8779.8692-.93,1.5811-.1025,2.3038.7617.6621,2.3808-.3223,1.4443-1.8262-.3154-.5069-.085-1.0371.3574-1.4893.3028-.3086.7373-.6093.9971-.8906Z"/><polygon class="cls-36" points="315.444 201.106 313.599 199.261 313.846 199.011 315.696 200.857 315.444 201.106"/><polygon class="cls-36" points="314.426 201.32 312.982 199.875 313.233 199.627 314.677 201.071 314.426 201.32"/><polygon class="cls-36" points="313.812 201.937 312.368 200.491 312.615 200.242 314.059 201.687 313.812 201.937"/><polygon class="cls-36" points="313.194 202.551 311.749 201.106 312.001 200.855 313.446 202.3 313.194 202.551"/><polygon class="cls-36" points="312.581 203.167 311.137 201.723 311.383 201.474 312.829 202.918 312.581 203.167"/><rect class="cls-36" x="311.3913" y="201.8302" width="0.3532" height="2.6127" transform="translate(-52.3644 279.8977) rotate(-45.014)"/><polygon class="cls-36" points="311.349 204.398 309.905 202.954 310.153 202.705 311.597 204.148 311.349 204.398"/><polygon class="cls-36" points="310.732 205.013 309.288 203.569 309.539 203.317 310.984 204.763 310.732 205.013"/><rect class="cls-36" x="309.3449" y="203.7602" width="0.3498" height="2.0422" transform="translate(-54.1691 278.7292) rotate(-44.9821)"/><rect class="cls-36" x="308.7262" y="204.3757" width="0.3563" height="2.0426" transform="translate(-54.7643 278.5744) rotate(-44.9979)"/><polygon class="cls-36" points="309.288 207.264 307.443 205.416 307.69 205.165 309.539 207.012 309.288 207.264"/><rect class="cls-36" x="307.4955" y="205.6078" width="0.3553" height="2.0422" transform="translate(-56.0156 277.9646) rotate(-44.9821)"/><rect class="cls-36" x="306.8829" y="206.2232" width="0.3494" height="2.0419" transform="translate(-56.6331 277.697) rotate(-44.9802)"/><rect class="cls-36" x="306.264" y="206.8384" width="0.3553" height="2.043" transform="translate(-57.1785 277.8069) rotate(-45.0377)"/><polygon class="cls-36" points="306.424 209.321 304.98 207.877 305.227 207.629 306.671 209.071 306.424 209.321"/><polygon class="cls-36" points="306.212 210.342 304.363 208.495 304.614 208.243 306.462 210.093 306.212 210.342"/><polygon class="cls-36" points="305.193 210.552 303.749 209.107 304 208.858 305.445 210.303 305.193 210.552"/><rect class="cls-36" x="303.8014" y="209.3006" width="0.3553" height="2.043" transform="translate(-59.6891 276.5349) rotate(-44.998)"/><rect class="cls-36" x="303.1888" y="209.9166" width="0.3515" height="2.0433" transform="translate(-60.3226 276.1811) rotate(-44.9823)"/><polygon class="cls-36" points="303.344 212.401 301.9 210.955 302.152 210.706 303.596 212.15 303.344 212.401"/><polygon class="cls-36" points="303.135 213.42 301.287 211.57 301.538 211.322 303.382 213.168 303.135 213.42"/><rect class="cls-36" x="301.3386" y="211.7633" width="0.356" height="2.0423" transform="translate(-62.1296 275.6409) rotate(-45.0179)"/><polygon class="cls-36" points="301.499 214.246 300.055 212.802 300.306 212.553 301.751 213.997 301.499 214.246"/><polygon class="cls-36" points="300.882 214.861 299.437 213.417 299.689 213.168 301.132 214.612 300.882 214.861"/><polygon class="cls-36" points="300.268 215.478 298.825 214.033 299.071 213.784 300.519 215.228 300.268 215.478"/><polygon class="cls-36" points="300.055 216.495 298.21 214.649 298.457 214.399 300.306 216.248 300.055 216.495"/><rect class="cls-36" x="310.5444" y="194.8273" width="0.3536" height="2.613" transform="translate(-47.6816 277.1496) rotate(-44.9985)"/><polygon class="cls-36" points="309.462 196.354 310.907 197.799 311.154 197.549 309.709 196.105 309.462 196.354"/><rect class="cls-36" x="309.5144" y="196.5452" width="0.356" height="2.0429" transform="translate(-49.0214 276.7274) rotate(-44.9802)"/><polygon class="cls-36" points="308.231 197.586 309.675 199.03 309.922 198.78 308.479 197.337 308.231 197.586"/><rect class="cls-36" x="308.2832" y="197.7759" width="0.356" height="2.0429" transform="translate(-50.1981 276.4646) rotate(-45.0197)"/><polygon class="cls-36" points="306.595 198.415 308.444 200.262 308.691 200.012 306.846 198.163 306.595 198.415"/><rect class="cls-36" x="307.0525" y="199.008" width="0.355" height="2.0426" transform="translate(-51.4539 275.8441) rotate(-45.002)"/><polygon class="cls-36" points="305.768 200.048 307.212 201.492 307.459 201.243 306.015 199.799 305.768 200.048"/><polygon class="cls-36" points="305.151 200.664 306.595 202.107 306.846 201.857 305.402 200.412 305.151 200.664"/><rect class="cls-36" x="305.2082" y="200.8549" width="0.3498" height="2.0422" transform="translate(-53.326 274.9548) rotate(-44.9821)"/><rect class="cls-36" x="304.3895" y="200.9834" width="0.3529" height="2.6123" transform="translate(-53.9112 274.2314) rotate(-44.9395)"/><polygon class="cls-36" points="303.306 202.508 304.75 203.952 304.998 203.704 303.553 202.262 303.306 202.508"/><polygon class="cls-36" points="302.688 203.126 304.132 204.57 304.384 204.319 302.94 202.875 302.688 203.126"/><rect class="cls-36" x="302.7457" y="203.3176" width="0.3494" height="2.0426" transform="translate(-55.7637 274.059) rotate(-45.002)"/><rect class="cls-36" x="302.1268" y="203.933" width="0.3553" height="2.0422" transform="translate(-56.3815 273.7912) rotate(-45)"/><polygon class="cls-36" points="300.439 204.568 302.288 206.416 302.54 206.168 300.69 204.319 300.439 204.568"/><rect class="cls-36" x="300.8961" y="205.1639" width="0.3553" height="2.0429" transform="translate(-57.6124 273.2825) rotate(-45.0002)"/><polygon class="cls-36" points="299.613 206.202 301.056 207.646 301.303 207.397 299.86 205.953 299.613 206.202"/><polygon class="cls-36" points="298.995 206.82 300.439 208.265 300.69 208.013 299.246 206.568 298.995 206.82"/><polygon class="cls-36" points="298.381 207.434 299.826 208.878 300.077 208.631 298.632 207.185 298.381 207.434"/><polygon class="cls-36" points="297.363 207.646 299.207 209.494 299.458 209.245 297.61 207.395 297.363 207.646"/><polygon class="cls-36" points="297.15 208.665 298.593 210.109 298.846 209.86 297.397 208.416 297.15 208.665"/><polygon class="cls-36" points="296.537 209.281 297.977 210.727 298.227 210.476 296.784 209.031 296.537 209.281"/><polygon class="cls-36" points="295.918 209.895 297.363 211.34 297.61 211.091 296.17 209.647 295.918 209.895"/><rect class="cls-36" x="295.9733" y="210.0887" width="0.3532" height="2.0429" transform="translate(-62.3946 272.0863) rotate(-45.1348)"/><polygon class="cls-36" points="294.283 210.725 296.131 212.571 296.382 212.322 294.533 210.476 294.283 210.725"/><rect class="cls-34" x="354.9029" y="250.919" width="9.2968" height="7.098" transform="translate(-73.8509 333.1675) rotate(-45.5804)"/><polygon class="cls-37" points="328.497 284.752 331.229 284.759 340.271 275.534 338.877 274.163 328.497 284.752"/><polygon class="cls-38" points="336.53 273.747 340.738 277.872 347.487 272.801 341.463 266.898 336.53 273.747"/><rect class="cls-5" x="340.0719" y="257.6353" width="21.7332" height="11.2428" transform="translate(-82.7246 329.5754) rotate(-45.5701)"/><rect class="cls-39" x="341.0061" y="263.0775" width="19.7047" height="0.5179" transform="translate(-82.8194 329.4522) rotate(-45.5582)"/><path class="cls-37" d="M352.59,250.4483a.2376.2376,0,0,0,.0029.33l10.7861,10.5732a.2371.2371,0,0,0,.334-.0029l.459-.47a.2367.2367,0,0,0-.0039-.33l-10.7871-10.5733a.2365.2365,0,0,0-.3321.003Z"/><path class="cls-40" d="M340.7544,278.35a.35.35,0,0,1-.4941.0049l-4.2071-4.1211a.3528.3528,0,0,1-.0039-.498l.2178-.22a.3481.3481,0,0,1,.4942-.0049l4.21,4.125a.3507.3507,0,0,1,.0039.4941Z"/><rect class="cls-41" x="342.4284" y="267.5135" width="0.5187" height="2.495" transform="translate(-89.1307 325.3315) rotate(-45.5697)"/><rect class="cls-41" x="343.5184" y="267.0632" width="0.519" height="1.9484" transform="translate(-88.3079 325.7359) rotate(-45.5489)"/><rect class="cls-41" x="344.4144" y="266.1494" width="0.5193" height="1.9489" transform="translate(-87.2839 326.8538) rotate(-45.6486)"/><rect class="cls-41" x="345.3092" y="265.2353" width="0.5179" height="1.9508" transform="translate(-86.3825 327.0726) rotate(-45.6293)"/><rect class="cls-41" x="346.2049" y="264.3233" width="0.5189" height="1.9478" transform="translate(-85.5487 326.8179) rotate(-45.547)"/><rect class="cls-41" x="346.9051" y="262.9489" width="0.5189" height="2.4905" transform="translate(-84.5572 326.9482) rotate(-45.5418)"/><rect class="cls-41" x="347.9953" y="262.4956" width="0.5186" height="1.9508" transform="translate(-83.6162 328.1691) rotate(-45.6293)"/><rect class="cls-41" x="348.8896" y="261.5827" width="0.5186" height="1.9509" transform="translate(-82.7165 328.3912) rotate(-45.6103)"/><rect class="cls-41" x="349.786" y="260.6709" width="0.518" height="1.9473" transform="translate(-81.9138 327.9843) rotate(-45.5078)"/><polygon class="cls-41" points="350.426 259.865 351.815 261.229 351.453 261.599 350.063 260.234 350.426 259.865"/><rect class="cls-41" x="351.3824" y="258.381" width="0.519" height="2.494" transform="translate(-79.9032 329.1086) rotate(-45.586)"/><rect class="cls-41" x="352.4699" y="257.9298" width="0.5207" height="1.9495" transform="translate(-79.1331 329.2197) rotate(-45.5264)"/><rect class="cls-41" x="353.367" y="257.0185" width="0.5179" height="1.9474" transform="translate(-78.1856 329.7565) rotate(-45.549)"/><rect class="cls-41" x="354.2609" y="256.1037" width="0.5183" height="1.9484" transform="translate(-77.2647 330.122) rotate(-45.5492)"/><rect class="cls-41" x="355.1571" y="255.19" width="0.5179" height="1.9503" transform="translate(-76.1851 331.4086) rotate(-45.6714)"/><rect class="cls-41" x="355.858" y="253.8146" width="0.5183" height="2.4934" transform="translate(-75.2754 331.0623) rotate(-45.6029)"/><rect class="cls-41" x="345.3413" y="270.3675" width="0.5186" height="2.4937" transform="translate(-90.2925 328.2829) rotate(-45.5717)"/><rect class="cls-41" x="346.0418" y="269.5353" width="0.518" height="1.9509" transform="translate(-89.2356 328.8916) rotate(-45.6296)"/><polygon class="cls-41" points="348.074 270.094 346.684 268.729 346.317 269.1 347.711 270.466 348.074 270.094"/><rect class="cls-41" x="347.8315" y="267.7107" width="0.5183" height="1.9477" transform="translate(-87.4794 328.9939) rotate(-45.547)"/><rect class="cls-41" x="348.7265" y="266.7975" width="0.5193" height="1.9474" transform="translate(-86.4271 330.2861) rotate(-45.6689)"/><rect class="cls-41" x="349.8175" y="265.8012" width="0.5169" height="2.4934" transform="translate(-85.6369 330.4676) rotate(-45.6189)"/><rect class="cls-41" x="350.518" y="264.9704" width="0.5197" height="1.9484" transform="translate(-84.6952 330.2473) rotate(-45.5675)"/><rect class="cls-41" x="351.4125" y="264.0573" width="0.5193" height="1.9474" transform="translate(-83.7741 330.6152) rotate(-45.568)"/><rect class="cls-41" x="352.3077" y="263.1435" width="0.52" height="1.9488" transform="translate(-82.7816 331.4475) rotate(-45.6294)"/><polygon class="cls-41" points="354.341 263.702 352.948 262.338 352.584 262.707 353.977 264.071 354.341 263.702"/><polygon class="cls-41" points="355.622 263.169 353.844 261.425 353.483 261.795 355.259 263.539 355.622 263.169"/><rect class="cls-41" x="354.9937" y="260.4041" width="0.519" height="1.9477" transform="translate(-80.1659 331.617) rotate(-45.5075)"/><polygon class="cls-41" points="357.028 260.962 355.634 259.598 355.27 259.968 356.661 261.333 357.028 260.962"/><rect class="cls-41" x="356.7838" y="258.576" width="0.5193" height="1.9516" transform="matrix(0.6996, -0.7145, 0.7145, 0.6996, -78.2015, 333.0978)"/><rect class="cls-41" x="357.6786" y="257.6634" width="0.5207" height="1.9495" transform="translate(-77.3568 333.0132) rotate(-45.547)"/><rect class="cls-41" x="358.7686" y="256.6694" width="0.5203" height="2.4919" transform="translate(-76.4597 333.8876) rotate(-45.5881)"/><path class="cls-35" d="M360.1294,246.4991c.0332-.1914.1729-.2354.3106-.1016l7.164,7.0244c.1387.1348.0977.2754-.0957.3115l-1.7422.3291a.7588.7588,0,0,1-.5947-.1787l-5.1455-5.0449a.7709.7709,0,0,1-.1934-.5918Z"/><rect class="cls-42" x="241.1428" y="301.247" width="2.1466" height="6.7697" transform="translate(-65.5811 542.8126) rotate(-89.245)"/><path class="cls-5" d="M255.81,314.8789a9.8348,9.8348,0,1,1,9.9658-9.7031A9.8383,9.8383,0,0,1,255.81,314.8789Z"/><path class="cls-43" d="M247.6685,296.5479a11.8582,11.8582,0,1,1-3.585,8.3359A11.7892,11.7892,0,0,1,247.6685,296.5479ZM261.39,310.6407a7.8107,7.8107,0,1,0-5.5537,2.2138A7.7587,7.7587,0,0,0,261.39,310.6407Z"/><path class="cls-24" d="M225.8052,307.0625c-2.5693-.0332-2.0752-5.1269.0684-5.1191,2.1435.0107,14.415.0654,14.415.0654l-.0674,5.1182S228.0191,307.0967,225.8052,307.0625Z"/><rect class="cls-44" x="268.9634" y="123.5909" width="5.7871" height="3.6171"/><rect class="cls-44" x="270.1929" y="126.6285" width="3.3291" height="2.08"/><rect class="cls-44" x="266.5357" y="84.6402" width="10.6435" height="1.5132"/><rect class="cls-44" x="268.4204" y="85.397" width="6.875" height="6.936"/><polygon class="cls-5" points="272.329 139.794 271.858 141.174 271.387 139.794 271.387 128.708 272.329 128.708 272.329 139.794"/><rect class="cls-5" x="266.7222" y="92.9175" width="10.2725" height="31.8306"/><rect class="cls-42" x="267.8794" y="109.1592" width="7.9571" height="13.9907"/><rect class="cls-44" x="265.0044" y="92.1231" width="13.7071" height="2.1689"/><rect class="cls-44" x="270.9712" y="93.8277" width="1.7735" height="14.1728"/><rect class="cls-44" x="267.8794" y="108.0005" width="7.9571" height="1.1587"/><circle class="cls-44" cx="88.7993" cy="176.3799" r="18.624" transform="translate(-60.7383 47.4082) rotate(-22.5)"/><path class="cls-5" d="M103.9146,176.38a15.1153,15.1153,0,1,1-15.1153-15.1152A15.1135,15.1135,0,0,1,103.9146,176.38Z"/><rect class="cls-44" x="88.2368" y="162.958" width="1.125" height="3.5318"/><rect class="cls-44" x="88.2368" y="186.5025" width="1.125" height="3.5312"/><rect class="cls-44" x="98.8052" y="175.9351" width="3.5317" height="1.125"/><rect class="cls-44" x="75.2632" y="175.9351" width="3.5303" height="1.125"/><polygon class="cls-44" points="99.173 170.789 98.583 169.83 100.043 168.937 100.632 169.897 99.173 170.789"/><polygon class="cls-44" points="77.556 184.056 76.967 183.096 78.345 182.269 78.933 183.229 77.556 184.056"/><polygon class="cls-44" points="94.956 166.387 93.969 165.848 94.792 164.348 95.779 164.888 94.956 166.387"/><polygon class="cls-44" points="82.804 188.65 81.816 188.11 82.598 186.707 83.587 187.246 82.804 188.65"/><rect class="cls-44" x="94.6966" y="186.5573" width="1.1269" height="1.7109" transform="translate(-82.1549 74.6211) rotate(-30.61)"/><polygon class="cls-44" points="81.424 165.134 82.394 164.561 83.198 165.952 82.23 166.526 81.424 165.134"/><polygon class="cls-44" points="98.811 182.818 99.366 181.839 100.851 182.684 100.296 183.664 98.811 182.818"/><polygon class="cls-44" points="76.748 170.308 77.304 169.328 78.692 170.134 78.138 171.112 76.748 170.308"/><polygon class="cls-44" points="88.237 175.059 84.997 184.388 89.899 177.39 96.18 174.645 88.237 175.059"/><path class="cls-45" d="M30.9575,121.8516q.0932-4.686.2134-9.6475.1143-4.96.127-9.559c.23-.4253.497-.4244.8081.0024l.165,2.5561q.3544,13.3316.9722,22.6167.6181,9.2827,1.769,19.146a91.7292,91.7292,0,0,0,3.1368,16.2554,4.2836,4.2836,0,0,0,4.3.5191q3.8372-1.7777,6.8139.25a9.8045,9.8045,0,0,1,3.9907,5.2475,8.5,8.5,0,0,1-.44,6.3447q-1.4575,3.1275-6.439,3.54-1.79.1253-4.5307-2.2676-2.74-2.3892-2.1309-9.1577-.6313-2.644-3.4858-2.0972a27.6715,27.6715,0,0,1-4.2613.63l.0035-1.4067a9.5816,9.5816,0,0,0,3.0263-.8013,2.2449,2.2449,0,0,0,1.1114-2.2139Q34.47,152.0547,33.416,146.26q-.5874-4.9007-1.4692-9.3511a49.9693,49.9693,0,0,0-1.3511-5.7314,13.2485,13.2485,0,0,0-.4985,3.5346q-.1085,2.469-.4585,5.6626-.5208,4.5132-1.2588,10.1968-.7375,5.6851-1.813,11.5161a2.3841,2.3841,0,0,0,1.1035,2.2163,14.9289,14.9289,0,0,0,3.66.5186l-.1733,1.4077a36.0681,36.0681,0,0,1-4.6-.3105q-1.0628-.2563-3.497,2.5048,1.1763,6.5193-1.5108,8.834t-4.22,2.44q-5.3656.2439-7.0845-2.9346a8.8323,8.8323,0,0,1-.8169-6.6455,9.57,9.57,0,0,1,3.9732-5.5918q3.0711-2.1226,7.2827.2715,1.4034.8136,4.0059-1.2681a107.5935,107.5935,0,0,0,2.4214-16.3477q.8283-9.9213,1.2133-19.2485.3831-9.3237.4561-22.7388l.1308-2.5551q.4725-.9369.8111.0014Q30.5891,115.2918,30.9575,121.8516Zm18.7442,55.3628a5.1785,5.1785,0,0,0,2.63-4.9756,9.5785,9.5785,0,0,0-1.8409-5.7959,5.63,5.63,0,0,0-5.1928-2.0337q-3.022.394-3.8355,2.3111a9.2213,9.2213,0,0,0,.961,8.5629Q45.0525,179.5885,49.7017,177.2144Zm-15.521-11.2769.0024-1.4477-.1684-.0005-.003,1.4482Zm-1.1045-1.2807-.0024,1.4057Zm-.6411,1.5752h-.1714l.0024-1.4053.1724-.002Zm-10.49,5.854q-.0775-4.0049-1.8618-5.4771a4.6426,4.6426,0,0,0-3.915-1.0957,7.0213,7.0213,0,0,0-3.8809,2.228,6.322,6.322,0,0,0-1.7573,4.4893q.0358,3.364,1.8442,4.752a5.3568,5.3568,0,0,0,3.9561,1.16,6.7021,6.7021,0,0,0,3.9-1.8437A5.3616,5.3616,0,0,0,21.9453,172.086Z"/><path class="cls-6" d="M249.0025,252.0235a19.943,19.943,0,0,0-2.8057-2.8369,15.1264,15.1264,0,0,1-2.6621-2.8536q-1.1646-1.6274-.959-5.3193h1.0029v-4.05c0-.49-.15-.7617-.457-.8125a5.8791,5.8791,0,0,0-.8721-.0732h-7.0322a2.8818,2.8818,0,0,0-.7988.0888c-.1973.06-.2949.3535-.2949.8877v3.959h1.0937a5.6758,5.6758,0,0,1-.7529,4.4336,22.3521,22.3521,0,0,1-2.8213,3.0283,21.4275,21.4275,0,0,0-3.044,3.4278,9.5073,9.5073,0,0,0-1.4209,5.6308V286.14q.62,1.8326,3.9317,2.584a30.5929,30.5929,0,0,0,7.2558.6972,40.2558,40.2558,0,0,0,7.4756-.7841q3.5317-.7266,4.5645-1.8487V257.2969Q250.3194,253.632,249.0025,252.0235Zm-14.791-11.2158v-3.6368c.06-.5908.5019-.8867,1.33-.8867h6.8272a1.1424,1.1424,0,0,0,.5459.0889c.2666,0,.3808.2666.34.7978v3.6368ZM250.17,281.53a10.5427,10.5427,0,0,1-4.5507,1.832,40.3934,40.3934,0,0,1-7.167.93,31.6059,31.6059,0,0,1-7.0049-.4258q-3.2373-.5946-4.0322-2.247v-24.085a12.7748,12.7748,0,0,0,4.1826,1.0195,63.9271,63.9271,0,0,0,6.9.5166,58.0914,58.0914,0,0,0,7.0322-.2373,9.6969,9.6969,0,0,0,4.64-1.2988Z"/><path class="cls-46" d="M51.83,220.0918l1.08-.3047.6538-.6875.6553.045,1.0254,2.3457-.878,1.0254a1.9959,1.9959,0,0,0-1.9956-.0108l-.5971-.4951a5.3929,5.3929,0,0,0-1.6358.6191,6.6909,6.6909,0,0,0-2.5976,2.6905,13.0946,13.0946,0,0,0-1.334,4.166,48.017,48.017,0,0,0-.1563,9.6162,57.826,57.826,0,0,1,.07,6.3477l.7115.3281-.5972,4.6328-.1582.09a5.4233,5.4233,0,0,0,.6572,3.711,4.3952,4.3952,0,0,0,3.5913,2.3447,7.6794,7.6794,0,0,0,4.5821-1.0508,9.4972,9.4972,0,0,0,2.9472-2.6289,10.755,10.755,0,0,0,1.7515-3.6191l-.2139-.1934q.1356-.4906.3491-1.7685a18.1588,18.1588,0,0,1,.62-2.7637l.6406-.1572a34.7226,34.7226,0,0,1,2.6948-7.1924,39.4686,39.4686,0,0,0,2.916-7.9,8.4152,8.4152,0,0,0-1.0166-6.1719,2.8448,2.8448,0,0,0-2.3466-1.5391,5.5525,5.5525,0,0,0-3.19.8282L59.1,221.2744l.4966-2.0654q.9448-.54,1.3516.1709l1.2646.01.3487.4267a5.91,5.91,0,0,1,4.6806,2.876,8.7634,8.7634,0,0,1,1.0664,6.3516,38.4042,38.4042,0,0,1-3.0234,8.17,31.4184,31.4184,0,0,0-2.84,7.4873l.6324.3721-.3028,1.8486-.5859,2.6377-.3154.1807a11.7122,11.7122,0,0,1-5.77,7.4892,22.148,22.148,0,0,1-2.9776,1.3867.3569.3569,0,0,1-.19.2139,3.8844,3.8844,0,0,0-.3726.6309q-.0783.7836-.5278,3.6552A58.6479,58.6479,0,0,0,51.1,273.753a18.12,18.12,0,0,0,2.6094,8.4043,15.4561,15.4561,0,0,0,9.0894,7.4736,14.249,14.249,0,0,0,11.6128-1.3,17.4738,17.4738,0,0,0,5.6748-5.1836,22.05,22.05,0,0,0,3.3071-7.1279,22.7308,22.7308,0,0,0,.6558-7.9151,20.2746,20.2746,0,0,0-2.1045-7.4345l-.89.0918-.3838-1.0381.4619-.4737-.9477-1.6552-.2476.665-1.2968.8447a3.1708,3.1708,0,0,1-1.8882-.6484,5.3316,5.3316,0,0,1-1.4151-1.6514,7.7269,7.7269,0,0,1-.9033-2.3115,3.1862,3.1862,0,0,1,.3267-2.1738l1.3857-.6885,2.21.9346-.0117-.2041a6.3174,6.3174,0,0,1-.3257-2.585,2.768,2.768,0,0,1,1.0469-2.0156,6.171,6.171,0,0,1,3.6254.3886,8.6868,8.6868,0,0,1,3.5308,5.9922,7.4147,7.4147,0,0,1-1.0776,3.336l-2.5572.1035.36.6318c.0605.1055.21.125.4517.0567a1.1952,1.1952,0,0,1,.4833-.0694l.4175.9131-.3833.43a21.9781,21.9781,0,0,1,2.3545,8.2344,25.9658,25.9658,0,0,1-.73,8.7939,23.8638,23.8638,0,0,1-3.7075,7.9844,19.6554,19.6554,0,0,1-6.2944,5.7471,17.7246,17.7246,0,0,1-6.7134,2.2685,15.7192,15.7192,0,0,1-6.6694-.5849,17.9853,17.9853,0,0,1-10.4209-8.7012,23.968,23.968,0,0,1-2.5786-6.7969,20.2935,20.2935,0,0,1-.357-7.126l.0337-.125q.6064-3.6943.8218-5.3369.2124-1.6406.2578-3.0263a4.0867,4.0867,0,0,0-.1816-1.7832,21.3685,21.3685,0,0,1-3.14-1.5528,6.1049,6.1049,0,0,1-2.0356-2.1875,8.0778,8.0778,0,0,1-.79-2.4814,7.0822,7.0822,0,0,1-.102-2.5576l-.1353-.2393a39.7454,39.7454,0,0,1,.5171-4.5869l.5962-.2373a45.9036,45.9036,0,0,0-.0254-7.0029q-.2563-3.1994-.2432-5.459a24.0683,24.0683,0,0,1,.4439-4.4444,11.9055,11.9055,0,0,1,1.605-4.0605,9.1954,9.1954,0,0,1,3.3081-3.0947,7.64,7.64,0,0,1,1.2739-.52l.44-.1455Zm-.563,40.2168q-.1933,1.6817-.4624,3.4053a63.1969,63.1969,0,0,0-.6382,10.4189,18.0751,18.0751,0,0,0,2.5728,8.1612,16.6879,16.6879,0,0,0,5.0532,5.54,15.0374,15.0374,0,0,0,6.9234,2.584,14.1184,14.1184,0,0,1-6.6519-2.4766,16.3472,16.3472,0,0,1-4.8608-5.3886,18.589,18.589,0,0,1-2.6138-8.5088,59.1215,59.1215,0,0,1,.8359-10.8965q.4037-2.95.4619-3.4033Zm-6.4394-9.6142a6.5443,6.5443,0,0,0,.9013,3.7744,5.0736,5.0736,0,0,0,3.4,2.5586,7.08,7.08,0,0,0,4.4942-.4746,6.8885,6.8885,0,0,1-4.24.28,4.9447,4.9447,0,0,1-3.17-2.43,5.9178,5.9178,0,0,1-.6645-2.4483,8.2048,8.2048,0,0,0-.1934-1.25Zm-.8828-3.3711-.3042,2.581a4.4336,4.4336,0,0,1,2.539.2246l.2232-2.538A4.4823,4.4823,0,0,0,43.9444,247.3233Zm-.2593,2.6611.0464.0781Zm.373-3.5635.0454.0782-.0913.5752-.0786.0459a4.8118,4.8118,0,0,1,2.5825.3017l.0772-.7773A5.03,5.03,0,0,0,44.0581,246.4209Zm.2022-.0117-.0347.124q-.0541.4512-.1343.4952c.024-.0811.0557-.2041.1026-.3711l.0215-.3272Zm.0337.6084.0459-.6533.0781-.0449A.8494.8494,0,0,1,44.294,247.0176Zm.2021-.01a1.079,1.079,0,0,0,.0244-.3291,1.0531,1.0531,0,0,1,.0225-.3281l.123.0362A1.6009,1.6009,0,0,1,44.4961,247.0078Zm-.3491-1.1621a1.09,1.09,0,0,1-.022.3282,4.5221,4.5221,0,0,1,2.3784.3134l.1246-.6992a2.7459,2.7459,0,0,0-1.18-.32,2.487,2.487,0,0,0-1.2.0059Q44.09,245.5645,44.147,245.8457Zm.5986,1.2286a2.7907,2.7907,0,0,0,.0562-.4522l-.0112-.2012.08-.0449A1.3607,1.3607,0,0,1,44.7456,247.0743Zm.2823-.0557-.0791.0449a1.0433,1.0433,0,0,0,.021-.3271c.0141-.2178.0507-.3428.1035-.3721A2.1939,2.1939,0,0,1,45.0279,247.0186Zm.2924-.5879.0108.2051c-.044.165-.0791.289-.1006.37l-.08.0439c.022-.0791.0566-.2031.1021-.37l.0219-.3271Zm.1807.3164a1.0083,1.0083,0,0,1-.0225.3262l-.0341-.6074.0786-.0459A1.043,1.043,0,0,0,45.501,246.7471Zm.2476.0674a1.0288,1.0288,0,0,1-.023.3271l-.124-.0341.0679-.2481c.0449-.165.08-.2881.1015-.3711A1.03,1.03,0,0,0,45.7486,246.8145Zm.2031-.0117c-.0459.1679-.0786.292-.1011.373l.0454-.6533.08-.0459A.944.944,0,0,0,45.9517,246.8028Zm3.8354-25.333a8.7748,8.7748,0,0,0-3.1894,3.0244,11.7709,11.7709,0,0,0-1.5415,4.0791,27.12,27.12,0,0,0-.4448,4.44q-.04,2.2236.1416,5.47a45.26,45.26,0,0,1,.0927,6.753l1.0269.1464q.1091-1.6362-.0923-6.0224-.1354-3.1626-.1426-5.4668a29.2212,29.2212,0,0,1,.3374-4.5381,13.4992,13.4992,0,0,1,1.2764-4.0811,6.6517,6.6517,0,0,1,2.6724-2.8359,6.2916,6.2916,0,0,1,1.7133-.666l-.1352-.9707A6.2832,6.2832,0,0,0,49.7871,221.47Zm-3.7339,25.6933.0435-.6533.125.0352-.0439.6543Zm.169.1133a2.6335,2.6335,0,0,1,.1245-.7A.8431.8431,0,0,1,46.2222,247.2764Zm.249.0674-.0791.0459a1.0719,1.0719,0,0,0,.0225-.3252c.0132-.22.0473-.3447.1-.374A2.1161,2.1161,0,0,1,46.4712,247.3438Zm14.3081,1.7656a3.3518,3.3518,0,0,0-1.14.0244l-.0449-.081a4.4547,4.4547,0,0,1,1.06.0234l.3726.1006Zm-.644-2.7744a12.5554,12.5554,0,0,1-.2134,1.2744q-.1911.9507-.293,1.3193a4.7078,4.7078,0,0,1,2.4693.4727l.4272-2.5469A3.9818,3.9818,0,0,0,60.1353,246.335Zm1.6811,3.1221-.1235-.0313-.666-.249a5.7847,5.7847,0,0,1,.958.3955Zm-1.57-4.0225.1245.0342a2.4961,2.4961,0,0,0-.1225.6963l-.125-.0323a5.4217,5.4217,0,0,1,2.5146.5508l.0786-.7773A4.43,4.43,0,0,0,60.2466,245.4346Zm.0791.6875a2.6234,2.6234,0,0,1,.125-.6982l.0449.0791A1.6186,1.6186,0,0,1,60.3257,246.1221Zm.271-.2607-.0669.249a2.5825,2.5825,0,0,1,.1231-.6983l.0444.0782C60.6763,245.5752,60.6426,245.6993,60.5967,245.8614Zm.1812.3173-.0455-.0781a1.6183,1.6183,0,0,1,.169-.623A2.6493,2.6493,0,0,1,60.7779,246.1787Zm-.294-1.6123-.1235.7a5.6829,5.6829,0,0,1,2.3906.5176,2.58,2.58,0,0,0,.1235-.7A4.4627,4.4627,0,0,0,60.4839,244.5664Zm.564,1.3536-.0674.248a2.5469,2.5469,0,0,1,.1235-.7l.0454.0781C61.1275,245.6289,61.0928,245.753,61.0479,245.92Zm.2368-.1358c-.0454.167-.08.291-.1011.3711l.09-.5752.0776-.0449Zm.27-.26-.0229.3272c-.044.167-.0782.292-.1011.37A2.6435,2.6435,0,0,1,61.5547,245.5244Zm.25.0674-.0229.3282q-.07.249-.1006.372l-.1255-.0351.1689-.6182Zm21.4707,14.8409a20.3208,20.3208,0,0,1,2.4341,11.123,26.848,26.848,0,0,1-3.1709,11.3926,23.78,23.78,0,0,0,3.4644-11.2461,22.7443,22.7443,0,0,0-2.3335-11.4951ZM61.9483,246.0313a.9584.9584,0,0,1-.0215.3271l-.1236-.0312.169-.6221A1.1373,1.1373,0,0,0,61.9483,246.0313Zm.1025.36.0469-.6543.1225.0323A1.5527,1.5527,0,0,1,62.0508,246.3916Zm.3164-.1816-.0669.249-.126-.0322.1695-.62.1245.0342C62.4468,245.9219,62.4116,246.0469,62.3672,246.21Zm-.99-25.7168.2827.6777a6.11,6.11,0,0,1,2.4243.3965,3.2436,3.2436,0,0,1,1.67,1.4522,8.4862,8.4862,0,0,1,1.0772,6.1884,39.0892,39.0892,0,0,1-2.8994,7.8389,30.878,30.878,0,0,0-2.7276,7.3145l1.0728.2265a33.358,33.358,0,0,1,2.7924-7.5654,40.8081,40.8081,0,0,0,2.9517-8.0244,8.4135,8.4135,0,0,0-1.0166-6.17,6.8494,6.8494,0,0,0-2.4473-2.2686q-1.7724-1.078-2.8745-.4482A.6214.6214,0,0,0,61.3775,220.4932Zm1.0913,26.0791-.0449-.0781.0888-.5733.0806-.0468A2.7229,2.7229,0,0,1,62.4688,246.5723Zm.2251-.3379c-.0454.167-.0791.291-.1.3711l-.08.0469a2.6819,2.6819,0,0,0,.1235-.7l.1241.0322Zm-9.5074-25.8711a2.2315,2.2315,0,0,0,.8858,2.0039l.0337-.1211a1.9066,1.9066,0,0,1-.4385-.5869q-.8584-1.5.0317-2.3232l-.0449-.0782A1.1511,1.1511,0,0,0,53.1865,220.3633ZM74.895,252.5557l-.1464.293a24.4588,24.4588,0,0,1,2.7739.8213l-.0112-.2012Zm4.354,3.583-.3281-.0215-.7427,2.7295a1.0819,1.0819,0,0,0,.3267.0215,1.0887,1.0887,0,0,1,.3276.0225Zm-3.812-4.1016-.3159.18,2.5034,1.0821a1.0175,1.0175,0,0,1,.2242-.3389l.1132-.17c-.2783-.1182-.6943-.2979-1.2519-.54-.3071-.1718-.56-.3066-.7554-.4052A1.2722,1.2722,0,0,0,75.437,252.0371Zm2.9649.6075-.1582.0908-.0781.0439-.1138.169-.1587.0918a.949.949,0,0,0-.2749.8877,2.8359,2.8359,0,0,0,.3437,1.0605,1.7789,1.7789,0,0,0,1.4449,1.0606l.0337-.1241c.0283-.4345.1235-.7.2807-.789a2.7649,2.7649,0,0,1-.4844-.6641l-.2265-.3955a6.5224,6.5224,0,0,1-.5181-1.2734Zm2.4038,7.3154a1.98,1.98,0,0,0,1.1616-.35l-.08.0449c-.3227.0469-.53-.0107-.62-.168A1.46,1.46,0,0,0,80.8057,259.96Zm3.0557-1.4326a1.5819,1.5819,0,0,0-.3506.3047,8.07,8.07,0,0,1-.9009.6211l-.3159.1806a5.6575,5.6575,0,0,1-1.2754.52l.272.4736-.272-.4736.0805-.0459.2706.4736-.2261-.3955.0791-.0459.27.4736.0781-.043-.2251-.3945.08-.0469.27.4737.0806-.0449-.271-.4737.0786-.0439a1.0206,1.0206,0,0,0,.3047.3476l.0454.0782-.27-.4717.0781-.0449.27.4726.0772-.0449-.2251-.3926.08-.0469c.1523.2637.2661.4073.35.4287l-.27-.4736a1.31,1.31,0,0,1,.35.4277l.0781-.0449-.271-.4736.0791-.0449.271.4746.0791-.0459-.2715-.4737.0786-.0449.271.4737.0791-.0459a1.261,1.261,0,0,1-.1919-.5176l.27.4736.1587-.0908-.271-.4746a1.3181,1.3181,0,0,1,.3506.4287l.0781-.0439-.27-.4737.0786-.0459.27.4737.0782-.045-.27-.4736.0791-.0449.2715.4736.0327-.124-.2256-.3955.0786-.044.2251.3936.081-.0459-.27-.4717.0787-.0459.27.4736.0791-.0459-.27-.4726.0776-.0449.27.4726.08-.0439-.27-.4737.08-.0459.2256.3946-.1915-.5186.2256.3936.0777-.043-.271-.4736.08-.0459.2709.4736ZM60.4868,219.1182a1.6023,1.6023,0,0,0-.767,1.2246,2.2392,2.2392,0,0,0,.2275,1.4941l.2251.3946.1128-.169a.3662.3662,0,0,1-.2158-.19,2.3521,2.3521,0,0,1-.2647-1.4727,1.48,1.48,0,0,1,.728-1.2021ZM79.8125,255.294a2.1828,2.1828,0,0,0-.2051.7441l.0132.2012,1.85,3.2363.0445.0772a3.09,3.09,0,0,0,.8344-.37,2.717,2.717,0,0,0,.6641-.4854l-.7217-1.2617A8.298,8.298,0,0,1,79.8125,255.294Zm2.3911,4.1806-.0791.0459ZM60.7583,219.5938a.98.98,0,0,0-.5029.8613,1.7763,1.7763,0,0,0,.1982.9863l.1348.2354.0781-.043-.1675-.1113a1.8444,1.8444,0,0,1-.18-1.05,1.0641,1.0641,0,0,1,.519-.9238Zm17.4683,31.0039a8.5239,8.5239,0,0,0,1.0322,3.5449,9.4548,9.4548,0,0,0,2.56,2.83,2.6009,2.6009,0,0,0,3,.4853,2.63,2.63,0,0,0,1.228-2.7988,9,9,0,0,0-1.1411-3.6416,9.1245,9.1245,0,0,0-2.5376-2.789,2.5894,2.5894,0,0,0-2.9771-.4444A2.6679,2.6679,0,0,0,78.2266,250.5977Zm4.8569,7.8525.0889.1553c-.0156.2207-.207.4336-.5747.6445l.1577-.0918a2.1892,2.1892,0,0,0,.97-.8681A.8919.8919,0,0,0,83.0835,258.45Zm2.4561-4.1279a2.1873,2.1873,0,0,1-3.6294,2.0762,7.3719,7.3719,0,0,1-2.2114-2.4033,7.4621,7.4621,0,0,1-.9253-3.0811,2.1778,2.1778,0,0,1,3.6064-2.1162,7.3309,7.3309,0,0,1,3.16,5.5244Zm-6.62-3.335a8.0571,8.0571,0,0,0,.981,2.9971,7.1022,7.1022,0,0,0,2.0591,2.2275,2.0944,2.0944,0,0,0,2.3628.377,2.1859,2.1859,0,0,0,1.03-2.3174,7.1332,7.1332,0,0,0-3.023-5.2881,2.1393,2.1393,0,0,0-2.4409-.3291A2.1128,2.1128,0,0,0,78.92,250.9873Zm3.6309,2.3223q-.4738.2711-.88-.4424c-.2392-.4189-.2026-.7187.1133-.9q.3956-.2256.7554.4043Q82.9471,253.083,82.5508,253.31Zm-.0791-.6875c.15.2627.12.4531-.09.5732-.107.0606-.2471-.0673-.4287-.3847l-.09-.1563q-.2241-.3926.0117-.5293c.1578-.09.3257.0215.5069.336Z"/><path class="cls-47" d="M125.6118,114.7818V120.64l-4.2861-1.6377a1.4057,1.4057,0,0,1-.6924-1.26,1.38,1.38,0,0,1,.63-1.1963Zm1.89,7.2456a.74.74,0,0,0,.3135-.6929v-6.9922a.9444.9444,0,1,0-1.8887,0v6.9922a.7057.7057,0,0,0,.376.6929v16.5073a45.4369,45.4369,0,0,1-.7549,6.3008q-.5046,2.96-.7554,5.1045a35.2737,35.2737,0,0,0-.2529,4.1572,23.22,23.22,0,0,0,.727,6.458q.7208,2.428,1.6055,2.4263.9448,0,1.6377-2.395a24.271,24.271,0,0,0,.6929-6.4893,36.2857,36.2857,0,0,0-.253-4.19q-.2541-2.1732-.6928-5.0718a46.9712,46.9712,0,0,1-.7549-6.3008Zm-.3775-.1275v16.9493a50.4039,50.4039,0,0,0,.7535,6.9321,53.2173,53.2173,0,0,1,.8847,8.0644,26.56,26.56,0,0,1-.6,6.2066q-.5991,2.4236-1.2905,2.4238-.6936,0-1.2944-2.4551a26.7381,26.7381,0,0,1-.5982-6.1753,53.3338,53.3338,0,0,1,.8824-8.0644,50.1981,50.1981,0,0,0,.7573-6.9321V121.8384a.4946.4946,0,0,1-.3164-.5039v-6.9922c0-.42.19-.6328.5693-.6328a.5594.5594,0,0,1,.63.6328v6.9922A.6044.6044,0,0,1,127.124,121.9Zm1.0074-.3154v-7.812l2.52-1.0088a1.2966,1.2966,0,0,1,.6924-.187,1.4,1.4,0,0,1,1.3862,1.3872v7.4336a1.399,1.399,0,0,1-1.3862,1.3867,2.0184,2.0184,0,0,1-.5669-.1269Z"/><path class="cls-47" d="M145.1265,127.2212l1.3174-13.5986a75.31,75.31,0,0,1,.4336,9.0986q-.0668,4.3046-.4336,9.3511l.1123,7.8794a57.4192,57.4192,0,0,0,.3633,8.5786,18.9457,18.9457,0,0,0,.59,3.2256q.2241.2805.8408,0,4.4312-.7017,5.6079,2.356a4.8065,4.8065,0,0,1-.0986,4.2324,3.9746,3.9746,0,0,1-2.6489,2.2441q-1.6252.3362-3.1533-1.4726-1.5309-1.8077-1.6133-6.9112-.3362-2.8337-.6446-5.6782t-.6728-5.7075l-1.2349,11.021q-.561,4.9073-2.1855,6.6582-1.626,1.7526-3.1411,1.4306a3.3715,3.3715,0,0,1-2.3277-2.2294,5.41,5.41,0,0,1,.2242-4.3457q1.1791-2.7759,5.6083-2.1866.6732.2235.8682,0a20.03,20.03,0,0,0,.4214-3.2119q.3369-3.2922.3369-8.0879a32.6063,32.6063,0,0,0,.2373-3.87q.0154-2.1042.1543-4.0371-.2775-5.0464-.2949-9.3364a86.7249,86.7249,0,0,1,.4643-9.0015Zm2.1865,27.9561a9.7391,9.7391,0,0,0,1.08,3.2656,2.176,2.176,0,0,0,2.34,1.3882,3.128,3.128,0,0,0,2.6358-1.9761,5.2873,5.2873,0,0,0-.4473-4.22,2.3919,2.3919,0,0,0-1.9355-1.4731,4.88,4.88,0,0,0-2.1592.0429A2.472,2.472,0,0,0,147.313,155.1773Zm-10.459,2.3545a2.1611,2.1611,0,0,0,1.57,1.5976,2.0781,2.0781,0,0,0,2.2154-.4492,8.3921,8.3921,0,0,0,1.7939-3.0845,4.1672,4.1672,0,0,0,.1138-3.1967q-.761-1.6245-3.8984-.35Q135.51,153.3259,136.854,157.5318Zm8.356-25.01c.2632,0,.3921-.15.3921-.4492,0-.3184-.1289-.4766-.3921-.4766-.2427,0-.3648.1582-.3648.4766C144.8452,132.3716,144.9673,132.5215,145.21,132.5215Z"/><path class="cls-48" d="M49.5371,195.9971a.3741.3741,0,0,1,.4366-.12c.1333.0669.1567.19.0664.37l-8.1377,18.62-1.5855,8.2754q-3.51,9.879-7.749,18.8526a96.8168,96.8168,0,0,1-11.0322,17.7715l-.3687-.1827q5.748-9.5684,10.0361-18.5166t7.97-18.4912l1.6186-8.26-5.8628,6.1562q-5.4485,8.7919-10.04,17.76a207.5042,207.5042,0,0,0-8.5059,18.98l-.5044-.2491a93.3944,93.3944,0,0,1,7.7046-19.7773q4.6656-8.6573,10.3364-17.2129l5.7261-6.2246Z"/><path class="cls-49" d="M135.3936,241.7041v-4.038H122.6167v4.038h-2.68V243.93h18.1348v-2.2256Zm-11.0459-2.4365h9.3139v2.4365h-9.3139Z"/><path class="cls-50" d="M141.3086,241.7041h-.9292v26.459h-22.75v-26.459H116.7a2.1606,2.1606,0,0,0-2.1616,2.1612v31.6152a2.1611,2.1611,0,0,0,2.1616,2.1611h24.6084a2.1611,2.1611,0,0,0,2.1616-2.1611V243.8653A2.1605,2.1605,0,0,0,141.3086,241.7041Z"/><path class="cls-51" d="M121.6411,249.0811a1.1128,1.1128,0,1,1-1.1128-1.1123A1.1121,1.1121,0,0,1,121.6411,249.0811Z"/><rect class="cls-51" x="123.0425" y="247.6983" width="15.7432" height="0.541"/><rect class="cls-51" x="123.0425" y="249.9239" width="15.7432" height="0.541"/><path class="cls-51" d="M121.6411,252.7911a1.1128,1.1128,0,1,1-1.1128-1.1133A1.1126,1.1126,0,0,1,121.6411,252.7911Z"/><rect class="cls-51" x="123.0425" y="251.4082" width="15.7432" height="0.5401"/><rect class="cls-51" x="123.0425" y="253.6338" width="15.7432" height="0.541"/><path class="cls-51" d="M121.6411,256.5a1.1128,1.1128,0,1,1-1.1128-1.1123A1.1126,1.1126,0,0,1,121.6411,256.5Z"/><rect class="cls-51" x="123.0425" y="255.1172" width="15.7432" height="0.541"/><rect class="cls-51" x="123.0425" y="257.3438" width="15.7432" height="0.54"/><path class="cls-51" d="M121.6411,260.209a1.1128,1.1128,0,1,1-1.1128-1.1113A1.1129,1.1129,0,0,1,121.6411,260.209Z"/><rect class="cls-51" x="123.0425" y="258.8272" width="15.7432" height="0.54"/><rect class="cls-51" x="123.0425" y="261.0528" width="15.7432" height="0.541"/><path class="cls-51" d="M121.6411,263.92a1.1128,1.1128,0,1,1-1.1128-1.1133A1.1132,1.1132,0,0,1,121.6411,263.92Z"/><rect class="cls-51" x="123.0425" y="262.5371" width="15.7432" height="0.5401"/><rect class="cls-51" x="123.0425" y="264.7627" width="15.7432" height="0.5401"/><path class="cls-5" d="M243.02,134.31a7.5976,7.5976,0,0,0-2.0234,9.8506l12.0479-9.0528A7.5943,7.5943,0,0,0,243.02,134.31Z"/><path class="cls-5" d="M252.15,146.46a7.5979,7.5979,0,0,0,2.0235-9.8506l-12.0479,9.0537A7.596,7.596,0,0,0,252.15,146.46Z"/><path class="cls-5" d="M229.85,155.6665A5.177,5.177,0,0,0,236.397,157.7l-5.334-8.78A5.1783,5.1783,0,0,0,229.85,155.6665Z"/><path class="cls-5" d="M238.7056,150.2876a5.18,5.18,0,0,0-6.5469-2.0332l5.332,8.7813A5.1787,5.1787,0,0,0,238.7056,150.2876Z"/><path class="cls-5" d="M243.2915,162.2466a4.0924,4.0924,0,0,0,5.1748,1.6074l-4.2158-6.9409A4.0922,4.0922,0,0,0,243.2915,162.2466Z"/><path class="cls-5" d="M250.2915,157.9947a4.0942,4.0942,0,0,0-5.1748-1.6075l4.2149,6.9414A4.0937,4.0937,0,0,0,250.2915,157.9947Z"/><path class="cls-52" d="M202.9849,296.01V284.39a6.0147,6.0147,0,1,1,12.0293,0v11.62a6.0147,6.0147,0,0,1-12.0293,0Zm1.0508-11.62v11.62a4.9644,4.9644,0,0,0,9.9287,0V284.39a4.9644,4.9644,0,1,0-9.9287,0Z"/><path class="cls-52" d="M213.3677,290.8994v4.6231a4.3677,4.3677,0,0,1-8.7354,0v-4.6231Z"/><path class="cls-52" d="M201.9654,294.38l-2.1465,3.708a4.0484,4.0484,0,0,1-7.0078-4.0556l2.1464-3.708Z"/><path class="cls-52" d="M191.2642,293.6582l5.3945-9.3213a5.5784,5.5784,0,0,1,5.7061-2.706v.9873a4.6039,4.6039,0,0,0-4.8633,2.207l-5.3945,9.3213a4.601,4.601,0,0,0,7.9648,4.6084l2.293-3.9638v1.9443l-1.4512,2.5078a5.5746,5.5746,0,1,1-9.6494-5.585Z"/></svg>