<svg id="Layer_1" data-name="Layer 1" xmlns="http://www.w3.org/2000/svg" width="2.1386in" height="2.1959in" viewBox="0 0 153.9766 158.1052"><defs><style>.cls-1{fill:#010101;}.cls-2{fill:#fdb515;}.cls-3{fill:#fff;}.cls-4{fill:#fffbf1;}.cls-5{fill:#f47920;}.cls-6{fill:#48c2c4;}.cls-7{fill:#020202;}</style></defs><path class="cls-1" d="M72.2076,149.3364h-60.59A11.6305,11.6305,0,0,1,0,137.72L7.9947,36.3874A14.9293,14.9293,0,0,1,22.9363,21.57H60.8876a14.9641,14.9641,0,0,1,14.948,14.9448l7.9853,101.0781A11.6515,11.6515,0,0,1,72.2076,149.3364ZM22.9363,24.8315A11.6958,11.6958,0,0,0,11.2517,36.5147L3.2568,137.8477a8.3472,8.3472,0,0,0,8.3611,8.2271h60.59a8.3657,8.3657,0,0,0,8.3563-8.3546L72.5788,36.6421A11.7321,11.7321,0,0,0,60.8876,24.8315Z"/><rect class="cls-2" x="26.1298" y="20.8615" width="31.5655" height="52.0244" rx="8.2978"/><path class="cls-1" d="M43.0172,74.517H40.8067a16.3273,16.3273,0,0,1-16.308-16.3082V35.54A16.3273,16.3273,0,0,1,40.8067,19.232h2.2105A16.3274,16.3274,0,0,1,59.3254,35.54V58.2088A16.3275,16.3275,0,0,1,43.0172,74.517ZM40.8067,22.4935A13.06,13.06,0,0,0,27.76,35.54V58.2088A13.06,13.06,0,0,0,40.8067,71.2554h2.2105A13.0605,13.0605,0,0,0,56.0638,58.2088V35.54A13.0606,13.0606,0,0,0,43.0172,22.4935Z"/><rect class="cls-2" x="26.1298" y="99.7747" width="31.5655" height="52.0244" rx="8.2978"/><path class="cls-1" d="M43.0172,153.43H40.8067a16.3272,16.3272,0,0,1-16.308-16.3082V114.4526a16.3272,16.3272,0,0,1,16.308-16.308h2.2105a16.3274,16.3274,0,0,1,16.3082,16.308v22.6687A16.3274,16.3274,0,0,1,43.0172,153.43Zm-2.2105-52.0233A13.06,13.06,0,0,0,27.76,114.4526v22.6687a13.06,13.06,0,0,0,13.0464,13.0466h2.2105a13.0606,13.0606,0,0,0,13.0466-13.0466V114.4526a13.06,13.06,0,0,0-13.0466-13.0464Z"/><path class="cls-2" d="M58.6158,122.5719C66.3094,114.821,71.359,101.88,71.359,87.207c0-15.8585-5.9049-29.6747-14.6659-37.1188H27.1322c-8.761,7.4441-14.6659,21.26-14.6659,37.1188,0,14.6733,5.0493,27.614,12.743,35.3649Z"/><path class="cls-1" d="M59.2951,124.2023H24.5306l-.4795-.4809c-8.2749-8.3356-13.2153-21.9872-13.2153-36.5148,0-15.6742,5.84-30.3737,15.2411-38.3621l.4571-.3885H57.2917l.4569.3885C67.15,56.836,72.99,71.5357,72.99,87.2066c0,14.5276-4.94,28.1761-13.2153,36.5148Zm-33.3965-3.2616H57.9271c7.4007-7.7813,11.801-20.3309,11.801-33.7341,0-14.4862-5.2142-28.0134-13.6437-35.489H27.7413c-8.43,7.4724-13.6439,21-13.6439,35.489C14.0974,100.6131,18.4979,113.1594,25.8986,120.9407Z"/><path class="cls-3" d="M19.302,79.91a1.6256,1.6256,0,0,1-1.6085-1.9048A47.2522,47.2522,0,0,1,21.288,66.1941,1.63,1.63,0,0,1,24.25,67.5574a44.0276,44.0276,0,0,0-3.3429,10.9951A1.63,1.63,0,0,1,19.302,79.91Z"/><path class="cls-3" d="M25.7728,63.1459a1.6287,1.6287,0,0,1-1.3473-2.5449,32.2754,32.2754,0,0,1,3.8413-4.6855,1.6318,1.6318,0,0,1,2.3092,2.3061,29.0652,29.0652,0,0,0-3.4526,4.2077A1.6294,1.6294,0,0,1,25.7728,63.1459Z"/><path class="cls-4" d="M16.8909,83.846c-.0646,1.0721-.15,2.1364-.15,3.2336,0,12.5429,4.3164,23.605,10.8934,30.2309H56.1912c6.5767-6.6259,10.8932-17.688,10.8932-30.2309,0-1.0972-.0852-2.1615-.15-3.2336Z"/><path class="cls-2" d="M61.7363,33.01V26.4016a13.7646,13.7646,0,0,0-13.7242-13.724H35.813a13.7646,13.7646,0,0,0-13.724,13.724V33.01Z"/><path class="cls-1" d="M63.3673,34.6419H20.4584v-8.24A15.373,15.373,0,0,1,35.8125,11.0461H48.0116A15.3733,15.3733,0,0,1,63.3673,26.4018ZM23.72,31.38H60.1057V26.4018a12.1074,12.1074,0,0,0-12.0941-12.094H35.8125A12.106,12.106,0,0,0,23.72,26.4018Z"/><path class="cls-2" d="M17.74,28.435H66.0859A2.0042,2.0042,0,0,1,68.09,30.4392v3.616A2.0044,2.0044,0,0,1,66.0857,36.06H17.74a2.0044,2.0044,0,0,1-2.0044-2.0044V30.4394A2.0044,2.0044,0,0,1,17.74,28.435Z"/><path class="cls-1" d="M64.5441,37.69H19.28a5.1817,5.1817,0,0,1-5.1758-5.1758v-.5351A5.1817,5.1817,0,0,1,19.28,26.8033H64.5441a5.1819,5.1819,0,0,1,5.176,5.1758v.5351A5.1819,5.1819,0,0,1,64.5441,37.69ZM19.28,30.0649a1.9169,1.9169,0,0,0-1.9142,1.9142v.5351A1.917,1.917,0,0,0,19.28,34.4284H64.5441a1.9171,1.9171,0,0,0,1.9144-1.9142v-.5351a1.917,1.917,0,0,0-1.9144-1.9142Z"/><path class="cls-2" d="M65.7005,152.8154v-7.93a16.5171,16.5171,0,0,0-16.4686-16.4684H34.5932a16.5173,16.5173,0,0,0-16.4685,16.4684v7.93Z"/><path class="cls-1" d="M67.3313,154.4455H16.4944v-9.5587a18.12,18.12,0,0,1,18.0981-18.1013h14.639a18.12,18.12,0,0,1,18.1,18.1013ZM19.756,151.1839H64.07v-6.2971a14.8562,14.8562,0,0,0-14.8382-14.84H34.5925a14.8548,14.8548,0,0,0-14.8365,14.84Z"/><path class="cls-2" d="M12.5048,147.326H71.3205a2.0042,2.0042,0,0,1,2.0042,2.0042v5.1406a2.0044,2.0044,0,0,1-2.0044,2.0044H12.5046A2.0042,2.0042,0,0,1,10.5,154.471V149.33a2.0044,2.0044,0,0,1,2.0044-2.0044Z"/><path class="cls-1" d="M69.779,158.1052H14.0449a5.1817,5.1817,0,0,1-5.1758-5.1758v-2.0577a5.1817,5.1817,0,0,1,5.1758-5.1758H69.779a5.1819,5.1819,0,0,1,5.176,5.1758v2.0577A5.1819,5.1819,0,0,1,69.779,158.1052Zm-55.7341-9.1477a1.917,1.917,0,0,0-1.9142,1.9142v2.0577a1.917,1.917,0,0,0,1.9142,1.9142H69.779a1.9172,1.9172,0,0,0,1.9144-1.9142v-2.0577a1.9172,1.9172,0,0,0-1.9144-1.9142Z"/><polygon class="cls-2" points="41.913 1.853 54.46 8.648 67.008 15.444 41.913 15.444 16.817 15.444 29.365 8.648 41.913 1.853"/><path class="cls-1" d="M73.442,17.0756H10.3837L41.9119,0Zm-50.19-3.2616H60.5739L41.9119,3.7075Z"/><path class="cls-3" d="M41.0027,21.2515H28.9452a1.6308,1.6308,0,0,1,0-3.2616H41.0027a1.6308,1.6308,0,1,1,0,3.2616Z"/><path class="cls-3" d="M52.6189,21.2515H47.7966a1.6308,1.6308,0,0,1,0-3.2616h4.8223a1.6308,1.6308,0,0,1,0,3.2616Z"/><path class="cls-3" d="M22.5893,152.114H15.136a1.6308,1.6308,0,1,1,0-3.2616h7.4533a1.6308,1.6308,0,0,1,0,3.2616Z"/><path class="cls-3" d="M64.2368,152.114H28.2875a1.6308,1.6308,0,0,1,0-3.2616H64.2368a1.6308,1.6308,0,1,1,0,3.2616Z"/><path class="cls-1" d="M57.1812,117.3841c-.2275-5.2272-6.7751-9.4258-14.8634-9.4258s-14.6361,4.1986-14.8636,9.4258Z"/><path class="cls-1" d="M40.5157,98.8979H44.12a1.9977,1.9977,0,0,1,1.9977,1.9977v8.28a1.9977,1.9977,0,0,1-1.9977,1.9977H40.5157a1.9976,1.9976,0,0,1-1.9976-1.9976v-8.28A1.9976,1.9976,0,0,1,40.5157,98.8979Z"/><path class="cls-5" d="M53.4221,80.5274s.5054,3.9168-3.1587,4.6748c0,0,.5054-14.1507-10.6129-19.331a14.4839,14.4839,0,0,1,2.527,6.9492A13.1538,13.1538,0,0,1,37.629,83.9387s0-5.5591-2.2742-7.5809c0,0,1.6424,5.5594-2.2743,9.2233a18.912,18.912,0,0,0-2.9613,4.1359,7.9477,7.9477,0,0,0-1.7135,4.8346c0,5.4429,5.9395,9.8551,13.2663,9.8551,6.4738,0,11.8569-3.4466,13.0243-8.0032C55.385,94.8649,58.3982,87.2,53.4221,80.5274Z"/><path class="cls-6" d="M54.6963,96.4035c.6887-1.5387,3.7019-9.2037-1.274-15.8763,0,0,.5052,3.9168-3.1587,4.675,0,0,.5054-14.1509-10.6131-19.331a14.4827,14.4827,0,0,1,2.527,6.9492A13.1533,13.1533,0,0,1,37.629,83.9385s0-5.5591-2.2742-7.5807c0,0,1.6424,5.5594-2.2743,9.2233a18.912,18.912,0,0,0-2.9613,4.1359,7.9476,7.9476,0,0,0-1.7134,4.8346,7.6427,7.6427,0,0,0,.8962,3.5393c-.0435-2.8242.6424-7.2288,5.042-8.9719,0,0-1.2635,4.2957,4.4221,8.465,0,0-3.1587-7.4544,1.7688-11.1183,0,0-1.0107,3.6639,2.2741,7.8333a6.1739,6.1739,0,0,1,3.1587-6.8226,8.64,8.64,0,0,0,1.1372,6.9489,8.2987,8.2987,0,0,1,4.0431-5.18s3.2737,3.6674,2.08,10.1254A8.3808,8.3808,0,0,0,54.6963,96.4035Z"/><path class="cls-3" d="M44.0063,74.7176a1.63,1.63,0,0,1-1.6212-1.4714,8.4552,8.4552,0,0,0-.4413-1.9653,1.631,1.631,0,0,1,3.0769-1.083,11.7567,11.7567,0,0,1,.61,2.73,1.6321,1.6321,0,0,1-1.4619,1.7837C44.1129,74.7145,44.0588,74.7176,44.0063,74.7176Z"/><path class="cls-3" d="M41.0265,85.0025a1.6316,1.6316,0,0,1-1.2325-2.701,12.0775,12.0775,0,0,0,2.4668-5.488,1.6309,1.6309,0,1,1,3.2266.4778A15.22,15.22,0,0,1,42.25,84.4451,1.6151,1.6151,0,0,1,41.0265,85.0025Z"/><path class="cls-2" d="M107.6028,141.6273,106.319,52.5851a9.8635,9.8635,0,0,1,9.6918-9.9752l15.12-.218a9.8634,9.8634,0,0,1,9.9753,9.6916l1.2838,89.0423a9.8633,9.8633,0,0,1-9.6917,9.975l-15.12.2182A9.8635,9.8635,0,0,1,107.6028,141.6273Z"/><path class="cls-1" d="M141.058,143.8319a19.0219,19.0219,0,0,1-35.1953-9.7406l-1.0652-73.9232a19.0253,19.0253,0,0,1,38.0466-.548l1.0688,73.9232A18.9189,18.9189,0,0,1,141.058,143.8319Zm-33.5644-9.764,1.6309-.0233a15.7649,15.7649,0,0,0,31.5266-.4546l-1.0687-73.9235a15.7632,15.7632,0,1,0-31.5231.4551l1.0652,73.923Z"/><path class="cls-3" d="M107.4,127.5444l.094,6.5226a17.3952,17.3952,0,1,0,34.7868-.5015l-.0941-6.5226Z"/><path class="cls-1" d="M141.072,143.7974a19.29,19.29,0,0,1-2.553,3.2624,19.0042,19.0042,0,0,1-32.6555-12.97l-.1157-8.1521,38.0437-.55.1187,8.1537A18.8363,18.8363,0,0,1,141.072,143.7974Zm-32.0187-14.646.072,4.892a15.7632,15.7632,0,0,0,31.5231-.4551l-.0693-4.89Z"/><path class="cls-2" d="M95.7405,34.2037a24.6773,24.6773,0,0,0-.9042,6.9323l.09,6.226a24.98,24.98,0,0,0,25.263,24.5448l7.61-.11a24.98,24.98,0,0,0,24.5447-25.263l-.09-6.226a24.671,24.671,0,0,0-1.1037-6.9033Z"/><path class="cls-1" d="M150.0174,60.81a26.9884,26.9884,0,0,1-3.566,4.5546,26.363,26.363,0,0,1-18.6293,8.0628l-7.6072.1112A26.5719,26.5719,0,0,1,93.2942,47.3848L93.207,41.16a26.22,26.22,0,0,1,.963-7.39l.3266-1.177,57.8536-.834.358,1.1676a26.2863,26.2863,0,0,1,1.176,7.3578l.09,6.227A26.2712,26.2712,0,0,1,150.0174,60.81ZM97.0194,35.8167a22.5468,22.5468,0,0,0-.55,5.295l.0863,6.2267a23.302,23.302,0,0,0,23.61,22.9373l7.6074-.1113a23.3473,23.3473,0,0,0,22.9392-23.6067l-.09-6.2269a22.93,22.93,0,0,0-.703-5.2769Z"/><path class="cls-5" d="M152.2636,41l-.01-.692a24.6788,24.6788,0,0,0-1.1037-6.9033l-55.41.799a24.6772,24.6772,0,0,0-.904,6.9323l.01.6917Z"/><path class="cls-7" d="M153.9211,42.6081l-60.6841.8746-.0291-2.3246A26.1833,26.1833,0,0,1,94.17,33.77l.3266-1.177,57.8552-.8367.36,1.1708a26.4545,26.4545,0,0,1,1.1724,7.3573Zm-57.446-2.4344,54.1139-.7788a23.074,23.074,0,0,0-.67-4.341l-52.9.7628A22.7361,22.7361,0,0,0,96.4751,40.1737Z"/><path class="cls-2" d="M120.722,78.1018h7.0885a4.61,4.61,0,0,1,4.61,4.61V98.7692a4.61,4.61,0,0,1-4.61,4.61h-7.088a4.61,4.61,0,0,1-4.61-4.61V82.7116A4.61,4.61,0,0,1,120.722,78.1018Z" transform="translate(-1.2935 1.7985) rotate(-0.8249)"/><path class="cls-1" d="M132.6554,100.3573a10.0076,10.0076,0,0,1-1.3139,1.6792,9.7756,9.7756,0,0,1-16.7955-6.6706l-.13-8.9687a9.7853,9.7853,0,0,1,19.5685-.2824l.1293,8.9689A9.6839,9.6839,0,0,1,132.6554,100.3573ZM118.6564,82.822a6.493,6.493,0,0,0-.9782,3.5285l.1294,8.9688a6.5232,6.5232,0,0,0,13.045-.1891l-.13-8.9687a6.5221,6.5221,0,0,0-12.0667-3.34Z"/><path class="cls-6" d="M123.1483,82.3828h2.2151a1.4407,1.4407,0,0,1,1.4407,1.4407V96.231a1.44,1.44,0,0,1-1.44,1.44h-2.2153a1.4406,1.4406,0,0,1-1.4406-1.4406V83.8232a1.44,1.44,0,0,1,1.44-1.44Z" transform="translate(-1.2844 1.7999) rotate(-0.8257)"/><path class="cls-3" d="M108.2007,63.671a1.8185,1.8185,0,0,1-.2114.2737,1.6315,1.6315,0,0,1-2.3055.0408,26.6776,26.6776,0,0,1-7.8-14.8559,1.63,1.63,0,1,1,3.2184-.52,23.42,23.42,0,0,0,6.8433,13.0277A1.63,1.63,0,0,1,108.2007,63.671Z"/><path class="cls-3" d="M100.5349,44.2554a1.6312,1.6312,0,0,1-3.0168-.8363l-.0613-4.36a1.6311,1.6311,0,0,1,3.2619-.0466l.0611,4.36A1.6215,1.6215,0,0,1,100.5349,44.2554Z"/></svg>