<svg id="Layer_1" data-name="Layer 1" xmlns="http://www.w3.org/2000/svg" width="2.4519in" height="2.3909in" viewBox="0 0 176.5388 172.1429"><defs><style>.cls-1{fill:#fdb515;}.cls-2{fill:#010101;}.cls-3{fill:#fff;}.cls-4{fill:#f47920;}.cls-5{fill:#48c2c4;}</style></defs><path class="cls-1" d="M23.5617,56.2732H41.0978a2.19,2.19,0,0,1,2.19,2.19V76a2.19,2.19,0,0,1-2.19,2.19H23.5615a2.19,2.19,0,0,1-2.19-2.19V58.4636A2.19,2.19,0,0,1,23.5617,56.2732Z"/><path class="cls-2" d="M39.4141,80.2315H25.2456a5.9229,5.9229,0,0,1-5.9168-5.9148V60.1483a5.9238,5.9238,0,0,1,5.9168-5.919H39.4141a5.9238,5.9238,0,0,1,5.9168,5.919V74.3167A5.9229,5.9229,0,0,1,39.4141,80.2315ZM25.2456,58.3162a1.8329,1.8329,0,0,0-1.83,1.8321V74.3167a1.8294,1.8294,0,0,0,1.83,1.8279H39.4141a1.8294,1.8294,0,0,0,1.83-1.8279V60.1483a1.8329,1.8329,0,0,0-1.83-1.8321Z"/><rect class="cls-1" x="2.0441" y="64.0501" width="172.4517" height="106.048" rx="10.3974"/><path class="cls-2" d="M156.1042,172.1429H20.4344A20.4587,20.4587,0,0,1,0,151.7082V82.4426A20.4584,20.4584,0,0,1,20.4344,62.008h135.67a20.4586,20.4586,0,0,1,20.4346,20.4346v69.2656A20.4588,20.4588,0,0,1,156.1042,172.1429ZM20.4344,66.0949A16.3651,16.3651,0,0,0,4.0869,82.4426v69.2656A16.3651,16.3651,0,0,0,20.4344,168.056h135.67a16.3651,16.3651,0,0,0,16.3477-16.3478V82.4426a16.3651,16.3651,0,0,0-16.3477-16.3477Z"/><path class="cls-3" d="M9.399,97.9281a2.0422,2.0422,0,0,1-2.0434-2.0434V82.722a2.0435,2.0435,0,1,1,4.0869,0V95.8847A2.0424,2.0424,0,0,1,9.399,97.9281Z"/><path class="cls-3" d="M9.399,129.2863a2.0423,2.0423,0,0,1-2.0434-2.0435v-22.067a2.0435,2.0435,0,0,1,4.0869,0v22.067A2.0425,2.0425,0,0,1,9.399,129.2863Z"/><rect class="cls-3" x="24.9947" y="75.7153" width="86.9594" height="15.9071"/><rect class="cls-4" x="129.9821" y="75.7153" width="20.3258" height="15.9071"/><circle class="cls-2" cx="29.2366" cy="106.9995" r="3.1814"/><path class="cls-2" d="M32.418,121.8461a3.1814,3.1814,0,1,1-3.1814-3.1814A3.1814,3.1814,0,0,1,32.418,121.8461Z"/><circle class="cls-2" cx="29.2366" cy="136.6929" r="3.1814"/><path class="cls-2" d="M32.418,151.54a3.1814,3.1814,0,1,1-3.1814-3.1813A3.1814,3.1814,0,0,1,32.418,151.54Z"/><path class="cls-2" d="M48.3254,107a3.1815,3.1815,0,1,1-3.1816-3.1814A3.1816,3.1816,0,0,1,48.3254,107Z"/><path class="cls-2" d="M48.3254,121.8461a3.1815,3.1815,0,1,1-3.1816-3.1814A3.1816,3.1816,0,0,1,48.3254,121.8461Z"/><path class="cls-2" d="M48.3254,136.6929a3.1815,3.1815,0,1,1-3.1816-3.1813A3.1816,3.1816,0,0,1,48.3254,136.6929Z"/><path class="cls-2" d="M48.3254,151.54a3.1815,3.1815,0,1,1-3.1816-3.1813A3.1817,3.1817,0,0,1,48.3254,151.54Z"/><path class="cls-2" d="M64.2325,107a3.1815,3.1815,0,1,1-3.1814-3.1814A3.1814,3.1814,0,0,1,64.2325,107Z"/><path class="cls-2" d="M64.2325,121.8461a3.1815,3.1815,0,1,1-3.1814-3.1814A3.1815,3.1815,0,0,1,64.2325,121.8461Z"/><path class="cls-2" d="M64.2325,136.6929a3.1815,3.1815,0,1,1-3.1814-3.1813A3.1814,3.1814,0,0,1,64.2325,136.6929Z"/><path class="cls-2" d="M64.2325,151.54a3.1815,3.1815,0,1,1-3.1814-3.1813A3.1816,3.1816,0,0,1,64.2325,151.54Z"/><circle class="cls-2" cx="76.9583" cy="106.9995" r="3.1814"/><path class="cls-2" d="M80.14,121.8461a3.1814,3.1814,0,1,1-3.1814-3.1814A3.1816,3.1816,0,0,1,80.14,121.8461Z"/><circle class="cls-2" cx="76.9583" cy="136.6929" r="3.1814"/><path class="cls-2" d="M80.14,151.54a3.1814,3.1814,0,1,1-3.1814-3.1813A3.1816,3.1816,0,0,1,80.14,151.54Z"/><circle class="cls-2" cx="92.8654" cy="106.9995" r="3.1814"/><path class="cls-2" d="M96.0468,121.8461a3.1814,3.1814,0,1,1-3.1814-3.1814A3.1814,3.1814,0,0,1,96.0468,121.8461Z"/><circle class="cls-2" cx="92.8654" cy="136.6929" r="3.1814"/><path class="cls-2" d="M96.0468,151.54a3.1814,3.1814,0,1,1-3.1814-3.1813A3.1814,3.1814,0,0,1,96.0468,151.54Z"/><path class="cls-2" d="M111.9542,107a3.1815,3.1815,0,1,1-3.1816-3.1814A3.1816,3.1816,0,0,1,111.9542,107Z"/><path class="cls-2" d="M111.9542,121.8461a3.1815,3.1815,0,1,1-3.1816-3.1814A3.1816,3.1816,0,0,1,111.9542,121.8461Z"/><path class="cls-2" d="M111.9542,136.6929a3.1815,3.1815,0,1,1-3.1816-3.1813A3.1816,3.1816,0,0,1,111.9542,136.6929Z"/><path class="cls-2" d="M111.9542,151.54a3.1815,3.1815,0,1,1-3.1816-3.1813A3.1817,3.1817,0,0,1,111.9542,151.54Z"/><circle class="cls-2" cx="144.9172" cy="128.4741" r="16.6142"/><circle class="cls-3" cx="144.9172" cy="128.4741" r="13.2914"/><rect class="cls-2" x="143.4406" y="112.9676" width="2.9536" height="8.4917"/><rect class="cls-2" x="25.7272" y="74.7904" width="2.9538" height="4.2458"/><rect class="cls-2" x="35.0594" y="74.7904" width="2.9536" height="4.2458"/><rect class="cls-2" x="44.3917" y="74.7904" width="2.9536" height="4.2458"/><rect class="cls-2" x="53.724" y="74.7904" width="2.9536" height="4.2458"/><rect class="cls-2" x="63.0562" y="74.7904" width="2.9536" height="4.2458"/><rect class="cls-2" x="72.3883" y="74.7904" width="2.9538" height="4.2458"/><rect class="cls-2" x="81.7205" y="74.7904" width="2.9536" height="4.2458"/><rect class="cls-2" x="91.0528" y="74.7904" width="2.9536" height="4.2458"/><rect class="cls-2" x="100.3851" y="74.7904" width="2.9536" height="4.2458"/><rect class="cls-5" x="100.3851" y="89.1462" width="2.9536" height="4.2458"/><rect class="cls-2" x="109.7173" y="74.7904" width="2.9536" height="4.2458"/><path class="cls-2" d="M33.4813,57.61a2.043,2.043,0,0,1-.838-3.9074L126.76,11.5484a2.0428,2.0428,0,1,1,1.6721,3.7278L34.3154,57.43A2.0086,2.0086,0,0,1,33.4813,57.61Z"/><path class="cls-1" d="M125.1715,7.2259h12.6261a1.6881,1.6881,0,0,1,1.6881,1.6881V13.58a1.6883,1.6883,0,0,1-1.6883,1.6883h-12.626a1.6881,1.6881,0,0,1-1.6881-1.6881V8.9141a1.6882,1.6882,0,0,1,1.6882-1.6882Z" transform="translate(6.7052 54.198) rotate(-23.8834)"/><path class="cls-2" d="M127.3183,19.2552a5.0444,5.0444,0,0,1-4.6-2.9973l-.838-1.8918a5.0249,5.0249,0,0,1,2.5642-6.6331l9.17-4.0631A5.0361,5.0361,0,0,1,140.25,6.2362l.8383,1.8919a5.0338,5.0338,0,0,1-2.5624,6.6331L129.3539,18.82A4.9647,4.9647,0,0,1,127.3183,19.2552Zm8.3295-11.9293a.98.98,0,0,0-.3791.08l-9.17,4.0631a.9422.9422,0,0,0-.4808,1.2451l.838,1.8919a.9334.9334,0,0,0,.5229.4988.985.985,0,0,0,.7183-.02l9.1756-4.0592A.9454.9454,0,0,0,137.35,9.78l-.8362-1.8918A.9527.9527,0,0,0,135.6478,7.3259Z"/></svg>