<?xml version="1.0" encoding="utf-8"?>
<!-- Generator: Adobe Illustrator 24.1.2, SVG Export Plug-In . SVG Version: 6.00 Build 0)  -->
<svg version="1.1" id="Layer_1" xmlns="http://www.w3.org/2000/svg" xmlns:xlink="http://www.w3.org/1999/xlink" x="0px" y="0px"
	 viewBox="0 0 244.9 52.1" style="enable-background:new 0 0 244.9 52.1;" xml:space="preserve">
<style type="text/css">
	.st0{fill:#FCF499;}
	.st1{fill:#A4DCE6;}
	.st2{enable-background:new    ;}
	.st3{fill:#EC8BBA;}
</style>
<rect x="12.4" y="12.8" class="st0" width="232.6" height="39.3"/>
<rect class="st1" width="232.9" height="40.1"/>
<g class="st2">
	<path class="st3" d="M54.4,31.7v-4.5c0.8,0.7,1.7,1.2,2.7,1.6s1.9,0.5,2.9,0.5c0.6,0,1.1-0.1,1.5-0.2c0.4-0.1,0.8-0.2,1.1-0.4
		c0.3-0.2,0.5-0.4,0.6-0.7s0.2-0.5,0.2-0.8c0-0.4-0.1-0.8-0.3-1.1c-0.2-0.3-0.5-0.6-0.9-0.9c-0.4-0.3-0.9-0.5-1.4-0.8
		S59.6,24,59,23.7c-1.6-0.7-2.8-1.5-3.5-2.4c-0.8-1-1.2-2.1-1.2-3.5c0-1.1,0.2-2,0.6-2.7s1-1.4,1.7-1.9c0.7-0.5,1.6-0.9,2.5-1.1
		s2-0.3,3.1-0.3c1.1,0,2,0.1,2.8,0.2c0.8,0.1,1.6,0.3,2.3,0.6v4.2c-0.3-0.2-0.7-0.4-1.1-0.6c-0.4-0.2-0.8-0.3-1.2-0.4
		s-0.8-0.2-1.3-0.3c-0.4-0.1-0.8-0.1-1.2-0.1c-0.5,0-1,0-1.4,0.1c-0.4,0.1-0.8,0.2-1.1,0.4s-0.5,0.4-0.7,0.6s-0.2,0.5-0.2,0.8
		c0,0.3,0.1,0.6,0.3,0.9c0.2,0.3,0.4,0.5,0.8,0.8c0.3,0.2,0.7,0.5,1.2,0.7s1,0.5,1.6,0.7c0.8,0.3,1.5,0.7,2.2,1.1
		c0.6,0.4,1.2,0.8,1.7,1.3s0.8,1,1.1,1.6s0.4,1.3,0.4,2.2c0,1.1-0.2,2.1-0.6,2.9c-0.4,0.8-1,1.4-1.7,1.9s-1.6,0.8-2.6,1
		c-1,0.2-2,0.3-3.1,0.3c-1.1,0-2.2-0.1-3.2-0.3C56,32.3,55.1,32.1,54.4,31.7z"/>
	<path class="st3" d="M84.9,32.5h-4.5v-2.2h-0.1c-1.1,1.7-2.6,2.6-4.4,2.6c-3.4,0-5-2-5-6.1V18h4.5v8.4c0,2,0.8,3.1,2.4,3.1
		c0.8,0,1.4-0.3,1.9-0.8s0.7-1.3,0.7-2.3V18h4.5V32.5z"/>
	<path class="st3" d="M93.2,30.8L93.2,30.8l-0.1,1.7h-4.5V11h4.5v9.1h0.1c1.1-1.7,2.7-2.5,4.7-2.5c1.9,0,3.3,0.6,4.3,1.9
		c1,1.3,1.5,3,1.5,5.3c0,2.4-0.6,4.4-1.8,5.8s-2.8,2.2-4.7,2.2C95.5,32.8,94.1,32.1,93.2,30.8z M93.1,24.7v1.5
		c0,0.9,0.3,1.7,0.8,2.3s1.2,0.9,2.1,0.9c1,0,1.8-0.4,2.4-1.2c0.6-0.8,0.8-1.9,0.8-3.3c0-1.2-0.3-2.1-0.8-2.8c-0.5-0.7-1.2-1-2.2-1
		c-0.9,0-1.6,0.3-2.2,1C93.4,22.7,93.1,23.6,93.1,24.7z"/>
	<path class="st3" d="M105.7,32.1v-3.6c0.7,0.4,1.5,0.8,2.2,1c0.7,0.2,1.4,0.3,2.1,0.3c0.8,0,1.4-0.1,1.9-0.3c0.5-0.2,0.7-0.5,0.7-1
		c0-0.3-0.1-0.5-0.3-0.7c-0.2-0.2-0.5-0.4-0.8-0.5c-0.3-0.1-0.7-0.3-1.1-0.4s-0.8-0.2-1.1-0.4c-0.6-0.2-1.1-0.5-1.5-0.7
		c-0.4-0.3-0.8-0.5-1.1-0.9c-0.3-0.3-0.5-0.7-0.7-1.1c-0.2-0.4-0.2-0.9-0.2-1.5c0-0.8,0.2-1.5,0.5-2.1c0.4-0.6,0.8-1.1,1.4-1.4
		c0.6-0.4,1.3-0.6,2-0.8c0.8-0.2,1.6-0.3,2.4-0.3c0.6,0,1.3,0,2,0.1c0.7,0.1,1.3,0.2,2,0.4v3.5c-0.6-0.3-1.2-0.6-1.8-0.7
		c-0.6-0.2-1.3-0.2-1.9-0.2c-0.3,0-0.6,0-0.8,0.1c-0.3,0.1-0.5,0.1-0.7,0.2c-0.2,0.1-0.4,0.2-0.5,0.4c-0.1,0.2-0.2,0.3-0.2,0.5
		c0,0.3,0.1,0.5,0.3,0.7s0.4,0.4,0.7,0.5s0.6,0.3,0.9,0.4c0.3,0.1,0.7,0.2,1,0.3c0.6,0.2,1.1,0.4,1.6,0.7s0.9,0.5,1.2,0.9
		c0.3,0.3,0.6,0.7,0.8,1.2c0.2,0.4,0.3,1,0.3,1.6c0,0.9-0.2,1.6-0.6,2.2c-0.4,0.6-0.9,1.1-1.5,1.5c-0.6,0.4-1.3,0.7-2.1,0.8
		c-0.8,0.2-1.6,0.3-2.5,0.3C108.6,32.8,107.1,32.6,105.7,32.1z"/>
	<path class="st3" d="M130.4,31.9c-1,0.6-2.5,0.9-4.4,0.9c-2.2,0-4-0.7-5.4-2s-2.1-3.1-2.1-5.2c0-2.5,0.7-4.4,2.2-5.8
		c1.5-1.4,3.5-2.1,5.9-2.1c1.7,0,2.9,0.2,3.7,0.7v3.8c-0.9-0.7-2-1-3.1-1c-1.3,0-2.3,0.4-3.1,1.1c-0.8,0.8-1.1,1.8-1.1,3.1
		c0,1.3,0.4,2.3,1.1,3c0.7,0.7,1.7,1.1,3,1.1c1.1,0,2.2-0.3,3.3-1V31.9z"/>
	<path class="st3" d="M142.8,22c-0.5-0.3-1.2-0.4-1.9-0.4c-1,0-1.7,0.4-2.3,1.1c-0.5,0.7-0.8,1.7-0.8,2.9v6.9h-4.5V18h4.5v2.7h0.1
		c0.7-2,2-2.9,3.8-2.9c0.5,0,0.8,0.1,1.1,0.2V22z"/>
	<path class="st3" d="M147.2,15.7c-0.8,0-1.4-0.2-1.9-0.7s-0.7-1-0.7-1.6c0-0.7,0.2-1.2,0.7-1.6s1.1-0.6,1.9-0.6
		c0.8,0,1.4,0.2,1.9,0.6c0.5,0.4,0.7,1,0.7,1.6c0,0.7-0.2,1.2-0.7,1.7C148.5,15.5,147.9,15.7,147.2,15.7z M149.4,32.5h-4.5V18h4.5
		V32.5z"/>
	<path class="st3" d="M157.7,30.8L157.7,30.8l-0.1,1.7h-4.5V11h4.5v9.1h0.1c1.1-1.7,2.7-2.5,4.7-2.5c1.9,0,3.3,0.6,4.3,1.9
		c1,1.3,1.5,3,1.5,5.3c0,2.4-0.6,4.4-1.8,5.8c-1.2,1.5-2.8,2.2-4.7,2.2C159.9,32.8,158.6,32.1,157.7,30.8z M157.5,24.7v1.5
		c0,0.9,0.3,1.7,0.8,2.3s1.2,0.9,2.1,0.9c1,0,1.8-0.4,2.4-1.2c0.6-0.8,0.8-1.9,0.8-3.3c0-1.2-0.3-2.1-0.8-2.8s-1.2-1-2.2-1
		c-0.9,0-1.6,0.3-2.2,1C157.8,22.7,157.5,23.6,157.5,24.7z"/>
	<path class="st3" d="M184.1,26.5h-9.5c0.2,2.1,1.5,3.2,4,3.2c1.6,0,3-0.4,4.2-1.1v3.2c-1.3,0.7-3.1,1.1-5.2,1.1
		c-2.3,0-4.2-0.6-5.5-1.9c-1.3-1.3-1.9-3.1-1.9-5.4c0-2.4,0.7-4.3,2.1-5.7c1.4-1.4,3.1-2.1,5.2-2.1c2.1,0,3.8,0.6,4.9,1.9
		c1.2,1.3,1.7,3,1.7,5.1V26.5z M180,23.7c0-2.1-0.8-3.1-2.5-3.1c-0.7,0-1.3,0.3-1.9,0.9c-0.5,0.6-0.8,1.3-1,2.2H180z"/>
</g>
</svg>
