<svg xmlns="http://www.w3.org/2000/svg" width="2.0635in" height="2.5198in" viewBox="0 0 148.5714 181.4286"><defs><style>.cls-1{isolation:isolate;}.cls-2{fill:#ddd7ce;}.cls-3{mix-blend-mode:soft-light;}.cls-4{fill:#f1f2f2;}.cls-5{fill:#625a55;}.cls-6{fill:#ee6965;}.cls-7{fill:#d7952a;}.cls-8{fill:#fbb938;}</style></defs><g class="cls-1"><g id="Layer_1" data-name="Layer 1"><path class="cls-2" d="M61.2113,8.9769,18.5494,31.4993a13.2486,13.2486,0,0,0-5.5311,17.9013l1.6576,3.1374,21.1014-11.14,18.422-9.7255a16.7965,16.7965,0,0,0,7.012-22.6952Z"/><g class="cls-3"><path class="cls-4" d="M61.2113,8.9769,18.5494,31.4993a13.2477,13.2477,0,0,0-5.5311,17.9l1.6576,3.1384,7.3491-3.88-.9739-1.8458a10.1388,10.1388,0,0,1,4.2332-13.7008l32.653-17.2387A12.8159,12.8159,0,0,1,55.94,30.5994,16.79,16.79,0,0,0,61.2113,8.9769Z"/></g><path class="cls-5" d="M13.4237,56.59l-3.0573-5.7883a16.2668,16.2668,0,0,1,6.7813-21.9539L62.4644,4.9243l1.3993,2.6519A19.8194,19.8194,0,0,1,55.6,34.3249ZM59.6682,13.1831,19.9491,34.1522A10.2587,10.2587,0,0,0,15.6721,48l.2549.4856L52.7991,29.02A13.8209,13.8209,0,0,0,59.6682,13.1831Z"/><path class="cls-6" d="M22.8409,111.9642h0A12.1876,12.1876,0,0,1,10.801,99.63L11.49,42.6267a12.1885,12.1885,0,0,1,12.3344-12.04h0a12.1885,12.1885,0,0,1,12.04,12.3348l-.6887,57.0036A12.1876,12.1876,0,0,1,22.8409,111.9642Z"/><g class="cls-3"><path class="cls-4" d="M27.5646,109.442A10.7732,10.7732,0,0,1,16.923,98.5392l.6087-50.385a10.7348,10.7348,0,0,1,18.1092-7.71,12.191,12.191,0,0,0-11.8164-9.8583h0A12.1885,12.1885,0,0,0,11.49,42.6267L10.801,99.63a12.1882,12.1882,0,0,0,12.04,12.3338h0a12.0987,12.0987,0,0,0,8.2149-3.107A10.6615,10.6615,0,0,1,27.5646,109.442Z"/></g><path class="cls-5" d="M22.8052,114.964a15.2055,15.2055,0,0,1-15.004-15.37L8.49,42.5905a15.188,15.188,0,0,1,30.3738.3669L38.175,99.9611A15.2051,15.2051,0,0,1,22.8052,114.964Zm.9831-81.3778a9.1986,9.1986,0,0,0-9.3,9.0767L13.8,99.6666a9.189,9.189,0,0,0,18.3767.222l.6886-57.0037A9.1984,9.1984,0,0,0,23.7883,33.5862Z"/><path class="cls-6" d="M27.4721,44.0182a3.81,3.81,0,1,0-3.8558,3.7632A3.81,3.81,0,0,0,27.4721,44.0182Z"/><path class="cls-5" d="M23.5986,49.2813a5.31,5.31,0,1,1,5.3724-5.245A5.3156,5.3156,0,0,1,23.5986,49.2813Zm.0921-7.6186A2.31,2.31,0,1,0,25.9722,44,2.3119,2.3119,0,0,0,23.6907,41.6627Z"/><polygon class="cls-2" points="62.673 57.055 35.697 56.729 35.849 44.119 62.825 44.445 72.888 50.679 62.673 57.055"/><g class="cls-3"><polygon class="cls-4" points="60.769 49.031 68.176 53.619 72.888 50.679 62.825 44.445 35.849 44.119 35.794 48.729 60.769 49.031"/></g><path class="cls-5" d="M63.5152,60.064l-30.8531-.3727.2248-18.6079,30.8092.3722L78.5673,50.67ZM38.7331,53.7652l23.0969.279,5.3769-3.3562-5.2531-3.253-23.1409-.28Z"/><path class="cls-5" d="M31.029,174.6615a3,3,0,0,1-2.9636-3.035l.1265-10.472-6.6953-3.1094a3,3,0,0,1,.0661-5.4713l2.426-1.0567-2.397-1.1091a3,3,0,0,1,.0672-5.4742l2.4093-1.0451-2.3844-1.1041a3,3,0,0,1,.0672-5.4742l2.4019-1.0415-2.3761-1.0981a3,3,0,0,1,.0651-5.4742l2.3986-1.04-2.3689-1.0922a3,3,0,0,1-1.7431-2.7595l.1482-12.2667a3,3,0,1,1,5.9986.0724l-.1247,10.3216,6.6888,3.0849a3,3,0,0,1-.0618,5.4763l-2.4043,1.0432,2.377,1.0972a2.9992,2.9992,0,0,1-.0661,5.4742l-2.4088,1.0452,2.3843,1.104a3,3,0,0,1-.0676,5.4742l-2.4088,1.0443,2.3843,1.1041a3,3,0,0,1-.0632,5.4732l-2.4354,1.06,2.4091,1.119a3.0017,3.0017,0,0,1,1.7359,2.7574l-.15,12.41A2.9992,2.9992,0,0,1,31.029,174.6615Z"/><path class="cls-2" d="M129.1873,158.4649l-14.8066,8.9161a8.7425,8.7425,0,0,1-9.2949-.1241l-13.6768-8.72a17.487,17.487,0,0,1-7.8105-14.792V110.3683h53.7383V143.463A17.4443,17.4443,0,0,1,129.1873,158.4649Z"/><path class="cls-7" d="M123.4286,135.2755V110.3683H97.5077v24.9072a12.96,12.96,0,0,0,12.96,12.96h0A12.9607,12.9607,0,0,0,123.4286,135.2755Z"/><path class="cls-5" d="M110.4686,151.2345a15.9785,15.9785,0,0,1-15.9619-15.96V107.3683h31.9219v27.9062A15.9769,15.9769,0,0,1,110.4686,151.2345Zm-9.9629-37.8672v21.9072a9.9719,9.9719,0,0,0,9.9609,9.9609h.002a9.9719,9.9719,0,0,0,9.9609-9.9609V113.3673Z"/><path class="cls-5" d="M109.8328,171.6573a11.8123,11.8123,0,0,1-6.3593-1.872l-13.6768-8.7188a20.5792,20.5792,0,0,1-9.1973-17.3223V107.3683h59.7374V143.464a20.4671,20.4671,0,0,1-9.6006,17.5693l-14.8076,8.916A11.8256,11.8256,0,0,1,109.8328,171.6573Zm-23.2343-58.29v30.3769a14.5358,14.5358,0,0,0,6.4238,12.2637l13.6758,8.7188a5.8233,5.8233,0,0,0,6.1357.0839l14.8057-8.916a14.4408,14.4408,0,0,0,6.6982-12.4306V113.3673Z"/><path class="cls-7" d="M105.5555,58.3019H115.38v76.2988a4.9121,4.9121,0,0,1-4.9121,4.9121h0a4.9121,4.9121,0,0,1-4.9121-4.9121Z"/><path class="cls-5" d="M110.4686,142.5128a7.92,7.92,0,0,1-7.9121-7.9111V55.3028h15.8222v79.2989A7.92,7.92,0,0,1,110.4686,142.5128Zm-1.9131-81.2119v73.3008a1.9121,1.9121,0,1,0,3.8242,0V61.3009Z"/><path class="cls-8" d="M90.93,29.6065V45.4688A12.3015,12.3015,0,0,0,103.23,57.77h14.6016a12.3016,12.3016,0,0,0,12.3008-12.3008V29.6065ZM122.283,44.9786H98.6522V36.3458H122.283Z"/><path class="cls-5" d="M117.8309,60.7677H103.23a15.3167,15.3167,0,0,1-15.3-15.2989V26.6075h45.2012V45.4688A15.3169,15.3169,0,0,1,117.8309,60.7677ZM93.93,32.6065V45.4688A9.312,9.312,0,0,0,103.23,54.77h14.6006a9.3122,9.3122,0,0,0,9.3018-9.3008V32.6065Z"/><path class="cls-5" d="M125.283,47.9786H95.6522V33.3458H125.283Zm-23.6318-5.998H119.284V39.3458H101.6512Z"/></g></g></svg>